<svg xmlns="http://www.w3.org/2000/svg" xmlns:xlink="http://www.w3.org/1999/xlink" width="50" height="50" viewBox="0 0 50 50" version="1.1">
    <!-- Generator: Sketch 44 (41411) - http://www.bohemiancoding.com/sketch -->
    <title>Icon/Colour/Community-Culture</title>
    <desc>Created with Sketch.</desc>
    <defs/>
    <g id="Approved" stroke="none" stroke-width="1" fill="none" fill-rule="evenodd">
        <g id="Icon/Colour/Community-Culture" fill-rule="nonzero">
            <g id="teamwork-(1)">
                <path d="M23.9468168,25.8442352 C23.5399845,25.1396545 22.6358696,24.8974185 21.9312888,25.3042508 L21.8947011,25.3252135 C21.9502135,24.9982531 21.8966421,24.6509123 21.7182648,24.3420031 L21.6937112,24.2997865 C21.2866848,23.5951087 20.382764,23.3525815 19.6780862,23.7594138 L14.9958269,26.462927 C15.3511258,25.7194293 15.724573,24.6420807 15.4481755,23.7859084 C15.294934,23.3108502 14.9712733,22.9721467 14.4867042,22.761743 L14.3197787,22.6893439 L14.138684,22.675854 C13.7278727,22.6457686 12.6801242,22.7844526 11.8231755,24.7201087 C11.3538432,25.7796972 10.8043478,26.246021 10.2726126,26.6973991 C9.27921196,27.5407609 8.59889363,28.2830939 8.27183618,30.7328222 L6.14353649,31.9617624 L10.3453998,39.2395186 L13.1751747,37.6059783 C15.1207298,38.4734084 19.1786685,36.0404697 19.3501553,35.9364325 L22.3603455,34.1986607 C23.0647321,33.7917314 23.3072593,32.8876165 22.9005241,32.1829387 L22.8759705,32.140528 C22.6974961,31.8315217 22.4234278,31.6115101 22.1125776,31.496021 L23.6369371,30.6160714 C24.3415179,30.2092391 24.5838509,29.3050272 24.1771157,28.6003494 L24.1525621,28.5580357 C23.9773874,28.2550466 23.7110831,28.0345497 23.4049884,27.9168284 L23.4310947,27.9016887 C24.1358696,27.4948564 24.3779115,26.5907415 23.9710792,25.8861607 L23.9468168,25.8442352 Z" id="Shape" fill="#FEE5CB"/>
                <g id="Group" transform="translate(6.114130, 22.612578)" fill="#E4BE95">
                    <path d="M13.5641498,1.14693323 L8.88189053,3.85044643 C8.88189053,3.85044643 8.44982531,4.07346661 8.65518245,4.39499224 C8.86063665,4.71651786 9.14508929,4.52892081 9.14508929,4.52892081 L14.5164984,1.33035714 C14.681677,1.23486025 14.8576281,1.17575699 15.0356172,1.14673913 C14.5943323,0.894409938 14.0350349,0.87509705 13.5641498,1.14693323 Z" id="Shape"/>
                    <path d="M8.20584239,0.076863354 L8.02474767,0.0633734472 C7.61393634,0.0332880435 6.56618789,0.17197205 5.70923913,2.10762811 C5.23990683,3.16721661 4.69041149,3.63354037 4.15867624,4.08491848 C3.16527562,4.92828028 2.4849573,5.67061335 2.15789984,8.12034161 L0.0296001553,9.34928183 L4.23146351,16.627038 L4.33802407,16.5656056 L0.460015528,9.84889363 L2.67041925,8.57259317 C3.00999612,6.02833851 3.71671196,5.25737578 4.74835016,4.38169643 C5.30046584,3.91284938 5.87131211,3.42837733 6.3585986,2.328125 C7.10131988,0.650329969 7.98175466,0.272709627 8.50087345,0.211859472 C8.45894798,0.190314441 8.41741071,0.16876941 8.37276786,0.149359472 L8.20584239,0.076863354 Z" id="Shape"/>
                    <path d="M15.8146351,2.6875 L11.1323758,5.3910132 C11.1323758,5.3910132 10.7003106,5.61403339 10.9056677,5.93555901 C11.1111219,6.25708463 11.3955745,6.06948758 11.3955745,6.06948758 L16.7669837,2.87092391 C16.9321623,2.77542702 17.1081134,2.71632376 17.2861025,2.6873059 C16.8449146,2.43507376 16.2856172,2.41566382 15.8146351,2.6875 Z" id="Shape"/>
                    <path d="M17.312403,5.31395575 C17.2218556,5.3445264 17.1329581,5.38412267 17.0470691,5.43381211 L12.3648098,8.13732531 C12.3648098,8.13732531 11.9327446,8.3603455 12.1381017,8.68187112 C12.3435559,9.00339674 12.6280085,8.81579969 12.6280085,8.81579969 L17.8597632,5.70031056 C17.707007,5.52824146 17.5194099,5.39732143 17.312403,5.31395575 Z" id="Shape"/>
                    <path d="M16.0073758,8.88732531 L12.8829581,10.6912849 C12.8829581,10.6912849 12.4508929,10.9143051 12.65625,11.2358307 C12.8617042,11.5573564 13.1461568,11.3697593 13.1461568,11.3697593 L16.6071429,9.30890916 C16.4428377,9.11616848 16.2351514,8.97369953 16.0073758,8.88732531 Z" id="Shape"/>
                </g>
                <path d="M0.194681677,34.8192935 L0.245729814,34.9076087 C0.25640528,34.923913 0.263392857,34.9330357 0.263392857,34.9330357 L0.261451863,34.9349767 L4.16391693,41.6942935 L4.8285132,42.8453998 L4.83113354,42.8447205 C4.83113354,42.8447205 4.83550078,42.8552019 4.84442935,42.8727679 L4.89538043,42.960986 C5.0154309,43.1461568 5.30706522,43.4646739 5.79677795,43.222729 L7.28979037,42.3607337 L9.21147127,41.2511646 L10.7045807,40.3891693 C11.1589674,40.085986 11.0290179,39.6742042 10.9285714,39.4776786 L10.8775233,39.3894604 C10.8668478,39.372962 10.8599573,39.3639363 10.8599573,39.3639363 L10.8618012,39.3619953 L10.197205,38.210889 L6.29464286,31.4515722 L6.29231366,31.4522516 C6.29231366,31.4522516 6.28784938,31.4416731 6.27901786,31.4243012 L6.22796972,31.335986 C6.10791925,31.1508152 5.81628494,30.8322981 5.32666925,31.0743401 L3.83365683,31.9363354 L1.91187888,33.0459045 L0.41886646,33.9078998 C-0.0357142857,34.210986 0.0942352484,34.6227679 0.194681677,34.8192935 Z" id="Shape" fill="#56C116"/>
                <g id="Group" transform="translate(0.000000, 30.958851)" fill="#47A60E">
                    <path d="M1.38761646,4.62713509 L2.88062888,3.76513975 L4.80240683,2.6556677 L6.29541925,1.79367236 C6.78503494,1.55143634 7.07666925,1.87005047 7.19671972,2.05531832 L7.06638199,1.82938665 L6.29464286,0.492624224 L6.29202252,0.493303571 C6.29202252,0.493303571 6.28765528,0.482822205 6.27872671,0.465256211 L6.22777562,0.377135093 C6.10772516,0.191964286 5.81609084,-0.126649845 5.32637811,0.115295031 L3.83336568,0.977290373 L1.91168478,2.08685947 L0.418575311,2.94885481 C-0.0358113354,3.25194099 0.0941381988,3.66372283 0.194584627,3.86024845 L0.245632764,3.94856366 C0.25630823,3.96506211 0.263198758,3.97408773 0.263198758,3.97408773 L0.261354814,3.97593168 L1.03309394,5.3126941 L1.16352873,5.53852873 C1.06317935,5.34200311 0.933035714,4.93022127 1.38761646,4.62713509 Z" id="Shape"/>
                </g>
                <path d="M25.4312888,27.0120342 C25.0245536,27.7166149 25.2667896,28.6207298 25.9714674,29.0275621 L26.007861,29.0485248 C25.6969138,29.1638199 25.4229425,29.3841227 25.2446623,29.6929348 L25.2203028,29.7353455 C24.8134705,30.4401203 25.0555124,31.3441382 25.7600932,31.7510675 L30.4424495,34.4542896 C29.6209239,34.5183424 28.5011646,34.7335986 27.8979037,35.4010093 C27.5631793,35.7712539 27.431677,36.2208851 27.4917508,36.7456328 L27.5125194,36.9265334 L27.5913238,37.0900621 C27.7707686,37.460889 28.4146933,38.298913 30.5194099,38.0732725 C31.6716809,37.9499224 32.3504464,38.1925466 33.0071817,38.4274068 C34.2341809,38.8660714 35.2172943,39.084045 37.5023292,38.1424689 L39.6306289,39.3713121 L43.8324922,32.0934589 L41.0030085,30.4596273 C40.7814441,28.3408385 36.6454775,26.0432842 36.4697205,25.9467197 L33.4596273,24.2087539 C32.7550466,23.8021157 31.8507376,24.0442547 31.4439053,24.7487384 L31.4193517,24.7911491 C31.2409744,25.1002523 31.1875,25.4476902 31.2429154,25.7745536 L29.718653,24.894507 C29.0140722,24.4876747 28.1097632,24.7299107 27.7029309,25.4345885 L27.6785714,25.4769992 C27.5037849,25.7801825 27.4459433,26.121021 27.4970885,26.4449728 L27.4709821,26.429736 C26.7663043,26.0228067 25.8622865,26.2652368 25.4554542,26.9698175 L25.4312888,27.0120342 Z" id="Shape" fill="#DDA264"/>
                <g id="Group" transform="translate(24.941770, 24.941770)" fill="#CC8F4E">
                    <path d="M0.818420031,6.80929736 L5.5007764,9.51251941 C5.5007764,9.51251941 5.90993789,9.77532997 6.08569488,9.43662655 C6.26145186,9.09792314 5.95681289,8.94536102 5.95681289,8.94536102 L0.501067547,5.89285714 C0.335791925,5.7974573 0.196525621,5.67478649 0.0825892857,5.53503494 C0.0846273292,6.04338121 0.347340839,6.53746118 0.818420031,6.80929736 Z" id="Shape"/>
                    <path d="M2.57084627,11.9848602 L2.64965062,12.148389 C2.8290955,12.5192158 3.47302019,13.3572399 5.5777368,13.1315994 C6.73000776,13.0082492 7.40877329,13.2508734 8.06550854,13.4857337 C9.29250776,13.9243983 10.2756211,14.1423719 12.5606561,13.2007958 L14.6889557,14.429639 L18.8908191,7.15178571 L18.7843556,7.09025621 L14.9064441,13.8070652 L12.6959433,12.5309589 C10.3228843,13.5089286 9.30172748,13.2824146 8.02756211,12.8269604 C7.34539984,12.5831716 6.640625,12.3310365 5.44400233,12.4591421 C3.61975932,12.6547943 2.85229037,12.0811335 2.53998447,11.6619759 C2.54221661,11.708948 2.54444876,11.755823 2.54998059,11.8040567 L2.57084627,11.9848602 Z" id="Shape"/>
                    <path d="M1.02727096,4.08996506 L5.70962733,6.79318711 C5.70962733,6.79318711 6.11878882,7.05599767 6.29454581,6.71729425 C6.47020575,6.37859084 6.16566382,6.22602873 6.16566382,6.22602873 L0.709918478,3.17362189 C0.544642857,3.07822205 0.405376553,2.95555124 0.291440217,2.81579969 C0.293478261,3.32404891 0.55638587,3.81812888 1.02727096,4.08996506 Z" id="Shape"/>
                    <path d="M2.55279503,1.47971661 C2.6246118,1.54279891 2.70322205,1.59996118 2.78920807,1.64955357 L7.47156444,4.35277562 C7.47156444,4.35277562 7.88072593,4.61548913 8.05648292,4.27678571 C8.23223991,3.9380823 7.92760093,3.78561724 7.92760093,3.78561724 L2.61364519,0.8125 C2.54134317,1.0306677 2.52154503,1.25863742 2.55279503,1.47971661 Z" id="Shape"/>
                    <path d="M6.30017469,0.823272516 L9.42459239,2.62713509 C9.42459239,2.62713509 9.83375388,2.8898486 10.0095109,2.55114519 C10.1852679,2.21244177 9.88062888,2.05987966 9.88062888,2.05987966 L6.36529503,0.0930706522 C6.28057065,0.331618789 6.26106366,0.582783385 6.30017469,0.823272516 Z" id="Shape"/>
                </g>
                <path d="M44.988257,43.0648292 L45.0393051,42.976514 C45.0481366,42.9591421 45.0525039,42.9485637 45.0525039,42.9485637 L45.0550272,42.949243 L48.9574922,36.1899262 L49.6220885,35.0389169 L49.6202446,35.0368789 C49.6202446,35.0368789 49.6271351,35.0277562 49.6378106,35.0113548 L49.6888587,34.9231366 C49.7894022,34.726611 49.9192547,34.3148292 49.464868,34.011646 L47.9718556,33.1496506 L46.0500776,32.0401786 L44.5570652,31.1781832 C44.0672554,30.9362384 43.7757182,31.2546584 43.6557648,31.4399262 L43.6047166,31.5281444 C43.595691,31.5457104 43.5914208,31.5561918 43.5914208,31.5561918 L43.5889946,31.5555124 L42.9243012,32.7066188 L39.0218362,39.4659356 L39.0236801,39.4677795 C39.0236801,39.4677795 39.0166925,39.4769992 39.0061141,39.4933036 L38.955066,39.5816188 C38.8547166,39.7781444 38.72467,40.1899262 39.1791537,40.4930124 L40.6721661,41.3550078 L42.5939441,42.4645769 L44.0869565,43.3265722 C44.5765722,43.5687112 44.8682065,43.2502911 44.988257,43.0648292 Z" id="Shape" fill="#EFEFEF"/>
                <g id="Group" transform="translate(38.819876, 37.364130)" fill="#D8D8D8">
                    <path d="M6.23583075,4.28435559 L4.74281832,3.42236025 L2.82113742,2.3126941 L1.328125,1.45079581 C0.873641304,1.14770963 1.00368789,0.735927795 1.10403727,0.539305124 L0.973602484,0.765139752 L0.201863354,2.10190217 L0.203707298,2.10384317 C0.203707298,2.10384317 0.19681677,2.11296584 0.186044255,2.12936724 L0.135093168,2.21748835 C0.0345496894,2.41401398 -0.0953998447,2.82589286 0.358986801,3.12907609 L1.85209627,3.99107143 L3.77387422,5.10054348 L5.26688665,5.96263587 C5.75650233,6.20458075 6.04813665,5.88625776 6.16818711,5.70089286 L6.21923525,5.61257764 C6.22826087,5.5951087 6.23253106,5.58462733 6.23253106,5.58462733 L6.2349573,5.58530668 L7.00669643,4.24854425 L7.13713121,4.02261258 C7.0171778,4.20797748 6.72564053,4.52639752 6.23583075,4.28435559 Z" id="Shape"/>
                </g>
                <path d="M25.6352873,24.9713703 C26.4489519,24.9713703 27.1108307,24.3094915 27.1108307,23.4958269 L27.1108307,23.4537073 C27.3662655,23.6653727 27.6938082,23.7925078 28.0505629,23.7925078 L28.0992818,23.7924107 C28.9130435,23.7923137 29.5750194,23.1306289 29.5750194,22.3169643 L29.5750194,16.910229 C30.0412461,17.5896739 30.7874612,18.4517663 31.6671196,18.640528 C32.1551825,18.7454387 32.6103455,18.6343168 33.0347438,18.3199728 L33.1809006,18.2116654 L33.2830939,18.0615295 C33.5145575,17.720788 33.9183812,16.74408 32.6704193,15.0341615 C31.9873835,14.0980202 31.8584045,13.3888781 31.7333075,12.7026398 C31.4994177,11.4208075 31.1968168,10.4603067 29.2389363,8.95225155 L29.2388393,6.49466227 L20.8352096,6.49466227 L20.8350155,9.76203416 C19.1110248,11.0132958 19.1892469,15.7439829 19.19342,15.9444876 L19.193323,19.4203222 C19.1935171,20.2338898 19.8552989,20.8958657 20.6688665,20.8958657 L20.7178766,20.8958657 C21.0746312,20.8958657 21.402368,20.7685365 21.6578028,20.5569682 L21.6577057,22.3171584 C21.6577057,23.1307259 22.3196817,23.7927989 23.1333463,23.7927989 L23.1822593,23.7927019 C23.5324146,23.7925078 23.8563665,23.6721661 24.111316,23.4658385 L24.111316,23.496021 C24.1112189,24.3097826 24.7731949,24.9714674 25.5868595,24.9714674 L25.6352873,24.9713703 Z" id="Shape" fill="#FBCB99"/>
                <g id="Group" transform="translate(19.118789, 6.405280)" fill="#E9B585">
                    <path d="M2.68070652,3.35675466 L2.68090062,0.089382764 L1.71632376,0.089382764 L1.71612966,3.35675466 C-0.00786102484,4.6080163 0.0703610248,9.33870342 0.0745341615,9.53920807 L0.0744371118,13.0150427 C0.0746312112,13.8286102 0.736413043,14.4905862 1.54998059,14.4905862 L1.59899068,14.4905862 C1.75854037,14.4905862 1.91197593,14.4638975 2.05609472,14.4167314 C1.46642081,14.2233113 1.03930512,13.6684783 1.03901398,13.0150427 L1.03911102,9.53920807 C1.03474379,9.33860637 0.956715839,4.60791925 2.68070652,3.35675466 Z" id="Shape"/>
                    <path d="M3.50320264,15.9118789 L3.50329969,14.1516887 C3.49359472,14.1597438 3.4830163,14.1668284 3.47331134,14.1744953 L3.47331134,10.1772127 C3.47331134,9.91915761 3.2640722,9.71001553 3.00601708,9.71001553 C2.74796196,9.71001553 2.53872283,9.91906056 2.53872283,10.1772127 L2.53872283,14.914111 L2.53881988,14.9146933 L2.53872283,15.9117818 C2.53872283,16.7253494 3.20069876,17.3874224 4.01436335,17.3874224 L4.0632764,17.3873253 C4.22302019,17.3872283 4.37694099,17.3609278 4.52183618,17.3140528 C3.93128882,17.121021 3.50320264,16.5657026 3.50320264,15.9118789 Z" id="Shape"/>
                    <path d="M8.85888975,16.8095885 C8.86005435,16.7960986 8.86296584,16.7830939 8.86296584,16.7693129 L8.86296584,12.0324146 C8.86296584,11.7743595 8.65372671,11.5652174 8.39567158,11.5652174 C8.13761646,11.5652174 7.92837733,11.7742624 7.92837733,12.0324146 L7.92837733,16.7693129 C7.92837733,16.7741654 7.92963898,16.7786297 7.92973602,16.7833851 C7.93701475,16.9495342 7.99184783,17.0486219 7.99184783,17.0486219 C8.03678183,17.0894798 8.08443323,17.1244177 8.13334627,17.1559589 C8.13412267,17.1565411 8.13480202,17.1570264 8.13548137,17.1574146 C8.54202252,17.4194488 9.04658385,17.3874224 9.04658385,17.3874224 L9.05230978,17.3844138 C9.18662655,17.3776203 9.31628494,17.3536491 9.4388587,17.3134705 C9.27465062,17.259802 9.12335016,17.1778921 8.98990683,17.0738548 C8.90634705,16.9853455 8.87150621,16.8898486 8.85888975,16.8095885 Z" id="Shape"/>
                    <path d="M5.95661879,17.0907415 L5.95661879,17.060559 L5.95661879,12.4993207 C5.95661879,12.2412655 5.74737966,12.0321234 5.48932453,12.0321234 C5.23126941,12.0321234 5.02203028,12.2411685 5.02203028,12.4993207 L5.02203028,17.2362189 C5.02203028,17.289014 5.03270575,17.3390916 5.04891304,17.3863548 C5.04182842,17.3864519 5.03474379,17.3873253 5.02756211,17.3873253 L5.02203028,17.3873253 C5.15964674,18.0592974 5.75553183,18.5660908 6.4675854,18.5660908 L6.51649845,18.5661879 C6.67643634,18.5661879 6.83006599,18.5397904 6.97447593,18.4924301 C6.38441382,18.2993983 5.95652174,17.7444682 5.95661879,17.0907415 Z" id="Shape"/>
                    <path d="M11.9261452,11.1580939 C11.8270575,11.0413432 11.6673137,10.8366654 11.4887422,10.6022904 C11.4654503,10.5695846 11.4424495,10.5369759 11.4206134,10.5050466 L11.4206134,10.5126165 C10.9775815,9.92847438 10.4560365,9.21535326 10.4560365,9.21535326 L10.4560365,10.5049495 C10.7625194,10.9773874 11.4206134,11.6184006 11.4206134,11.6184006 C11.757764,11.91217 12.1381988,12.1473214 12.5481366,12.2351514 C12.8337539,12.2964868 13.1078222,12.2818323 13.3712151,12.1978843 C12.8191964,12.0325116 12.3250194,11.6117042 11.9261452,11.1580939 Z" id="Shape"/>
                </g>
                <path d="M29.6617818,0.0642468944 L29.5598797,0.0642468944 C29.5403727,0.065314441 29.5290179,0.0666731366 29.5290179,0.0666731366 L29.5283385,0.0642468944 L21.7232143,0.0642468944 L20.3941188,0.0642468944 L20.3933424,0.0666731366 C20.3933424,0.0666731366 20.3820846,0.0652173913 20.3623835,0.0642468944 L20.2605784,0.0642468944 C20.0399845,0.0756017081 19.6184977,0.16886646 19.5832686,0.713994565 L19.5832686,2.43798525 L19.5832686,4.65692935 L19.5832686,6.38092003 C19.6184977,6.92604814 20.0401786,7.01931289 20.2605784,7.0306677 L20.3623835,7.0306677 C20.3820846,7.02960016 20.3933424,7.02824146 20.3933424,7.02824146 L20.3941188,7.0306677 L21.7232143,7.0306677 L29.5283385,7.0306677 L29.5290179,7.02824146 C29.5290179,7.02824146 29.5403727,7.0296972 29.5598797,7.0306677 L29.6617818,7.0306677 C29.8823758,7.01940994 30.3038626,6.92604814 30.3389946,6.38092003 L30.3389946,4.65692935 L30.3389946,2.4378882 L30.3389946,0.713994565 C30.3038626,0.16886646 29.8823758,0.0756017081 29.6617818,0.0642468944 Z" id="Shape" fill="#1B9FD6"/>
                <g id="Group" transform="translate(19.506988, 0.000000)" fill="#0F86B8">
                    <path d="M2.01397516,6.38072593 L2.01397516,4.65692935 L2.01397516,2.4378882 L2.01397516,0.713994565 C2.04920419,0.16886646 2.47088509,0.0756017081 2.69128494,0.0642468944 L2.43051242,0.0642468944 L0.887034161,0.0642468944 L0.886257764,0.0666731366 C0.886257764,0.0666731366 0.875,0.0652173913 0.855298913,0.0642468944 L0.753493789,0.0642468944 C0.532899845,0.0756017081 0.111413043,0.16886646 0.0761840062,0.713994565 L0.0761840062,2.43798525 L0.0761840062,4.65692935 L0.0761840062,6.38092003 C0.111413043,6.92604814 0.533093944,7.01931289 0.753493789,7.0306677 L0.855298913,7.0306677 C0.875,7.02960016 0.886257764,7.02824146 0.886257764,7.02824146 L0.887034161,7.0306677 L2.43051242,7.0306677 L2.69128494,7.0306677 C2.47078804,7.01931289 2.04920419,6.92595109 2.01397516,6.38072593 Z" id="Shape"/>
                </g>
            </g>
        </g>
    </g>
</svg>