<svg xmlns="http://www.w3.org/2000/svg" xmlns:xlink="http://www.w3.org/1999/xlink" width="50" height="50" viewBox="0 0 50 50" version="1.1">
    <!-- Generator: Sketch 44 (41411) - http://www.bohemiancoding.com/sketch -->
    <title>Icon/Colour/AwardWinning</title>
    <desc>Created with Sketch.</desc>
    <defs/>
    <g id="Approved" stroke="none" stroke-width="1" fill="none" fill-rule="evenodd">
        <g id="Icon/Colour/AwardWinning" fill-rule="nonzero">
            <g id="certificate">
                <g id="Layer_1">
                    <path d="M21.4362699,13.6592737 L8.58424684,19.4903449 L18.9723843,42.4147977 L24.5659837,37.6833076 L31.791099,36.6170599 L21.4362699,13.6592737 Z" id="Shape" fill="#005AA8"/>
                    <path d="M11.9138106,13.8925233 L24.7658336,19.7235946 L14.3776962,42.6813808 L8.78409675,37.9165572 L1.52575769,36.8503095 C1.52567315,36.8503095 11.9138106,13.8925233 11.9138106,13.8925233 Z" id="Shape" fill="#0379D5"/>
                    <path d="M33.3226899,16.6914341 C33.3226899,17.9242645 31.5580253,18.9572634 31.2916433,20.1234269 C31.0252613,21.3229238 32.1906297,23.0223381 31.6911741,24.1219193 C31.15841,25.2215004 29.127448,25.3547497 28.3949186,26.2877482 C27.6623892,27.2207466 27.9953879,29.2865751 27.0630931,30.0529909 C26.1307984,30.8194067 24.2662934,30.0196575 23.2008499,30.5528236 C22.1354064,31.0859898 21.5694186,33.0851514 20.4040502,33.3517345 C19.2719901,33.6183175 17.9069408,32.0855706 16.708264,32.0855706 C15.5096718,32.0855706 14.144538,33.6183175 13.0124778,33.3517345 C11.8471094,33.0851514 11.2811216,31.0859052 10.2156781,30.5528236 C9.15023463,30.0196575 7.25242134,30.8194067 6.3534349,30.0529909 C5.42114014,29.2866597 5.75413879,27.2207466 5.0216094,26.2877482 C4.28908002,25.3547497 2.25811799,25.2215004 1.72535398,24.1219193 C1.22589828,23.0556716 2.39126673,21.3230084 2.12488472,20.1234269 C1.79197061,18.9571788 0.0273060579,17.9242645 0.0273060579,16.6914341 C0.0273060579,15.4586037 1.79197061,14.4256048 2.05835262,13.2594414 C2.32473463,12.0599444 1.15936618,10.3605301 1.65882188,9.26094897 C2.1915859,8.1613678 4.22254792,8.02811856 4.95507731,7.09512008 C5.68760669,6.1621216 5.35460805,4.09629309 6.2869028,3.32987732 C7.21919756,2.56346154 9.08370253,3.36321078 10.149146,2.83004462 C11.2145895,2.29687846 11.7805773,0.29771687 12.9459458,0.0311337903 C14.0780059,-0.235449289 15.4430552,1.29729766 16.6417319,1.29729766 C17.8403241,1.29729766 19.205458,-0.235449289 20.3375181,0.0311337903 C21.5028865,0.29771687 22.0688743,2.29696306 23.1343178,2.83004462 C24.1997613,3.36321078 26.0975746,2.56346154 26.996561,3.32987732 C27.9288558,4.09620849 27.5958571,6.1621216 28.3283865,7.09512008 C29.0609159,8.02811856 31.0918779,8.1613678 31.624642,9.26094897 C32.1240976,10.3271967 30.9587292,12.0598598 31.2251112,13.2594414 C31.5580253,14.4256895 33.3226899,15.4586037 33.3226899,16.6914341 Z" id="Shape" fill="#F4B92C"/>
                    <path d="M16.6750402,10.0273647 C12.9792541,10.0273647 10.0159973,13.0261917 10.0159973,16.6914341 C10.0159973,20.3566765 13.0125624,23.3555035 16.6750402,23.3555035 C20.3708264,23.3555035 23.3340832,20.3566765 23.3340832,16.6914341 C23.3340832,13.0261917 20.3707419,10.0273647 16.6750402,10.0273647 Z M16.6750402,19.6902611 C15.0103006,19.6902611 13.6784751,18.3574303 13.6784751,16.6914341 C13.6784751,15.0254379 15.0103006,13.6926071 16.6750402,13.6926071 C18.3397798,13.6926071 19.6716053,15.0254379 19.6716053,16.6914341 C19.6716053,18.3574303 18.3397798,19.6902611 16.6750402,19.6902611 Z M16.6750402,4.69604157 C10.0493056,4.69604157 4.6886953,10.0606136 4.6886953,16.6914341 C4.6886953,23.3222546 10.0492211,28.6868267 16.6750402,28.6868267 C23.3008594,28.6868267 28.6613006,23.32217 28.6613006,16.6914341 C28.6613006,10.0606982 23.3007749,4.69604157 16.6750402,4.69604157 Z M16.6750402,26.6875805 C11.1480574,26.6875805 6.68643354,22.2226735 6.68643354,16.6914341 C6.68643354,11.1601948 11.1479729,6.69528776 16.6750402,6.69528776 C22.2021076,6.69528776 26.6636469,11.1601948 26.6636469,16.6914341 C26.6636469,22.2226735 22.2020231,26.6875805 16.6750402,26.6875805 Z" id="Shape" fill="#FFE26F"/>
                </g>
            </g>
        </g>
    </g>
</svg>