<svg xmlns:xlink="http://www.w3.org/1999/xlink" xmlns="http://www.w3.org/2000/svg" id="Layer_1" data-name="Layer 1" viewBox="0 0 161.19 90.67" width="161.19"  height="90.67" ><defs><style>.cls-1{fill:#fff;}.cls-2{fill:#0050c4;}</style></defs><rect class="cls-1" width="161.19" height="90.67"/><rect class="cls-2" x="6.72" y="6.72" width="147.76" height="77.24"/><path class="cls-1" d="M23.22,67.93V22.74h11c8.14,0,13.11,4.45,13.11,11.55,0,5-2.45,8-6.39,9.3,4.84,1.55,7.94,5.3,7.94,11.49,0,7.69-5.81,12.85-13.82,12.85Zm9.43-26.86h1c2.71,0,4.52-1.67,4.52-5.81s-1.81-5.81-4.52-5.81h-1Zm0,20.15h1.74c3,0,5.1-2.33,5.1-7s-2.06-7-5.1-7H32.65Z" transform="translate(0 0)"/><path class="cls-1" d="M51.47,45.33C51.47,30.68,56.06,22,65.1,22c7.36,0,11.62,4.72,13,15.95l-9.23,2.65c-.32-8.91-1.74-11.24-3.74-11.24-2.52,0-3.94,4.85-3.94,16s1.42,16,3.94,16c2.06,0,3.29-3.17,3.74-10.85L78.07,53c-1.61,10.53-5.68,15.76-13,15.76C56.06,68.71,51.47,60,51.47,45.33Z" transform="translate(0 0)"/><path class="cls-1" d="M99.42,67.93l-1.35-7.75h-9.3l-1.35,7.75H78.7l8.52-45.19h12.4l8.52,45.19ZM89.93,53.47h7L94.45,39.14a62.25,62.25,0,0,1-.77-6.59h-.52a62.25,62.25,0,0,1-.77,6.59Z" transform="translate(0 0)"/><path class="cls-1" d="M130.84,67.93l-1.36-7.75h-9.29l-1.36,7.75h-8.71l8.52-45.19H131l8.53,45.19Zm-9.49-14.46h7l-2.45-14.33a64.65,64.65,0,0,1-.78-6.59h-.51a61.92,61.92,0,0,1-.78,6.59Z" transform="translate(0 0)"/></svg>