<svg xmlns="http://www.w3.org/2000/svg" xmlns:xlink="http://www.w3.org/1999/xlink" width="50" height="50" viewBox="0 0 50 50" version="1.1">
    <!-- Generator: Sketch 44 (41411) - http://www.bohemiancoding.com/sketch -->
    <title>Icon/Colour/WaysToSave</title>
    <desc>Created with Sketch.</desc>
    <defs/>
    <g id="Approved" stroke="none" stroke-width="1" fill="none" fill-rule="evenodd">
        <g id="Icon/Colour/WaysToSave" fill-rule="nonzero">
            <g id="piggy-bank">
                <g id="Layer_1">
                    <g id="Group" transform="translate(9.523156, 20.541684)" fill="#FF4747">
                        <path d="M28.7240359,0.657884839 L28.7240359,1.48026054 C28.7240359,1.97365448 28.3950541,2.30263624 27.9016602,2.30263624 L24.9411391,2.30263624 L24.9411391,3.53616044 L28.3128874,3.53616044 C29.2175085,3.53616044 29.9576388,2.79603018 29.9576388,1.89140904 L29.9576388,0.657884839 C29.9576388,0.328903077 29.7109025,1.88229767e-08 29.299754,1.88229767e-08 L29.299754,1.88229767e-08 C28.9707722,-7.86849479e-05 28.7240359,0.246657637 28.7240359,0.657884839 Z" id="Shape"/>
                        <path d="M6.66125105,16.1660527 C6.49676017,17.8108041 5.09874509,19.1265737 3.37174825,19.1265737 L3.28950281,19.1265737 C1.48026052,19.1265737 0,17.6463132 0,15.8370709 L0,13.9455832 C1.97365446,15.0146952 4.27636939,15.7548255 6.66125105,16.1660527 Z" id="Shape"/>
                    </g>
                    <path d="M5.61034345,15.7794383 C7.66624335,14.6280808 9.88671284,13.8879505 11.9426127,13.6412929 L7.41958574,9.11826592 C6.02157065,10.516281 5.36368583,12.2432778 5.36368583,14.0525201 C5.44585257,14.5458354 5.52809801,15.2037202 5.61034345,15.7794383 Z" id="Shape" fill="#5A5A5A"/>
                    <g id="Group" transform="translate(0.000000, 19.754646)" fill="#FF4747">
                        <path d="M0.863518098,0.255839724 C-0.287839366,1.40719719 -0.287839366,5.84797876 0.863518098,6.99933622 C1.43915748,7.5749756 4.1530209,6.99933622 4.1530209,6.99933622 L4.1530209,0.255839724 C4.07077546,0.255839724 1.43915748,-0.319799656 0.863518098,0.255839724 Z" id="Shape"/>
                        <path d="M29.4569158,14.4819518 L29.4569158,16.3734395 C29.4569158,18.1826818 27.9766553,19.6629423 26.167413,19.6629423 L26.0851676,19.6629423 C24.3581708,19.6629423 22.9601557,18.3471726 22.7956648,16.7024212 C25.2627919,16.291194 27.4832614,15.5510638 29.4569158,14.4819518 Z" id="Shape"/>
                    </g>
                    <ellipse id="Oval" fill="#FC8F8F" cx="19.6835484" cy="23.5134265" rx="17.2698897" ry="13.3224234"/>
                    <circle id="Oval" fill="#5A5A5A" cx="7.42328958" cy="19.759767" r="1"/>
                    <path d="M25.1084133,13.6773989 L14.3352837,13.6773989 C14.0063019,13.6773989 13.6773989,13.9241352 13.6773989,14.3352837 L13.6773989,14.3352837 C13.6773989,14.6642655 13.9241352,14.9931685 14.3352837,14.9931685 L25.1084133,14.9931685 C25.437395,14.9931685 25.6840526,14.7464322 25.6840526,14.3352837 L25.6840526,14.3352837 C25.6840526,14.0063806 25.4373163,13.6773989 25.1084133,13.6773989 Z" id="Shape" fill="#FF4747"/>
                    <circle id="Oval" fill="#F4B92C" cx="19.6770613" cy="7.07239955" r="7.07239955"/>
                    <circle id="Oval" fill="#FFE26F" cx="19.5591702" cy="7.22269275" r="5.34540271"/>
                </g>
            </g>
        </g>
    </g>
</svg>