<svg xmlns="http://www.w3.org/2000/svg" xmlns:xlink="http://www.w3.org/1999/xlink" width="50" height="50" viewBox="0 0 50 50" version="1.1">
    <!-- Generator: Sketch 44 (41411) - http://www.bohemiancoding.com/sketch -->
    <title>Icon/Colour/ExclusiveSavings</title>
    <desc>Created with Sketch.</desc>
    <defs>
        <path d="M28.2158807,22 L1.65690978,22 C0.741669282,22 0,21.2457143 0,20.3149048 L0,1.68509524 C0,0.754285714 0.741669282,0 1.65690978,0 L28.2158807,0 C29.1311212,0 29.8727905,0.754285714 29.8727905,1.68509524 L29.8727905,20.3149048 C29.8727905,21.2457143 29.1311212,22 28.2158807,22" id="path-1"/>
    </defs>
    <g id="Approved" stroke="none" stroke-width="1" fill="none" fill-rule="evenodd">
        <g id="Icon/Colour/ExclusiveSavings">
            <g id="Exclusive-Savings-Copy">
                <path d="M28.3687943,23.7386525 L28.1914894,21.3893617 L30.3285461,20.3900709 C31.8262411,20.4099291 33.3179078,20.5328014 34.7955674,20.7569149 C34.2507092,21.6698582 30.9437943,23.356383 30.3285461,23.404078 L28.3687943,23.7386525" id="Shape" fill="#DCA365"/>
                <path d="M26.0289007,2.03550714 C26.5460993,0.531606431 28.141844,-0.310769455 29.6764184,0.106606431 L34.9154255,1.53674828 C36.1890071,4.39543622 36.1890071,4.39543622 34.2937943,6.46706742 L26.6180851,4.92061352 L24.4680851,6.37841494 L26.0289007,2.03550714" id="Shape" fill="#DCA365"/>
                <g id="COLOUR---Join" transform="translate(0.099291, 4.964539)">
                    <g>
                        <mask id="mask-2" fill="white">
                            <use xlink:href="#path-1"/>
                        </mask>
                        <use id="Combined-Shape" fill="#F4B92C" xlink:href="#path-1"/>
                        <path d="M27.5699338,20.3210889 C27.6633901,19.3212311 27.817127,18.2610104 28.0014377,17.2514238 L29.1925185,20.1472967 L27.5699338,20.3210889 Z M26.4272074,14.7175073 L24.6409114,24.6077415 L27.0642719,24.3220678 C27.1447181,23.6983175 27.1579451,23.067934 27.279807,22.4665157 L30.1890973,22.1817265 C30.4206783,22.7581594 30.6613664,23.3215467 30.8673607,23.9143417 L33.2683871,23.6580756 L29.1658476,14.4249792 L26.4272074,14.7175073 Z M18.8038997,22.0890816 L19.8544708,16.3840106 C20.6550297,18.1581944 21.4794407,19.9151316 22.2036734,21.7246929 L18.8038997,22.0890816 Z M24.2358615,25.0130355 C24.4704782,23.4756601 24.7350183,21.962828 25.0257955,20.4592824 L24.7042275,19.7579226 L21.2784336,12.7659936 C20.0977609,12.8926894 19.0506593,13.0445918 17.8205479,13.202464 L15.8577473,22.1496656 L17.1058561,22.0426486 C17.2966718,23.7608916 16.2703865,25.5176077 14.9004158,26.3593721 C14.7397403,27.0854961 14.5159654,27.8452288 14.4335676,28.5638352 C15.4654908,28.6536057 16.4952455,28.8382322 17.518712,28.8351367 C17.7407522,27.4337438 18.0052923,26.0535774 18.3231741,24.6818132 L23.3591931,24.142969 C23.9834643,25.4946123 24.5628504,26.9048495 25.2361266,28.210502 L28.1989754,27.0505608 L26.8719383,24.6846876 L24.2358615,25.0130355 Z M10.3024058,25.4068317 C8.68545881,23.8533154 8.23682487,21.2926447 8.96496058,19.1949775 C9.44004853,17.8190122 10.669943,16.6435934 12.0451177,16.3634475 C13.4168231,16.1757254 14.6794598,16.5896426 15.6409112,17.637039 C16.0012928,18.0799216 16.2391621,18.6026248 16.3018277,19.2120029 L13.9682373,19.4879478 C13.8780335,19.1240013 13.789998,18.7715525 13.4391572,18.5557495 C13.0427807,18.2762669 12.4820425,18.3094334 12.0399137,18.4774767 C10.6918435,19.3975139 10.9997508,21.1042592 11.2720969,22.6002871 C11.5069305,23.3505121 11.8779371,24.2747504 12.7441974,24.4083006 C13.1999869,24.3733653 13.6405979,24.3132235 13.9346277,23.9877501 C14.2351626,23.5946171 14.3346904,23.1552723 14.3917183,22.6944798 L16.7665075,22.4399826 C16.753931,24.1002949 15.6944697,25.6591178 14.1688107,26.250365 C12.7706514,26.6943532 11.3397498,26.4330016 10.3024058,25.4068317 Z M24.4314477,29.1679067 C19.0296262,30.3780398 13.3571931,30.0797629 9.06362102,26.6768855 C7.40374048,25.2000942 6.42862843,22.8611964 7.01018291,20.6315268 C8.76395349,15.5168186 13.8175362,13.5566817 18.5397933,12.4984509 C24.067163,11.748447 29.3740103,12.2435115 33.3061166,16.2761091 C34.361458,17.5028254 34.9699002,19.2898335 34.680424,20.976679 C33.5144961,25.7908992 28.726104,28.0776151 24.4314477,29.1679067 Z M24.7105158,9.74851035 C17.1238535,9.26074248 9.4122935,11.3093233 5.31929481,18.0931882 C3.86584226,20.4951022 4.01827806,24.2230107 5.60877104,26.5358176 C9.69201211,31.6549479 15.9631297,32.8748098 22.3051527,32.155098 C28.274868,31.2014521 34.1376832,28.8375689 36.767038,22.8415177 C37.8739864,20.0820694 37.0745116,16.4622835 35.0447087,14.3940239 C32.1391046,11.3170621 28.4726226,10.2515348 24.7105158,9.74851035 Z" id="Fill-1" fill="#FFE26F" mask="url(#mask-2)"/>
                        <rect id="Rectangle-11" fill="#5A5A5A" mask="url(#mask-2)" x="2.58992806" y="11.88" width="15.2683151" height="1.69230769" rx="0.846153846"/>
                        <rect id="Rectangle-11-Copy" fill="#5A5A5A" mask="url(#mask-2)" x="2.58992806" y="14.52" width="9.29375705" height="1.35384615" rx="0.676923077"/>
                        <rect id="Rectangle-path" fill="#F3F3F3" mask="url(#mask-2)" x="2.15827338" y="2.64" width="9.6571521" height="3.38461538"/>
                    </g>
                </g>
                <path d="M27.9696809,8.67209101 C27.9696809,7.57333215 26.7634752,7.16499882 25.6647163,7.16499882 L26.662234,4.9536513 L27.5230496,4.01287116 C29.4182624,1.94123995 32.2432624,1.03290662 34.9593972,1.56996336 L36.2285461,1.91517612 L49.9076241,6.84123995 L49.9076241,19.0392896 C49.060461,19.0392896 48.222695,19.1665946 47.4216312,19.4121619 C46.6205674,19.657552 45.856383,20.0229775 45.1565603,20.5001052 L43.9381206,21.3286513 C42.6906028,22.1774102 41.1237589,22.4105662 39.6843972,21.9625165 C38.102305,21.4713818 36.4879433,21.1001052 34.8537234,20.8515236 C33.362234,20.6258144 31.8705674,20.5031194 30.3728723,20.4830839 C30.2195035,20.4800697 23.2537885,20.4830839 23.2537885,20.4830839 C21.6271928,20.4830839 19.4962738,18.5728682 19.8363392,15.6833513 C20.0324814,14.0167418 21.1721867,13.396048 21.1721867,13.396048 C20.8305629,12.1459095 27.6707447,11.4309563 27.8810284,11.420318 L27.9696809,8.67209101 Z" id="Shape" fill="#FCDCBC"/>
                <path d="M35.827305,10.9929078 L30.141844,10.9929078 L30.148227,12.4175532 C30.1484043,12.4175532 33.8640071,12.5804965 35.827305,10.9929078" id="Shape" fill="#DCA365"/>
                <path d="M23.5306738,13.8297872 C22.0898936,13.8297872 20.9219858,14.997695 20.9219858,16.4384752 C20.9219858,17.8792553 22.0898936,19.0471631 23.5306738,19.0471631 C24.9714539,19.0471631 25.4030142,17.8792553 25.4030142,16.4384752 C25.4030142,14.997695 24.9714539,13.8297872 23.5306738,13.8297872 Z" id="Shape" fill="#FFFFFF"/>
                <path d="M28.3991135,4.96453901 L26.6785461,4.96453901 L25.0531915,4.96453901 L18.4397163,4.96453901 L21.0390071,13.4946809 C21.7464539,12.8599291 22.6826241,12.4734043 23.7092199,12.4734043 L29.7624113,12.4734043 C29.9734043,12.4734043 30.1861702,12.4698582 30.3953901,12.4592199 L30.3900709,12.322695 L30.3900709,11.0338652 L30.3900709,6.95390071 C30.3902482,5.85460993 29.4984043,4.96453901 28.3991135,4.96453901" id="Shape" fill="#F4B92C"/>
            </g>
        </g>
    </g>
</svg>