<svg xmlns="http://www.w3.org/2000/svg" xmlns:xlink="http://www.w3.org/1999/xlink" width="50" height="50" viewBox="0 0 50 50" version="1.1">
    <!-- Generator: Sketch 44 (41411) - http://www.bohemiancoding.com/sketch -->
    <title>Icon/Colour/WaterDamage</title>
    <desc>Created with Sketch.</desc>
    <defs>
        <polygon id="path-1" points="0 41.1604373 37.5982193 41.1604373 37.5982193 0 0 0"/>
        <polygon id="path-3" points="6.29628823 6.36381024 6.29628823 5.68288406 6.29628823 2.95928715 6.29628823 2.27836097 6.29628823 0.916562511 6.29628823 0.235690236 5.40040572 0.235690236 0.921135032 0.235690236 0.0252525253 0.235690236 0.0252525253 0.916616416 0.0252525253 2.27841487 0.0252525253 2.95934105 0.0252525253 5.68293796 0.0252525253 6.36386414 0.921135032 6.36386414 5.40040572 6.36386414"/>
    </defs>
    <g id="Approved" stroke="none" stroke-width="1" fill="none" fill-rule="evenodd">
        <g id="Icon/Colour/WaterDamage">
            <g id="Water-Damage">
                <g id="Group-7" transform="translate(6.868298, 28.447297)" fill="#00254B">
                    <path d="M19.6487085,10.0688385 L19.0094532,10.0688385 C18.5382858,10.0688385 18.129514,9.56615442 18.129514,8.98519326 L18.129514,0 L15.4166667,0 L15.4166667,8.98519326 C15.4166667,11.0685767 17.0342833,12.7755155 19.0094532,12.7755155 L19.6487085,12.7755155 L19.6487085,10.0688385 Z" id="Fill-1"/>
                    <path d="M26.2521916,2.91666667 C24.2770217,2.91666667 22.6780695,4.66268987 22.6780695,6.74618157 L22.6780695,9.19518292 C22.6780695,9.77614408 22.2720105,10.2788281 21.8007347,10.2788281 L20.8333333,10.2788281 L20.8333333,12.9855051 L21.8007347,12.9855051 C23.7760131,12.9855051 25.3909169,11.2785663 25.3909169,9.19518292 L25.3909169,6.74618157 C25.3909169,6.16522041 25.7810243,5.62334368 26.2521916,5.62334368 L33.8550005,5.62334368 L33.8550005,2.91666667 L26.2521916,2.91666667 Z" id="Fill-3"/>
                    <path d="M10.0921176,10.9669688 L0,10.9669688 L0,8.26029184 L10.0921176,8.26029184 C10.5632849,8.26029184 10.9614224,7.76951716 10.9614224,7.18866428 L10.9614224,0.416666667 L13.6742698,0.416666667 L13.6742698,7.18866428 C13.6742698,9.2720477 12.0672875,10.9669688 10.0921176,10.9669688" id="Fill-5"/>
                </g>
                <g id="Group-39" transform="translate(4.589506, 8.352280)">
                    <mask id="mask-2" fill="white">
                        <use xlink:href="#path-1"/>
                    </mask>
                    <g id="Clip-31"/>
                    <polygon id="Fill-30" fill="#195F93" mask="url(#mask-2)" points="29.5833333 26.2840427 31.7536112 26.2840427 31.7536112 22.5 29.5833333 22.5"/>
                    <polygon id="Fill-32" fill="#195F93" mask="url(#mask-2)" points="24.5833333 29.2486749 28.3760024 29.2486749 28.3760024 27.0833333 24.5833333 27.0833333"/>
                    <polygon id="Fill-33" fill="#195F93" mask="url(#mask-2)" points="10 31.2840427 12.1702779 31.2840427 12.1702779 27.5 10 27.5"/>
                    <polygon id="Fill-34" fill="#195F93" mask="url(#mask-2)" points="17.0833333 29.2486749 20.8760024 29.2486749 20.8760024 27.0833333 17.0833333 27.0833333"/>
                    <polygon id="Fill-35" fill="#195F93" mask="url(#mask-2)" points="12.5 26.7486749 16.2926691 26.7486749 16.2926691 24.5833333 12.5 24.5833333"/>
                    <polygon id="Fill-36" fill="#195F93" mask="url(#mask-2)" points="22.3012826 31.5742567 23.0337514 29.7965112 22.081976 29.5833333 21.25 33.2806541 21.8131871 33.4067853"/>
                    <polygon id="Fill-37" fill="#195F93" mask="url(#mask-2)" points="23.0602572 29.5833333 23.0602572 31.1953219 22.5 32.0734762 23.277285 33.3726811 23.6028267 33.3726811 23.6028267 29.5833333"/>
                    <path d="M20.8333333,37.939991 C20.8333333,35.7110966 22.6535454,34.1666667 22.6535454,34.1666667 C22.6535454,34.1666667 24.4738659,35.8123263 24.4738659,37.939991 C24.4738659,38.9429772 23.6589266,39.756063 22.6535454,39.756063 C21.6482727,39.756063 20.8333333,38.9429772 20.8333333,37.939991" id="Fill-38" fill="#4DC7FA" mask="url(#mask-2)"/>
                </g>
                <g id="COLOUR---Home">
                    <g id="Group-2" transform="translate(9.250000, 0.000000)">
                        <polygon id="Shape" fill="#F3F3F3" points="1.5993266 10.9343434 1.5993266 29.2123617 13.893587 29.2123617 30.1587302 29.2123617 30.1587302 10.9343434 12.9772643 10.9343434"/>
                        <rect id="Rectangle-path" fill="#C7171D" x="20.4166667" y="6.75015599e-16" width="4.56950457" height="3.9983165"/>
                        <polygon id="Shape" fill="#ED1C24" points="26.976102 3.33333333 22.9677897 3.33333333 19.9615158 3.33333333 12.9469296 3.33333333 5.01043003 3.33333333 0 12.1516354 1.00211774 12.1516354 12.9469296 12.1516354 30.9844142 12.1516354 31.986532 12.1516354"/>
                        <polygon id="Shape-Copy" fill="#D8D8D8" points="1.5993266 12.2138047 30.1587302 27.0646946 30.1587302 12.2138047 12.9772643 12.2138047"/>
                        <rect id="Rectangle-10" fill="#F4B92C" x="6.71717172" y="15.4124579" width="8.23182808" height="12.1293467"/>
                        <g id="Path-6" transform="translate(21.405724, 15.176768)">
                            <mask id="mask-4" fill="white">
                                <use xlink:href="#path-3"/>
                            </mask>
                            <use id="Mask" fill="#1B9FD6" xlink:href="#path-3"/>
                        </g>
                    </g>
                    <rect id="Combined-Shape" fill="#47A60E" x="0" y="27" width="50" height="2.91666667"/>
                </g>
            </g>
        </g>
    </g>
</svg>