<svg xmlns:xlink="http://www.w3.org/1999/xlink" xmlns="http://www.w3.org/2000/svg" width="31" height="30" viewBox="0 0 31 30"><title>Checkmark</title><g transform="translate(.444)" fill="none" fill-rule="evenodd"><ellipse fill="#86C440" cx="15.027" cy="14.971" rx="15.027" ry="14.971"/><path d="M7.189 16.175a.618.618 0 0 1-.163-.393c0-.112.054-.28.163-.393l.758-.786a.511.511 0 0 1 .759 0l.054.057 2.98 3.312c.108.112.27.112.38 0l7.26-7.804h.054a.511.511 0 0 1 .758 0l.759.786a.556.556 0 0 1 0 .786l-8.67 9.32a.484.484 0 0 1-.378.168.484.484 0 0 1-.38-.168l-4.226-4.716-.108-.169" fill="#FFF"/></g></svg>