<svg xmlns:xlink="http://www.w3.org/1999/xlink" xmlns="http://www.w3.org/2000/svg" id="Layer_1" data-name="Layer 1" viewBox="0 0 235.07 90.67" width="235.07"  height="90.67" ><defs><style>.cls-1{fill:#fff;}.cls-2,.cls-4{fill:#0050c4;}.cls-3{fill:#e1251b;}.cls-4{fill-rule:evenodd;}</style></defs><rect class="cls-1" width="235.07" height="90.67"/><rect class="cls-2" x="6.72" y="6.72" width="147.76" height="77.24"/><path class="cls-1" d="M23.22,67.93V22.74h11c8.14,0,13.11,4.45,13.11,11.55,0,5-2.45,8-6.39,9.3,4.84,1.55,7.94,5.3,7.94,11.49,0,7.69-5.81,12.85-13.82,12.85Zm9.43-26.86h1c2.71,0,4.52-1.67,4.52-5.81s-1.81-5.81-4.52-5.81h-1Zm0,20.15h1.74c3,0,5.1-2.33,5.1-7s-2.06-7-5.1-7H32.65Z" transform="translate(0 0)"/><path class="cls-1" d="M51.47,45.33C51.47,30.68,56.06,22,65.1,22c7.36,0,11.62,4.72,13,15.95l-9.23,2.65c-.32-8.91-1.74-11.24-3.74-11.24-2.52,0-3.94,4.85-3.94,16s1.42,16,3.94,16c2.06,0,3.29-3.17,3.74-10.85L78.07,53c-1.61,10.53-5.68,15.76-13,15.76C56.06,68.71,51.47,60,51.47,45.33Z" transform="translate(0 0)"/><path class="cls-1" d="M99.42,67.93l-1.35-7.75h-9.3l-1.35,7.75H78.7l8.52-45.19h12.4l8.52,45.19ZM89.93,53.47h7L94.45,39.14a62.25,62.25,0,0,1-.77-6.59h-.52a62.25,62.25,0,0,1-.77,6.59Z" transform="translate(0 0)"/><path class="cls-1" d="M130.84,67.93l-1.36-7.75h-9.29l-1.36,7.75h-8.71l8.52-45.19H131l8.53,45.19Zm-9.49-14.46h7l-2.45-14.33a64.65,64.65,0,0,1-.78-6.59h-.51a61.92,61.92,0,0,1-.78,6.59Z" transform="translate(0 0)"/><path class="cls-2" d="M194.78,24.31c18.54,0,33.57,9.42,33.57,21s-15,21-33.57,21-33.59-9.41-33.59-21,15.06-21,33.59-21Zm0,4.58c-16,0-29,7.37-29,16.44s13,16.45,29,16.45,29-7.36,29-16.45-13-16.44-29-16.44Z" transform="translate(0 0)"/><path class="cls-3" d="M210,39.1l-1.72,6.49h3.48L210,39.1Zm-.51,10.09h-2.18l-1,3.71h-4.95l6.16-18.53h5l6.22,18.53h-4.95l-1-3.71Z" transform="translate(0 0)"/><path class="cls-3" d="M171,44.88c0,2.07.72,9.69,8.57,9.62,7.66-.08,7.26-7,7.26-7H182s.26,3-2.65,3.06c-2.32,0-3.43-2.18-3.43-5.72v-.12c0-3.55,1-5.71,3.3-5.71a2.33,2.33,0,0,1,2.39,2.29h4.84s.33-6-6.8-6.19C171.82,35,171,42.75,171,44.82v.06Z" transform="translate(0 0)"/><path class="cls-3" d="M194,51.91h-3.74l-2.4,8.14-6.51-1.56,1.46-4.15c5-1.75,4.57-7.16,4.57-7.16h-1.91l5.81-16.95h7.06L203.49,45l-2.78,8.29,5.5,0,2,5.21-6.51,1.56-2.39-8.13Zm0-4.77h4l-3.14-10.69-3.15,10.68Z" transform="translate(0 0)"/><path class="cls-4" d="M224.41,62.85h.76V61.61h.35l.66,1.29.8-.11-.79-1.33a1,1,0,0,0,.56-.9c0-.52-.42-.82-1.1-.82h-1.24v3.11Zm.76-2.65h.32a.43.43,0,0,1,.48.45.49.49,0,0,1-.53.5h-.27V60.2Z" transform="translate(0 0)"/><path class="cls-4" d="M225.51,63.84a2.44,2.44,0,1,1,2.34-2.44,2.41,2.41,0,0,1-2.34,2.44Zm0,.47a2.91,2.91,0,1,0-2.86-2.91,2.88,2.88,0,0,0,2.86,2.91Z" transform="translate(0 0)"/></svg>