<svg xmlns="http://www.w3.org/2000/svg" xmlns:xlink="http://www.w3.org/1999/xlink" width="50" height="50" viewBox="0 0 50 50" version="1.1">
    <!-- Generator: Sketch 44 (41411) - http://www.bohemiancoding.com/sketch -->
    <title>Icon/Colour/RoofGuard-RainGuard</title>
    <desc>Created with Sketch.</desc>
    <defs>
        <rect id="path-1" x="0" y="0" width="46" height="46"/>
        <polygon id="path-3" points="0.309373098 0.433883871 0.309373098 18.6948452 24.6401559 18.6948452 56.8294583 18.6948452 56.8294583 0.433883871 22.8267205 0.433883871"/>
    </defs>
    <g id="Approved" stroke="none" stroke-width="1" fill="none" fill-rule="evenodd">
        <g id="Icon/Colour/RoofGuard-RainGuard">
            <g id="COLOUR---Home" transform="translate(0.000000, -1.000000)">
                <mask id="mask-2" fill="white">
                    <use xlink:href="#path-1"/>
                </mask>
                <g id="Mask"/>
                <g mask="url(#mask-2)">
                    <g transform="translate(11.503920, 3.220000)">
                        <g id="Shape-Copy" stroke-width="1" fill="none" transform="translate(7.396397, 27.748387)">
                            <mask id="mask-4" fill="white">
                                <use xlink:href="#path-3"/>
                            </mask>
                            <use id="Mask" fill="#F3F3F3" xlink:href="#path-3"/>
                            <polygon fill="#D8D8D8" mask="url(#mask-4)" points="0.309373098 0.357909677 56.8294583 31.5117806 56.8294583 0.357909677 22.8267205 0.357909677"/>
                        </g>
                        <rect id="Rectangle-path" fill="#C7171D" x="29.9296774" y="8.8817842e-16" width="9.04321363" height="8.38758065"/>
                        <polygon id="Shape" fill="#ED1C24" points="54.0462903 4.16558578 23.3984136 4.14 0 28.1572921 68.2156061 28.1572921"/>
                        <polygon id="Shape" fill="#1B9FD6" points="44.1839219 40.9038682 44.1839219 39.9718902 44.1839219 36.2441257 44.1839219 35.3121477 44.1839219 33.4482655 44.1839219 32.5163613 42.4109383 32.5163613 33.5463008 32.5163613 31.7733171 32.5163613 31.7733171 33.4483393 31.7733171 35.3122215 31.7733171 36.2441995 31.7733171 39.9719639 31.7733171 40.9039419 33.5463008 40.9039419 42.4109383 40.9039419"/>
                        <rect id="Rectangle-10" fill="#F4B92C" x="13.2341692" y="32.5163613" width="12.4106048" height="12.9875806"/>
                        <polygon id="Rectangle-5" fill="#FF4747" points="18.1942578 10.153339 48.4282737 10.12 48.4282737 11.7078689 16.56 11.9943521"/>
                        <polygon id="Rectangle-5-Copy" fill="#FF4747" points="7.61425781 21.16 41.784879 21.2206693 41.784879 22.8085382 5.98 23.001013"/>
                        <polygon id="Rectangle-5-Copy-2" fill="#FF4747" points="12.6742578 15.64 46.844879 15.7006693 46.844879 17.2885382 11.04 17.481013"/>
                    </g>
                </g>
                <path d="M31.1758446,8.62306591 C31.4793972,9.1488343 31.4876425,9.71221779 31.1942818,9.88158968 L23.5235229,14.3103044 C23.2302152,14.4796456 22.7463253,14.1907485 22.4428279,13.6650755 C22.1393304,13.1394025 22.13103,12.5759236 22.4243907,12.4065517 L30.0951497,7.97783699 C30.3885654,7.80856047 30.8723472,8.09739289 31.1758446,8.62306591 Z M18.325514,16.0422077 C18.6290666,16.5679761 18.6373119,17.1313596 18.3439512,17.3007315 L10.6731922,21.7294462 C10.3798846,21.8987875 9.89599473,21.6098903 9.59249727,21.0842173 C9.28899981,20.5585443 9.28069941,19.9950655 9.57406013,19.8256936 L17.2448191,15.3969788 C17.5382348,15.2277023 18.0220166,15.5165347 18.325514,16.0422077 Z M6.1395913,15.4804293 L1.55907768,18.1249901 C0.966673739,18.4670146 0.732406125,19.1705402 1.03590358,19.6962132 C1.33940104,20.2218862 2.06569862,20.3708292 2.65820981,20.0287427 L7.23872342,17.384182 C7.83112737,17.0421574 8.06539498,16.3386318 7.76189752,15.8129588 C7.45840006,15.2872858 6.73199524,15.1384047 6.1395913,15.4804293 Z M7.87635967,7.4972791 L3.29584605,10.1418399 C2.7034421,10.4838644 2.46917449,11.18739 2.77267195,11.713063 C3.07616941,12.238736 3.80246699,12.387679 4.39497817,12.0455926 L8.97549179,9.40103178 C9.56789573,9.0590072 9.80216335,8.35548164 9.49866589,7.82980862 C9.19516843,7.3041356 8.46876361,7.15525452 7.87635967,7.4972791 Z M-1.64240374,12.9929397 L-6.22291736,15.6375005 C-6.81532131,15.9795251 -7.04958892,16.6830506 -6.74609146,17.2087236 C-6.442594,17.7343967 -5.71629642,17.8833397 -5.12378524,17.5412532 L-0.54327162,14.8966924 C0.0491323236,14.5546678 0.283399937,13.8511423 -0.0200975212,13.3254692 C-0.32359498,12.7997962 -1.0499998,12.6509151 -1.64240374,12.9929397 Z M15.6583547,9.98476866 L11.0778411,12.6293294 C10.4854371,12.971354 10.2511695,13.6748796 10.554667,14.2005526 C10.8581645,14.7262256 11.584462,14.8751686 12.1769732,14.5330821 L16.7574868,11.8885213 C17.3498908,11.5464968 17.5841584,10.8429712 17.2806609,10.3172982 C16.9771635,9.79162517 16.2507587,9.64274409 15.6583547,9.98476866 Z M16.2122764,-2.81794881 L4.31973394,4.0932671 C3.6690434,4.45395076 3.38003977,5.17683516 3.67431674,5.70772488 C3.96859372,6.23861459 4.73466526,6.37666128 5.3854736,6.01591233 L17.2780161,-0.895303574 C17.9287066,-1.25598723 18.2177102,-1.97887164 17.9234333,-2.50976135 C17.6291563,-3.04065107 16.862967,-3.17863247 16.2122764,-2.81794881 Z M12.5341457,4.95208667 L12.3295966,5.07018312 C11.8277199,5.35994177 11.6667804,6.02113132 11.9702779,6.54680434 C12.2737753,7.07247736 12.9267612,7.26374691 13.4288196,6.97388334 L13.6334595,6.85573442 C14.1354271,6.56592331 14.2963666,5.90473376 13.9928691,5.37906074 C13.6893717,4.85338772 13.036295,4.66217063 12.5341457,4.95208667 Z M25.5672,17.0381967 L16.3533366,22.2795058 C15.9585372,22.5074434 15.8769003,23.1053143 16.1710337,23.6147683 C16.4651671,24.1242223 17.0236855,24.3524993 17.4185563,24.1245205 L26.6324197,18.8832113 C27.0272191,18.6552738 27.1088561,18.0574029 26.8147227,17.5479489 C26.5205893,17.0384949 25.9619994,16.8102592 25.5672,17.0381967 Z M30.7148649,20.9837311 L23.9991748,25.0707319 C23.6077565,25.3059198 23.5387337,25.9099383 23.8450438,26.4197239 C24.1513539,26.9295095 24.717004,27.152178 25.1084931,26.9169476 L31.8241832,22.8299468 C32.2156015,22.594759 32.2846244,21.9907405 31.9783143,21.4809548 C31.6720042,20.9711692 31.1062832,20.7485433 30.7148649,20.9837311 Z" id="Shape-Copy" fill="#1B9FD6" mask="url(#mask-2)" transform="translate(12.645327, 11.995889) rotate(-60.000000) translate(-12.645327, -11.995889) "/>
            </g>
        </g>
    </g>
</svg>