<svg xmlns="http://www.w3.org/2000/svg" xmlns:xlink="http://www.w3.org/1999/xlink" width="50" height="50" viewBox="0 0 50 50" version="1.1">
    <!-- Generator: Sketch 44 (41411) - http://www.bohemiancoding.com/sketch -->
    <title>Icon/Colour/BCBased</title>
    <desc>Created with Sketch.</desc>
    <defs/>
    <g id="Approved" stroke="none" stroke-width="1" fill="none" fill-rule="evenodd">
        <g id="Icon/Colour/BCBased">
            <g id="park">
                <path d="M3.1372549,15.5802862 L3.1372549,6.63049965 C3.1372549,4.34541288 5.00597365,2.49284579 7.3111924,2.49284579 L41.7459424,2.49284579 C44.0510674,2.49284579 45.9198799,4.34531995 45.9198799,6.63049965 L45.9198799,10.5814059 C45.6560585,10.4619609 45.3627533,10.395402 45.0537574,10.395402 L35.6624449,10.395402 C34.5097886,10.395402 33.5754761,11.3215926 33.5754761,12.4642289 C33.5754761,13.6068653 34.5097886,14.5330559 35.6624449,14.5330559 L41.9233511,14.5330559 C41.9233511,15.6756922 42.8576636,16.6018828 44.0103199,16.6018828 L45.9198799,16.6018828 L45.9198799,35.5682572 C45.9198799,37.8533439 44.0511612,39.7058181 41.7459424,39.7058181 L7.3111924,39.7058181 C5.0060674,39.7058181 3.1372549,37.853251 3.1372549,35.5681642 L3.1372549,19.71794 L8.42968382,19.71794 C9.58234007,19.71794 10.5166526,18.7917494 10.5166526,17.6491131 C10.5166526,16.5064768 9.58234007,15.5802862 8.42968382,15.5802862 L3.1372549,15.5802862 Z" id="Combined-Shape" fill="#0379D5"/>
                <path d="M41.7459424,39.6190386 L7.3111924,39.6190386 C5.0060674,39.6190386 3.1372549,37.7664715 3.1372549,35.4813848 L3.1372549,25.2400636 L45.9198799,25.2400636 L45.9198799,35.4814777 C45.9198799,37.7665645 44.0511612,39.6190386 41.7459424,39.6190386 Z" id="Shape-Copy-4" fill="#4DC7FA"/>
                <g id="mountain-copy" transform="translate(24.156863, 20.565978)" fill-rule="nonzero">
                    <g id="Layer_1">
                        <g id="Group">
                            <polygon id="Shape" fill="#139304" points="9.84478526 0.687331912 11.4014098 0.478088802 21.3403623 19.9089066 0 19.9089066"/>
                            <polygon id="Shape" fill="#47A60E" transform="translate(5.403486, 9.986254) rotate(-180.000000) translate(-5.403486, -9.986254) " points="4.73130356e-14 -1.33319483e-14 0.184657689 19.9725087 1.61528425 17.9251454 10.806971 -1.33319483e-14"/>
                            <polygon id="Shape" fill="#EFEFEF" points="6.66888228 6.84366665 8.66956982 8.71015997 10.6702574 6.84366665 12.6709449 8.71015997 14.6716325 6.84366665 11.337077 0 10.0032853 0"/>
                        </g>
                    </g>
                </g>
                <g id="mountain" transform="translate(2.823529, 10.006378)" fill-rule="nonzero">
                    <g id="Layer_1">
                        <g id="Group">
                            <polygon id="Shape" fill="#139304" points="14.6937093 1.24712032 17.0170296 0.93481717 31.851287 29.9360378 0 29.9360378"/>
                            <polygon id="Shape" fill="#56C116" transform="translate(8.064904, 15.181468) rotate(-180.000000) translate(-8.064904, -15.181468) " points="0 0.276610909 0.275608492 30.0863254 2.41087201 27.0305592 16.1298075 0.276610909"/>
                            <polygon id="Shape" fill="#EFEFEF" points="10.0392157 10.5260336 13.0253165 13.3118445 16.0114173 10.5260336 18.9975181 13.3118445 21.9836189 10.5260336 17.0066705 0.311605723 15.0159366 0.311605723"/>
                        </g>
                    </g>
                </g>
                <path d="M36.5490196,4.13765386 L36.5490196,4.13765386 C36.5490196,5.28029018 35.6147071,6.2064808 34.4620509,6.2064808 L22.9838634,6.2064808 C21.8312071,6.2064808 20.8968946,5.28029018 20.8968946,4.13765386 L14.6359884,4.13765386 C13.4833321,4.13765386 12.5490196,3.21146325 12.5490196,2.06882693 L12.5490196,2.06882693 C12.5490196,0.926190612 13.4833321,0 14.6359884,0 L24.0273009,0 C25.1799571,0 26.1142696,0.926190612 26.1142696,2.06882693 L26.1142696,2.06882693 L34.4620509,2.06882693 C35.6147071,2.06882693 36.5490196,2.99501754 36.5490196,4.13765386 Z" id="Shape" fill="#EFEFEF"/>
                <path d="M48,40.6083403 C48,41.1795725 47.6495625,41.6427538 47.217375,41.6427538 L0.782625,41.6427538 C0.3504375,41.6427538 0,41.1795725 0,40.6083403 C0,40.0371082 0.3504375,39.5739269 0.782625,39.5739269 L47.217375,39.5739269 C47.6495625,39.5739269 48,40.0371082 48,40.6083403 Z" id="Shape" fill="#139304"/>
                <g id="Tree" transform="translate(0.000000, 23.993641)">
                    <rect id="Rectangle-Copy-8" fill="#8B572A" x="5.19384092" y="13.015625" width="1.99763112" height="2.87626689"/>
                    <polygon id="Shape-Copy-98" fill="#AAC36D" points="9.54489999 9.07963353 10.7418587 9.07963353 8.27141951 5.20641174 9.2258346 4.82609804 6.19374425 0.0724239865 4.79431469 7.81669999 6.19374425 13.333169 12.257925 13.333169"/>
                    <polygon id="Shape-Copy-97" fill="#CAED73" points="6.06413857 13.333169 1.47854404e-15 13.333169 2.71298283 9.07963353 1.51602411 9.07963353 4.22904907 4.82609804 3.03204821 4.82609804 6.06413857 0.0724239865"/>
                </g>
            </g>
        </g>
    </g>
</svg>