<svg xmlns="http://www.w3.org/2000/svg" xmlns:xlink="http://www.w3.org/1999/xlink" width="50" height="50" viewBox="0 0 50 50" version="1.1">
    <!-- Generator: Sketch 44 (41411) - http://www.bohemiancoding.com/sketch -->
    <title>Icon/Colour/BestInsurance</title>
    <desc>Created with Sketch.</desc>
    <defs/>
    <g id="Approved" stroke="none" stroke-width="1" fill="none" fill-rule="evenodd">
        <g id="Icon/Colour/BestInsurance">
            <g id="trophy">
                <polygon id="Shape" fill="#1B9FD6" points="29.5568725 41.1090637 20.3984064 41.1090637 21.9594622 37.7786853 23.3124502 34.6564741 26.6428287 34.6564741 27.9958167 37.7786853"/>
                <path d="M35.3849602,41.1090637 L14.5702191,41.1090637 C13.4253984,41.1090637 12.488745,42.0457171 12.488745,43.1905378 L12.488745,49.9552789 L37.3623506,49.9552789 L37.3623506,43.1905378 C37.4664343,42.0457171 36.5297809,41.1090637 35.3849602,41.1090637 Z" id="Shape" fill="#FFCC33"/>
                <path d="M27.9958167,37.7786853 C27.163247,38.1950199 26.3306773,38.611255 25.498008,38.923506 L24.9776892,39.0275896 L24.4572709,38.8194223 C23.6247012,38.5071713 22.7921315,38.0909363 21.9594622,37.6746016 L23.3124502,34.5523904 L26.538745,34.5523904 L27.9958167,37.7786853 Z" id="Shape" fill="#0379D5"/>
                <g id="Group" fill="#F4B92C">
                    <path d="M0,5.72400398 L0,9.99103586 C0,20.3984064 6.45258964,29.3487052 15.5069721,33.0954183 C18.4210159,34.3443227 21.6473108,34.9687251 24.9776892,34.9687251 C28.3080677,34.9687251 31.5343625,34.3443227 34.4484064,33.0954183 C43.5027888,29.3488048 49.9553785,20.3984064 49.9553785,9.99113546 L49.9553785,5.72400398 L0,5.72400398 Z M45.7923307,9.99103586 C45.7923307,14.9865538 44.0231076,19.5658367 41.0049801,23.2083665 C37.1542829,27.7875498 31.4301793,30.8057769 24.9776892,30.8057769 C18.5251992,30.8057769 12.8010956,27.8917331 8.95039841,23.2083665 C6.03635458,19.6698207 4.16304781,14.9865538 4.16304781,9.99103586 L4.16304781,9.88695219 L45.688247,9.88695219 L45.688247,9.99103586 L45.7923307,9.99103586 Z" id="Shape"/>
                    <path d="M41.2131474,0 L8.74213147,0 C8.01364542,0 7.49322709,0.62440239 7.49322709,1.24890438 C7.49322709,1.97739044 8.01354582,2.60189243 8.74213147,2.60189243 L41.2131474,2.60189243 C41.9416335,2.60189243 42.4620518,1.97749004 42.4620518,1.35298805 C42.4619522,0.62440239 41.9416335,0 41.2131474,0 Z" id="Shape"/>
                </g>
                <path d="M41.2131474,2.60179283 L41.2131474,13.8417331 C41.2131474,24.2491036 34.7605578,33.7198207 24.9776892,37.4664343 C15.1948207,33.6157371 8.74223108,24.2491036 8.74223108,13.7376494 L8.74223108,2.60179283 L41.2131474,2.60179283 Z" id="Shape" fill="#FFCC33"/>
                <polygon id="Shape" fill="#FFFFFF" transform="translate(24.977639, 16.027341) rotate(-360.000000) translate(-24.977639, -16.027341) " points="24.9776892 7.28515936 27.1631474 13.9458167 34.1361554 13.9458167 28.5161355 18.1087649 30.5976096 24.7695219 24.9776892 20.6065737 19.3576693 24.7695219 21.4391434 18.1087649 15.8191235 13.9458167 22.7921315 13.9458167"/>
                <rect id="Rectangle-path" fill="#FFC952" x="8.74213147" y="2.60179283" width="32.3668327" height="1.56105578"/>
            </g>
        </g>
    </g>
</svg>