<svg xmlns="http://www.w3.org/2000/svg" xmlns:xlink="http://www.w3.org/1999/xlink" width="50" height="50" viewBox="0 0 50 50" version="1.1">
    <!-- Generator: Sketch 44 (41411) - http://www.bohemiancoding.com/sketch -->
    <title>Icon/Colour/BylawUpgrades</title>
    <desc>Created with Sketch.</desc>
    <defs/>
    <g id="Approved" stroke="none" stroke-width="1" fill="none" fill-rule="evenodd">
        <g id="Icon/Colour/BylawUpgrades" fill-rule="nonzero">
            <g id="tools-copy">
                <g id="Layer_1">
                    <path d="M21.9970783,27.1092003 L27.7274755,21.3593432 L6.42139069,0.90744093 C5.51992015,0.0142203436 3.60909438,-0.204721492 2.70762384,0.688499094 L0.679251293,2.69830865 C-0.22221925,3.59152924 -0.22221925,5.50495491 0.679251293,6.3981755 L21.9970783,27.1092003 Z" id="Shape" fill="#FF4747"/>
                    <polygon id="Shape" fill="#5A5A5A" points="39.4904084 41.4549194 42.9554319 41.8880882 42.4501365 38.3508563 39.2738649 36.1851757 37.2526012 38.2786478"/>
                    <polygon id="Shape" fill="#D8D8D8" points="24.1141825 25.0681025 37.3247278 38.2786478 39.3459915 36.2573841 26.1354462 23.0468388"/>
                    <path d="M16.0044207,16.9155505 L3.23346038,4.26146576 C2.9329702,3.96372557 2.9329702,3.51707311 3.23346038,3.21933292 C3.53395056,2.92159272 3.98472838,2.92159272 4.28521856,3.21933292 L17.0561789,15.8734177 C17.3566691,16.1711579 17.3566691,16.6178104 17.0561789,16.9155505 C16.9058913,17.0643785 16.7556036,17.1388346 16.5302573,17.1388346 C16.3049109,17.1388346 16.1546233,17.0643785 16.0044207,16.9155505 Z" id="Shape" fill="#C7171D"/>
                    <path d="M24.1141825,12.0741007 C25.7744858,10.4137974 25.9911111,7.81494794 24.2585993,6.08243617 C20.8657025,2.6895393 18.9166472,3.05049969 15.0906632,3.05049969 C20.8657025,0.523940474 25.0526468,-0.0535634479 29.2395911,1.89549185 C31.0443113,2.6895393 31.7662321,3.41146009 33.2099919,4.85521989 L35.8087596,7.45398754 C36.4584719,8.1036999 36.891559,8.96995578 37.0359758,9.83621167 C37.2525194,11.207763 36.891559,11.496515 37.8300233,12.5071878 C38.1187753,12.7959397 38.5519441,12.7959397 38.840696,12.5071878 C39.129448,12.2184358 39.5626168,12.2184358 39.8513688,12.5071878 L42.3780098,15.0338287 C42.9555137,15.6113327 42.9555137,16.4775886 42.3780098,17.0550925 L37.2526012,22.1805011 C36.6750972,22.758005 35.8088413,22.758005 35.2313374,22.1805011 L32.8491133,19.7260686 C32.5603613,19.4373166 32.5603613,19.0041478 32.8491133,18.7153958 C33.1378653,18.4266438 33.1378653,17.9213484 32.8491133,17.6325964 C31.8384405,16.6219236 31.5496886,16.982884 30.1781372,16.8385489 C29.2396729,16.6941321 28.4456254,16.261045 27.7959131,15.6113327 L24.1141825,12.0741007" id="Shape" fill="#5A5A5A"/>
                    <path d="M24.1141825,12.0741007 L1.73570104,37.12364 C0.869445158,37.9898959 0.797236723,39.4336557 1.66349261,40.2277849 L2.67416536,41.2384577 C3.54042124,42.1047135 4.91205439,42.0325051 5.77831027,41.1662492 L28.2290001,16.0445833 L24.1141825,12.0741007 Z" id="Shape" fill="#333333"/>
                </g>
            </g>
        </g>
    </g>
</svg>