<svg xmlns:xlink="http://www.w3.org/1999/xlink" xmlns="http://www.w3.org/2000/svg" width="68" height="68" viewBox="0 0 68 68"><title>Group</title><g fill="none" fill-rule="evenodd"><circle fill="#0379D5" cx="34" cy="34" r="34"/><path d="M49.256 27.833c0 .468-.186.917-.517 1.249l-9.357 9.356a2.17 2.17 0 0 1-.915.546l-2.499.745a.298.298 0 0 1-.298-.075.3.3 0 0 1-.076-.298l.746-2.5c.104-.346.29-.66.546-.915l9.356-9.357a1.766 1.766 0 0 1 3.014 1.25zM34.06 40.191h-5.555a.633.633 0 0 1 0-1.264h5.465a1.96 1.96 0 0 0 .09 1.264zm.664-3.818c.085-.286.208-.56.357-.82h-6.575a.633.633 0 0 0 0 1.265h6.085l.133-.445zm3.538-4.192h-9.757a.633.633 0 0 0 0 1.265h8.491l1.266-1.265zm1.522-2.741a.633.633 0 0 0-.633-.632H28.505a.633.633 0 0 0 0 1.264h10.646a.633.633 0 0 0 .633-.632zm-.633-4.005H28.505a.633.633 0 0 0 0 1.265h10.646a.632.632 0 1 0 0-1.265zm2.44 19.803H26.065V23.45h15.526v5.4l1.655-1.654v-4.574a.827.827 0 0 0-.827-.827H25.238a.828.828 0 0 0-.828.827v23.444c0 .457.371.828.828.828h17.18c.458 0 .828-.37.828-.828V36.96l-1.655 1.655v6.624z" fill="#FFF"/></g></svg>