<svg xmlns="http://www.w3.org/2000/svg" xmlns:xlink="http://www.w3.org/1999/xlink" width="50" height="50" viewBox="0 0 50 50" version="1.1">
    <!-- Generator: Sketch 44 (41411) - http://www.bohemiancoding.com/sketch -->
    <title>Icon/Colour/CrimeVandalism</title>
    <desc>Created with Sketch.</desc>
    <defs/>
    <g id="Approved" stroke="none" stroke-width="1" fill="none" fill-rule="evenodd">
        <g id="Icon/Colour/CrimeVandalism">
            <g id="Vandalism" transform="translate(0.000000, -1.000000)">
                <g id="winter-hat" transform="translate(0.000000, 30.011111)">
                    <path d="M36.1558486,7.81907187 C36.1558486,7.81907187 30.0803398,10.9357533 25.4832049,10.9357533 C20.88607,10.9357533 20.7240564,8.97440724 18.1925944,8.97440724 C15.6611325,8.97440724 15.3978604,10.9357533 11.0639975,10.9357533 C6.73013466,10.9357533 0.229340328,7.81907187 0.229340328,7.81907187 L0.229340328,0.20643728 L21.647168,0.20643728 L36.1761003,0.20643728 L36.1558486,7.81907187 Z" id="Shape-Copy" fill="#00539B" fill-rule="nonzero"/>
                    <path d="M26.7354248,6.57191858 C25.1323042,6.57191858 23.6914996,5.91312229 22.6960653,4.86535523 C23.6914996,3.81758816 25.1323666,3.15879188 26.7354248,3.15879188 C28.3385454,3.15879188 29.77935,3.81758816 30.7747843,4.86535523 C29.77935,5.91312229 28.3385454,6.57191858 26.7354248,6.57191858 Z M9.96027016,6.57191858 C8.35714955,6.57191858 6.91634498,5.91312229 5.92091065,4.86535523 C6.91634498,3.81758816 8.35714955,3.15879188 9.96027016,3.15879188 C11.5633908,3.15879188 13.0041953,3.81758816 13.9996297,4.86535523 C13.0041953,5.91312229 11.5633908,6.57191858 9.96027016,6.57191858 Z" id="Combined-Shape" fill="#FFFFFF"/>
                </g>
                <g id="winter-hat-(1)" transform="translate(0.822222, 0.000000)">
                    <path d="M18.1360781,3.76951152 C16.7859185,3.76951152 15.6875067,2.92399246 15.6875067,1.88475576 C15.6875067,0.84551906 16.7859185,0 18.1360781,0 C19.4862377,0 20.5846495,0.84551906 20.5846495,1.88475576 C20.5846495,2.92399246 19.4862377,3.76951152 18.1360781,3.76951152 Z" id="Shape" fill="#5A5A5A"/>
                    <path d="M18.1090505,0 L18.1090505,3.76951152 C19.4592102,3.76951152 20.5576219,2.92399246 20.5576219,1.88475576 C20.5576219,0.84551906 19.4592102,0 18.1090505,0 Z" id="Shape" fill="#333333"/>
                    <path d="M23.3181038,2.48843634 C20.3549153,1.75192503 15.8391266,1.75786885 12.8999973,2.48843634 C6.66569366,4.03898993 2.10631721,8.87510509 2.10631721,14.5839169 L2.10631721,21.437143 C2.10631721,22.1125179 2.76083707,22.6606558 3.56955459,22.6606558 L32.6484684,22.6606558 C33.4571078,22.6606558 34.1117057,22.1125179 34.1117057,21.437143 L34.1117057,14.5838516 C34.1117057,8.87503977 29.5523293,4.03898993 23.3181038,2.48843634 Z" id="Shape" fill="#00539B"/>
                    <g id="Group" transform="translate(17.876078, 1.894185)" fill="#073B70">
                        <path d="M5.44202533,0.594251506 C3.96277451,0.22651838 2.09670159,0.0438928349 0.232972099,0.044088785 L0.232972099,20.7664056 L14.772468,20.7664056 C15.5811074,20.7664056 16.2357054,20.2182677 16.2357054,19.5428928 L16.2357054,12.6896668 C16.2356273,6.98085493 11.6762509,2.14480509 5.44202533,0.594251506 Z" id="Shape"/>
                    </g>
                    <path d="M34.335204,25.8696277 L1.36675388,25.8696277 C0.611945591,25.8696277 0,25.3218164 0,24.646115 L0,17.3913217 C0,16.7156202 0.611945591,16.1678089 1.36675388,16.1678089 L34.335277,16.1678089 C35.0900853,16.1678089 35.7020309,16.7156202 35.7020309,17.3913217 L35.7020309,24.6461803 C35.7019579,25.3218164 35.0900123,25.8696277 34.335204,25.8696277 Z" id="Shape" fill="#00539B"/>
                    <g id="Group" transform="translate(13.279373, 16.167809)">
                        <path d="M21.080931,0 L4.59670588,0 L4.59670588,9.7018188 L21.080931,9.7018188 C21.8357392,9.7018188 22.4476848,9.15400748 22.4476848,8.47830602 L22.4476848,1.22351277 C22.4476848,0.547811319 21.8357392,0 21.080931,0 Z" id="Shape" fill="#073B70"/>
                        <path d="M7.78171231,6.03944507 L1.36675388,6.03944507 C0.611945591,6.03944507 0,5.49163375 0,4.81593229 C0,4.14023084 0.611945591,3.59241952 1.36675388,3.59241952 L7.78163935,3.59241952 C8.53644764,3.59241952 9.14839323,4.14023084 9.14839323,4.81593229 C9.14839323,5.49163375 8.53644764,6.03944507 7.78171231,6.03944507 Z" id="Shape" fill="#5A5A5A"/>
                    </g>
                    <path d="M21.0835576,19.7602285 L17.8760784,19.7602285 L17.8760784,22.2071887 L21.0835576,22.2071887 C21.8383659,22.2071887 22.4503115,21.6593774 22.4503115,20.9836759 C22.4502386,20.3080398 21.838293,19.7602285 21.0835576,19.7602285 Z" id="Shape" fill="#333333"/>
                </g>
            </g>
        </g>
    </g>
</svg>