<svg xmlns="http://www.w3.org/2000/svg" xmlns:xlink="http://www.w3.org/1999/xlink" width="50" height="50" viewBox="0 0 50 50" version="1.1">
    <!-- Generator: Sketch 44 (41411) - http://www.bohemiancoding.com/sketch -->
    <title>Icon/Colour/PersonalLiability</title>
    <desc>Created with Sketch.</desc>
    <defs>
        <rect id="path-1" x="0" y="0" width="50" height="46.7446809"/>
        <rect id="path-3" x="4.7964235" y="5.3759759" width="49.1169209" height="49.2164486"/>
    </defs>
    <g id="Approved" stroke="none" stroke-width="1" fill="none" fill-rule="evenodd">
        <g id="Icon/Colour/PersonalLiability">
            <g id="Group-10">
                <mask id="mask-2" fill="white">
                    <use xlink:href="#path-1"/>
                </mask>
                <g id="Mask"/>
                <g mask="url(#mask-2)">
                    <g transform="translate(24.376915, 23.479645) rotate(13.000000) translate(-24.376915, -23.479645) translate(-5.123085, -6.520355)">
                        <mask id="mask-4" fill="white">
                            <use xlink:href="#path-3"/>
                        </mask>
                        <g id="Mask" stroke="none" fill="none" transform="translate(29.354884, 29.984200) rotate(-12.000000) translate(-29.354884, -29.984200) "/>
                        <ellipse id="Oval-2" stroke="none" fill="#4DC7FA" fill-rule="evenodd" mask="url(#mask-4)" transform="translate(29.417707, 47.959227) rotate(-13.000000) translate(-29.417707, -47.959227) " cx="29.4177073" cy="47.9592267" rx="15.722108" ry="1.4430799"/>
                        <ellipse id="Oval-2-Copy" stroke="none" fill="#4DC7FA" fill-rule="evenodd" mask="url(#mask-4)" transform="translate(37.753489, 47.522301) rotate(-13.000000) translate(-37.753489, -47.522301) " cx="37.7534893" cy="47.522301" rx="9.6101807" ry="1.49501557"/>
                        <g id="Group-10" stroke="none" stroke-width="1" fill="none" fill-rule="evenodd" mask="url(#mask-4)">
                            <g transform="translate(25.916598, 23.586181) rotate(-11.000000) translate(-25.916598, -23.586181) translate(-5.466381, -8.860627)">
                                <g id="Group-4" transform="translate(39.839645, 28.156494) rotate(-109.000000) translate(-39.839645, -28.156494) translate(23.882198, 10.071388)">
                                    <path d="M29.5820781,10.9631284 L30.9118383,8.73454835 C28.7425254,5.03038507 25.5704059,1.99417683 21.7691794,1.77635684e-13 L22.4247817,6.59262482 L5.0996281,17.6790998 L6.67462584,23.2223372 L25.0160566,15.0251312 C26.9172051,14.1754306 28.5116506,12.7569905 29.5820781,10.9631284 Z" id="Shape" fill="#FFD7AF" fill-rule="nonzero"/>
                                    <path d="M11.6817054,34.4140433 L12.1790496,33.9946652 C12.6585519,33.590268 12.8133308,32.9152261 12.5583694,32.3404762 L11.1650027,29.1998495 C10.6965624,28.1440033 10.3828118,27.0254522 10.2336531,25.8790921 L9.71400643,21.8866119 L6.28326794,19.9322648 L5.89984453,17.3994 C5.81795,16.8583798 5.22952264,16.5604643 4.74850379,16.8165765 L0.927205108,18.8510316 L6.64198026,29.7070504 L11.6817054,34.4140433 Z" id="Shape" fill="#FF5050" fill-rule="nonzero"/>
                                    <path d="M10.6868282,27.235933 C10.5630943,26.757169 10.4626441,26.2721257 10.3985915,25.7803543 L10.3685278,25.5498084 L9.27205108,25.7441129 L9.56822738,27.4340947 L10.6868282,27.235933 Z" id="Shape" fill="#FFD7AF" fill-rule="nonzero"/>
                                    <polygon id="Shape" fill="#FFD7AF" fill-rule="nonzero" points="10.0237526 24.4692239 9.80170964 22.7625566 8.80844853 22.8127026 8.89382224 24.526367"/>
                                    <path d="M0.927205108,19.0016505 L6.64198026,29.8576693 L7.84720368,30.9832175 C7.74247146,30.5644673 7.5824292,30.0368133 7.35387388,29.375945 C5.53185441,24.1090935 4.64600181,19.1832166 4.33350014,17.188053 L0.927205108,19.0016505 Z" id="Shape" fill="#C8373C" fill-rule="nonzero"/>
                                    <polygon id="Shape" fill="#00539B" fill-rule="nonzero" points="10.2013108 35.6488902 5.71468594 30.2407508 -2.98427949e-13 19.3846423 1.50826886 18.5816789 7.18066939 29.3575 11.5086793 34.5463069"/>
                                </g>
                                <g id="Group-4-Copy" transform="translate(24.347452, 41.447151) rotate(-61.000000) translate(-24.347452, -41.447151) translate(8.390005, 22.830130)">
                                    <path d="M29.5820781,12.3886986 L30.9118383,10.1601185 C28.7425254,6.45595521 30.2281526,1.99417683 26.4269261,-6.39488462e-14 L22.6568578,8.98144559 L5.0996281,19.1046699 L6.67462584,24.6479074 L25.0160566,16.4507013 C26.9172051,15.6010008 28.5116506,14.1825606 29.5820781,12.3886986 Z" id="Shape" fill="#FFD7AF" fill-rule="nonzero"/>
                                    <path d="M11.2181028,35.8076692 L11.7154471,35.3882911 C12.1949494,34.9838939 12.3497282,34.308852 12.0947668,33.7341021 L10.7014001,30.5934754 C10.2329598,29.5376292 9.91920921,28.4190781 9.77005054,27.272718 L9.25040388,23.2802378 L5.81966539,21.3258907 L5.43624198,18.793026 C5.35434745,18.2520057 4.76592009,17.9540902 4.28490123,18.2102024 L0.463602554,20.2446575 L6.1783777,31.1006763 L11.2181028,35.8076692 Z" id="Shape" fill="#FF5050" fill-rule="nonzero"/>
                                    <path d="M10.2232256,28.6295589 C10.0994917,28.150795 9.99904155,27.6657516 9.93498897,27.1739802 L9.90492529,26.9434344 L8.80844853,27.1377388 L9.10462483,28.8277207 L10.2232256,28.6295589 Z" id="Shape" fill="#FFD7AF" fill-rule="nonzero"/>
                                    <polygon id="Shape" fill="#FFD7AF" fill-rule="nonzero" points="10.0237526 25.8628498 9.80170964 24.1561825 8.80844853 24.2063285 8.89382224 25.9199929"/>
                                    <path d="M0.463602554,20.3952764 L6.1783777,31.2512952 L7.38360112,32.3768434 C7.2788689,31.9580932 7.11882665,31.4304392 6.89027133,30.769571 C5.06825185,25.5027194 4.18239926,20.5768425 3.86989758,18.5816789 L0.463602554,20.3952764 Z" id="Shape" fill="#C8373C" fill-rule="nonzero"/>
                                    <polygon id="Shape" fill="#00539B" fill-rule="nonzero" points="10.2013108 37.0425161 5.71468594 31.6343767 9.9475983e-14 20.7782682 1.50826886 19.9753048 7.18066939 30.7511259 11.5086793 35.9399328"/>
                                </g>
                                <g id="Group-7" transform="translate(3.644937, 0.253834)">
                                    <path d="M0.927205108,20.085024 L8.48023352,23.0456628 L15.021779,30.8264267 L15.8996816,47.9914851 L21.6851405,47.8494159 C23.9489652,36.1845399 24.7764164,29.3874194 24.167494,27.4580545 C22.8575271,23.2325175 20.4645043,15.7831532 16.9884256,5.10996169 L0.927205108,20.085024 Z" id="Fill-29-Copy" fill="#073B70"/>
                                    <path d="M1.25188744,17.4405774 C4.2749846,18.2235523 11.2296032,20.6342408 22.1157432,24.6726427 L36.8125818,36.2019566 L41.080931,31.7711254 C36.9637102,26.6735995 34.2831914,23.4060009 33.0393746,21.9683295 C31.3896539,20.0614924 29.2914076,17.1378219 26.8108557,15.6597096 C22.7527377,13.2415564 16.3660503,8.02165325 7.65079366,6.00408612e-13 C0.487048888,9.14107137 -1.64591985,14.9545972 1.25188744,17.4405774 Z" id="Fill-25-Copy" fill="#005AA8"/>
                                </g>
                            </g>
                        </g>
                        <ellipse id="Oval-3" stroke="none" fill="#4DC7FA" fill-rule="evenodd" mask="url(#mask-4)" transform="translate(21.560313, 54.093259) rotate(-12.000000) translate(-21.560313, -54.093259) " cx="21.560313" cy="54.0932585" rx="4.35039364" ry="1"/>
                        <rect id="Rectangle-16" stroke="none" fill="#005AA8" fill-rule="evenodd" mask="url(#mask-4)" transform="translate(48.197807, 34.125972) rotate(326.000000) translate(-48.197807, -34.125972) " x="41.6063014" y="33.0691936" width="13.183011" height="2.11355589" rx="1.05677795"/>
                        <path d="M44.2025121,39.008157 L50.649524,39.0759186 L50.649524,39.0759186 C51.234922,39.0820714 51.7062436,39.5583728 51.7062436,40.1438032 L51.7062436,40.1438032 L51.7062436,40.1438032 C51.7062436,40.7213434 51.2380547,41.1895322 50.6605145,41.1895322 C50.6568509,41.1895322 50.6531874,41.189513 50.649524,41.1894745 L44.2025121,41.1217129 L44.2025121,41.1217129 C43.6171141,41.1155601 43.1457926,40.6392587 43.1457926,40.0538283 L43.1457926,40.0538283 L43.1457926,40.0538283 C43.1457926,39.4762881 43.6139814,39.0080993 44.1915216,39.0080993 C44.1951852,39.0080993 44.1988487,39.0081185 44.2025121,39.008157 Z" id="Rectangle-16-Copy" stroke="none" fill="#005AA8" fill-rule="evenodd" mask="url(#mask-4)" transform="translate(47.426018, 40.098816) rotate(354.000000) translate(-47.426018, -40.098816) "/>
                        <path d="M48.0239093,28.6645401 C48.5030809,28.6645401 49.2103803,27.5326649 49.2103803,26.8760673 C49.2103803,26.2194697 48.6791792,25.6871921 48.0239093,25.6871921 C47.3686395,25.6871921 46.8374383,26.2194697 46.8374383,26.8760673 C46.8374383,27.5326649 47.5447378,28.6645401 48.0239093,28.6645401 Z" id="Oval-7" stroke="none" fill="#4DC7FA" fill-rule="evenodd" mask="url(#mask-4)" transform="translate(48.023909, 27.175866) rotate(52.000000) translate(-48.023909, -27.175866) "/>
                    </g>
                </g>
            </g>
        </g>
    </g>
</svg>