<?xml version="1.0" encoding="UTF-8" standalone="no"?>
<svg width="50px" height="50px" viewBox="0 0 50 50" version="1.1" xmlns="http://www.w3.org/2000/svg" xmlns:xlink="http://www.w3.org/1999/xlink">
    <!-- Generator: Sketch 44 (41411) - http://www.bohemiancoding.com/sketch -->
    <title>Icon/Colour/EvoCarShare</title>
    <desc>Created with Sketch.</desc>
    <defs>
        <path d="M17.5332224,0.0412457912 C14.8734984,0.0461560045 12.3077922,0.327674897 9.89055195,0.72802095 C6.61385552,1.27141788 2.99116071,1.9166199 2.88226461,2.21548822 C2.78666396,2.47703891 3.3187987,2.99523008 3.75849838,3.57430789 C3.65941558,3.7333988 2.07029221,5.96296296 1.68219156,6.81144781 C1.03609578,8.2157688 1.41438312,10.4014684 1.43242695,10.5022914 C1.38146104,10.5579405 0.641030844,11.3157501 0.277621753,12.0637392 C0.139918831,12.3468949 0.0807224026,12.7999439 0.0791396104,13.369856 L0.0791396104,13.4199401 C0.0816720779,14.2828283 0.211144481,15.4039936 0.396331169,16.6047045 C0.397280844,16.6112514 2.53246753,17.0197811 2.53246753,17.0197811 L11.7155114,17.8921624 C11.7155114,17.9003461 33.2449675,17.8973999 33.2449675,17.8973999 L34.4051542,17.8973999 L35.4605601,17.8964179 L44.7265422,17.8931444 L47.474586,17.8921624 C47.474586,17.898382 48.0342614,16.0573793 47.9120698,13.816358 C47.8566721,12.8133651 47.5524594,10.7929761 45.4527273,9.44430415 C43.6458117,8.28352974 36.9613636,6.60194538 36.9613636,6.60194538 C36.9613636,6.60194538 30.0059416,2.00074822 25.1524675,0.87369061 C22.6095536,0.282828283 20.1017776,0.0458286569 17.6709253,0.0412457912 L17.5332224,0.0412457912 Z" id="path-1"></path>
        <path d="M0.142767857,5.96950991 C7.06780032,6.42026749 14.8408929,5.21464646 14.7611201,5.16456229 C13.0770292,4.10984848 9.67560877,2.30452675 6.82341721,0.959455668 C5.01871753,0.108679386 1.70783279,0.13093902 0.142767857,0.0448466143 C0.142767857,0.0448466143 0.134537338,5.96950991 0.142767857,5.96950991 Z" id="path-3"></path>
        <path d="M1.19310877,0.00687429854 C0.685349026,0.00687429854 0.290917208,2.21679761 0.290917208,2.75004676 L0.973100649,6.19308829 L15.4414042,8.07009914 L47.7309984,8.07009914 L47.932013,4.60872615 C47.932013,2.67835765 47.812987,0.00687429854 34.9483685,0.00687429854 L1.19310877,0.00687429854 Z" id="path-5"></path>
        <path d="M0.294082792,1.0815563 C0.18487013,1.60203891 0.496996753,2.11728395 0.992410714,2.23283764 L9.2625,4.16320614 C9.3280276,4.17891882 9.39450487,4.18612046 9.46193182,4.18612046 L47.4467289,4.18612046 C47.9544886,4.18612046 48.3653815,3.7540217 48.3653815,3.22142724 C48.3653815,2.68850542 47.9551218,2.25575196 47.4470455,2.25575196 L9.5625974,2.25575196 L1.39064123,0.348952488 C1.32511364,0.333567153 1.25926948,0.326365507 1.19405844,0.326365507 C0.774301948,0.326365507 0.39,0.630144033 0.294082792,1.0815563 Z" id="path-7"></path>
        <path d="M0.300413961,4.68499813 C0.300413961,7.12799289 2.1861526,9.10844557 4.51254058,9.10844557 C6.83861201,9.10844557 8.72435065,7.12799289 8.72435065,4.68499813 C8.72435065,2.24200337 6.83861201,0.261223345 4.51254058,0.261223345 C2.1861526,0.261223345 0.300413961,2.24200337 0.300413961,4.68499813 Z" id="path-9"></path>
        <path d="M0.284269481,5.41269173 C0.284269481,2.4852226 2.55146104,0.104423868 5.338125,0.104423868 C8.12510552,0.104423868 10.3922971,2.48554994 10.3922971,5.41269173 C10.3922971,8.33950617 8.12542208,10.7206322 5.338125,10.7206322 C2.55146104,10.7206322 0.284269481,8.33950617 0.284269481,5.41269173 Z M2.12189123,5.41236438 C2.12189123,7.27529929 3.56476461,8.79026375 5.338125,8.79026375 C7.11211851,8.79026375 8.55435877,7.27529929 8.55435877,5.41236438 C8.55435877,3.54942948 7.11211851,2.03446502 5.338125,2.03446502 C3.56476461,2.03446502 2.12189123,3.54942948 2.12189123,5.41236438 Z" id="path-11"></path>
        <path d="M0.0864204545,2.00762252 C0.0864204545,3.07412084 0.909472403,3.93799102 1.92435877,3.93799102 C2.93956169,3.93799102 3.76229708,3.07412084 3.76229708,2.00762252 C3.76229708,0.9417789 2.93956169,0.0779087168 1.92435877,0.0779087168 C0.909472403,0.0779087168 0.0864204545,0.9417789 0.0864204545,2.00762252 Z" id="path-13"></path>
        <path d="M1.18709416,0.284137673 C0.679334416,0.284137673 0.268125,0.716236438 0.268125,1.24915825 C0.268125,1.78208006 0.679334416,2.21417883 1.18709416,2.21417883 L2.10574675,2.21417883 C2.61318994,2.21417883 3.02471591,1.78208006 3.02471591,1.24915825 C3.02471591,0.716563786 2.61318994,0.284137673 2.10574675,0.284137673 L1.18709416,0.284137673 Z" id="path-15"></path>
        <path d="M1.06363636,0.0720164609 C0.55650974,0.0720164609 0.144983766,0.504115226 0.144983766,1.03670969 C0.144983766,1.56995885 0.55650974,2.00205761 1.06363636,2.00205761 L2.86073864,2.00205761 C2.78096591,1.25144968 2.44826299,0.572530864 1.91549513,0.0720164609 L1.06363636,0.0720164609 Z" id="path-17"></path>
        <path d="M0.897443182,0.00687429854 C0.714472403,0.328984287 0.572654221,0.676627385 0.484967532,1.04391134 L0.27224026,1.93691545 L2.56918831,1.93691545 C3.07694805,1.93691545 3.48815747,1.50448934 3.48815747,0.971894875 C3.48815747,0.438973064 3.07663149,0.00687429854 2.56918831,0.00687429854 L0.897443182,0.00687429854 Z" id="path-19"></path>
        <path d="M0.195633117,4.68499813 C0.195633117,7.12799289 2.08105519,9.10844557 4.40712662,9.10844557 C6.73351461,9.10844557 8.61893669,7.12799289 8.61893669,4.68499813 C8.61893669,2.24200337 6.73351461,0.261223345 4.40712662,0.261223345 C2.08105519,0.261223345 0.195633117,2.24200337 0.195633117,4.68499813 Z" id="path-21"></path>
        <path d="M0.179172078,5.41269173 C0.179172078,2.4852226 2.44604708,0.104423868 5.2330276,0.104423868 C8.02000812,0.104423868 10.2871997,2.48554994 10.2871997,5.41269173 C10.2871997,8.33950617 8.02000812,10.7206322 5.2330276,10.7206322 C2.44604708,10.7206322 0.179172078,8.33950617 0.179172078,5.41269173 Z M2.01679383,5.41236438 C2.01679383,7.27529929 3.45935065,8.79026375 5.2330276,8.79026375 C7.00670455,8.79026375 8.44926136,7.27529929 8.44926136,5.41236438 C8.44926136,3.54942948 7.00670455,2.03446502 5.2330276,2.03446502 C3.45935065,2.03446502 2.01679383,3.54942948 2.01679383,5.41236438 Z" id="path-23"></path>
        <path d="M0.297881494,2.00762252 C0.297881494,3.07412084 1.12061688,3.93799102 2.13581981,3.93799102 C3.15070617,3.93799102 3.97375812,3.07412084 3.97375812,2.00762252 C3.97375812,0.9417789 3.15070617,0.0779087168 2.13581981,0.0779087168 C1.12061688,0.0779087168 0.297881494,0.9417789 0.297881494,2.00762252 Z" id="path-25"></path>
        <path d="M10.9158847,0.284465021 C5.265,0.286429106 1.75310065,1.06518893 0.497313312,1.40170221 C0.25387987,1.46848111 0.160811688,1.77193229 0.32700487,1.96670408 L2.61318994,4.66372054 C3.12158279,5.26538533 3.8436526,5.63201459 4.61890422,5.68209877 C6.21340909,5.78554059 9.21090097,5.98129443 12.5838312,6.18424991 C12.5838312,6.18424991 12.5756006,0.362373737 12.5676867,0.362373737 C11.6968344,0.290029929 11.1244968,0.284137673 10.9630519,0.284137673 C10.9320292,0.284137673 10.9158847,0.284465021 10.9158847,0.284465021 Z" id="path-27"></path>
        <path d="M0.295032468,1.92382155 C0.295032468,0.874672652 1.10890422,0.0238963711 2.1130276,0.0238963711 C3.11683442,0.0238963711 3.93070617,0.874672652 3.93070617,1.92382155 C3.93070617,2.97329779 3.11683442,3.82407407 2.1130276,3.82407407 C1.10890422,3.82407407 0.295032468,2.97329779 0.295032468,1.92382155 Z M0.425771104,1.92382155 C0.425771104,2.89604377 1.18266234,3.68691545 2.1130276,3.68691545 C3.0430763,3.68691545 3.79996753,2.89604377 3.79996753,1.92382155 C3.79996753,0.951926674 3.0430763,0.161054994 2.1130276,0.161054994 C1.18266234,0.161054994 0.425771104,0.951926674 0.425771104,1.92382155 Z" id="path-29"></path>
        <path d="M0.238051948,1.92382155 C0.238051948,1.02459783 0.935746753,0.29526749 1.79646916,0.29526749 C2.656875,0.29526749 3.35456981,1.02459783 3.35456981,1.92382155 C3.35456981,2.82369996 2.656875,3.55237561 1.79646916,3.55237561 C0.935746753,3.55237561 0.238051948,2.82369996 0.238051948,1.92382155 Z M0.369107143,1.92382155 C0.369107143,2.74611859 1.00918831,3.41554433 1.79646916,3.41554433 C2.58343344,3.41554433 3.22351461,2.74611859 3.22351461,1.92382155 C3.22351461,1.10119716 2.58343344,0.432426113 1.79646916,0.432426113 C1.00918831,0.432426113 0.369107143,1.10119716 0.369107143,1.92382155 Z" id="path-31"></path>
        <path d="M0.181387987,1.596474 C0.181387987,0.847175458 0.762589286,0.239618406 1.47991071,0.239618406 C2.19691558,0.239618406 2.77811688,0.847175458 2.77811688,1.596474 C2.77811688,2.34609989 2.19691558,2.95365694 1.47991071,2.95365694 C0.762589286,2.95365694 0.181387987,2.34609989 0.181387987,1.596474 Z M0.312443182,1.596474 C0.312443182,2.26950056 0.836030844,2.81682566 1.47991071,2.81682566 C2.12347403,2.81682566 2.64706169,2.26950056 2.64706169,1.596474 C2.64706169,0.923774785 2.12347403,0.376449682 1.47991071,0.376449682 C0.836030844,0.376449682 0.312443182,0.923774785 0.312443182,1.596474 Z" id="path-33"></path>
        <path d="M1.73758929,1.58403479 C1.89112013,0.696922933 2.63344968,0.0238963711 3.52646104,0.0238963711 C4.53058442,0.0238963711 5.34413961,0.874345305 5.34413961,1.92382155 C5.34413961,2.03577441 5.33495942,2.14543584 5.31723214,2.25247849 L2.40236201,2.25215114 C2.53974838,2.76575945 2.99147727,3.14417321 3.52646104,3.14417321 C3.89208604,3.14417321 4.21909091,2.96740554 4.43308442,2.69145155 L4.59706169,2.69145155 C4.363125,3.04760569 3.97090909,3.28100449 3.52646104,3.28100449 C2.91771916,3.28100449 2.40742695,2.84301347 2.266875,2.25215114 L2.13455357,2.25215114 C2.2782711,2.91732136 2.84744318,3.41554433 3.52646104,3.41554433 C4.04498377,3.41554433 4.49956169,3.12485971 4.7493263,2.69145155 L4.90064123,2.69145155 C4.63821429,3.20407782 4.12159091,3.55237561 3.52646104,3.55237561 C2.77336851,3.55237561 2.14563312,2.99424804 2.00033279,2.25215114 L1.86959416,2.25215114 C2.01711039,3.06790123 2.70372565,3.68691545 3.52646104,3.68691545 C4.19344968,3.68691545 4.77116883,3.28034979 5.04467532,2.69145155 L5.18965909,2.69145155 C4.90760552,3.35825851 4.26910714,3.82407407 3.52646104,3.82407407 C2.62933442,3.82407407 1.88415584,3.1454826 1.73568994,2.25215114 L0.505227273,2.25215114 L0.505227273,2.11531987 L5.20263799,2.11531987 C5.20928571,2.05246914 5.21340097,1.98863636 5.21340097,1.92382155 C5.21340097,0.951926674 4.45650974,0.161054994 3.52646104,0.161054994 C2.70752435,0.161054994 2.02375812,0.774176955 1.87181006,1.58403479 L2.00286526,1.58403479 C2.15228084,0.847830153 2.77748377,0.295594837 3.52646104,0.295594837 C4.38718344,0.295594837 5.08456169,1.02427048 5.08456169,1.92382155 C5.08456169,1.94542649 5.08392857,1.96604938 5.08329545,1.98699963 L0.900608766,1.98699963 L0.900608766,1.85016835 L4.95160714,1.85016835 C4.91488636,1.06191545 4.28968344,0.432098765 3.52646104,0.432098765 C2.85155844,0.432098765 2.28523539,0.924756828 2.1374026,1.58403479 L2.26972403,1.58403479 C2.41407468,0.999064721 2.92151786,0.566965956 3.52646104,0.566965956 C4.17762175,0.566965956 4.71672078,1.06813505 4.81042208,1.72086607 L0.110478896,1.72086607 L0.110478896,1.58403479 L1.73758929,1.58403479 Z M3.52646104,0.703797232 C2.99527597,0.703797232 2.54671266,1.07631874 2.40521104,1.58403479 L4.64739448,1.58403479 C4.50589286,1.07631874 4.05732955,0.703797232 3.52646104,0.703797232 Z" id="path-35"></path>
        <path d="M0.356325619,0.245510662 C0.322271132,0.245510662 0.297564935,0.259126569 0.297564935,0.285030001 C0.297564935,0.31392229 0.322271132,0.329530769 0.356325619,0.329530769 L0.556646132,0.329530769 L0.556646132,0.826013215 C0.556646132,0.857230172 0.571002435,0.876823793 0.61073267,0.876823793 C0.646790362,0.876823793 0.671830427,0.857230172 0.671830427,0.826013215 L0.671830427,0.329530769 L0.871483204,0.329530769 C0.898526474,0.329530769 0.922564935,0.31392229 0.922564935,0.285030001 C0.922564935,0.259126569 0.898526474,0.245510662 0.871483204,0.245510662 L0.356325619,0.245510662 Z" id="path-37"></path>
        <path d="M0.774765131,0.270177408 L0.571105943,0.632019513 L0.357764597,0.272503298 C0.346413101,0.246586233 0.32638105,0.240273101 0.310021541,0.240273101 C0.277302524,0.240273101 0.252930195,0.258547955 0.252930195,0.293768583 L0.252930195,0.824071613 C0.252930195,0.853975919 0.274631584,0.871586233 0.303010323,0.871586233 C0.32638105,0.871586233 0.346413101,0.853975919 0.346413101,0.824071613 L0.346413101,0.440299683 L0.348750173,0.440299683 L0.522361285,0.739010475 C0.535382118,0.754959438 0.545732011,0.764927541 0.5674334,0.764927541 C0.581455836,0.764927541 0.600152417,0.754959438 0.607497502,0.739010475 L0.779773144,0.437973793 L0.781442481,0.437973793 L0.781442481,0.824071613 C0.781442481,0.853975919 0.804145473,0.871586233 0.83419355,0.871586233 C0.863240024,0.871586233 0.877930195,0.853975919 0.877930195,0.824071613 L0.877930195,0.293768583 C0.877930195,0.258547955 0.860569084,0.240273101 0.828517802,0.240273101 C0.805480943,0.240273101 0.784113421,0.252234824 0.774765131,0.270177408 Z" id="path-39"></path>
    </defs>
    <g id="Approved" stroke="none" stroke-width="1" fill="none" fill-rule="evenodd">
        <g id="Icon/Colour/EvoCarShare">
            <g id="Page-1-Copy">
                <g id="Group-3" transform="translate(0.000000, 3.314067)">
                    <mask id="mask-2" fill="white">
                        <use xlink:href="#path-1"></use>
                    </mask>
                    <g id="Clip-2"></g>
                    <polygon id="Fill-1" fill="#5A5A5A" mask="url(#mask-2)" points="-6.64772727 24.85419 54.6563474 24.85419 54.6563474 -6.91488964 -6.64772727 -6.91488964"></polygon>
                </g>
                <g id="Group-6" transform="translate(22.159091, 4.623457)">
                    <mask id="mask-4" fill="white">
                        <use xlink:href="#path-3"></use>
                    </mask>
                    <g id="Clip-5"></g>
                    <polygon id="Fill-4" fill="#333333" mask="url(#mask-4)" points="-6.58789773 13.026141 21.4886201 13.026141 21.4886201 -6.91128881 -6.58789773 -6.91128881"></polygon>
                </g>
                <g id="Group-9" transform="translate(0.000000, 12.479798)">
                    <mask id="mask-6" fill="white">
                        <use xlink:href="#path-5"></use>
                    </mask>
                    <g id="Clip-8"></g>
                    <polygon id="Fill-7" fill="#333333" mask="url(#mask-6)" points="-6.43594968 15.0265619 54.6585633 15.0265619 54.6585633 -6.94926113 -6.43594968 -6.94926113"></polygon>
                </g>
                <g id="Group-12" transform="translate(0.000000, 18.044706)">
                    <mask id="mask-8" fill="white">
                        <use xlink:href="#path-7"></use>
                    </mask>
                    <g id="Clip-11"></g>
                    <polygon id="Fill-10" fill="#4DC7FA" mask="url(#mask-8)" points="-6.45462662 11.1422559 55.0925649 11.1422559 55.0925649 -6.62976992 -6.45462662 -6.62976992"></polygon>
                </g>
                <g id="Group-15" transform="translate(5.381494, 16.080621)">
                    <mask id="mask-10" fill="white">
                        <use xlink:href="#path-9"></use>
                    </mask>
                    <g id="Clip-14"></g>
                    <polygon id="Fill-13" fill="#EDEDEE" mask="url(#mask-10)" points="-6.42613636 16.0642536 15.4512175 16.0642536 15.4512175 -6.69491208 -6.42613636 -6.69491208"></polygon>
                </g>
                <g id="Group-18" transform="translate(4.431818, 15.425926)">
                    <mask id="mask-12" fill="white">
                        <use xlink:href="#path-11"></use>
                    </mask>
                    <g id="Clip-17"></g>
                    <polygon id="Fill-16" fill="#504B5A" mask="url(#mask-12)" points="-6.4425974 17.6767677 17.119164 17.6767677 17.119164 -6.85171156 -6.4425974 -6.85171156"></polygon>
                </g>
                <g id="Group-21" transform="translate(7.913961, 18.699401)">
                    <mask id="mask-14" fill="white">
                        <use xlink:href="#path-13"></use>
                    </mask>
                    <g id="Clip-20"></g>
                    <polygon id="Fill-19" fill="#DCDBDE" mask="url(#mask-14)" points="-6.64012987 10.8941264 10.489164 10.8941264 10.489164 -6.87855406 -6.64012987 -6.87855406"></polygon>
                </g>
                <g id="Group-24" transform="translate(45.584416, 16.080621)">
                    <mask id="mask-16" fill="white">
                        <use xlink:href="#path-15"></use>
                    </mask>
                    <g id="Clip-23"></g>
                    <polygon id="Fill-22" fill="#333333" mask="url(#mask-16)" points="-6.45874188 9.17031425 9.75158279 9.17031425 9.75158279 -6.67199776 -6.45874188 -6.67199776"></polygon>
                </g>
                <g id="Group-27" transform="translate(44.951299, 14.443883)">
                    <mask id="mask-18" fill="white">
                        <use xlink:href="#path-17"></use>
                    </mask>
                    <g id="Clip-26"></g>
                    <polygon id="Fill-25" fill="#EDEDEE" mask="url(#mask-18)" points="-6.58188312 8.95819304 9.58760552 8.95819304 9.58760552 -6.88411897 -6.58188312 -6.88411897"></polygon>
                </g>
                <g id="Group-30" transform="translate(0.000000, 12.479798)">
                    <mask id="mask-20" fill="white">
                        <use xlink:href="#path-19"></use>
                    </mask>
                    <g id="Clip-29"></g>
                    <polygon id="Fill-28" fill="#FF4747" mask="url(#mask-20)" points="-6.45462662 8.89305088 10.2150244 8.89305088 10.2150244 -6.94926113 -6.45462662 -6.94926113"></polygon>
                </g>
                <g id="Group-33" transform="translate(32.922078, 16.080621)">
                    <mask id="mask-22" fill="white">
                        <use xlink:href="#path-21"></use>
                    </mask>
                    <g id="Clip-32"></g>
                    <polygon id="Fill-31" fill="#EDEDEE" mask="url(#mask-22)" points="-6.53155032 16.0642536 15.3458036 16.0642536 15.3458036 -6.69491208 -6.53155032 -6.69491208"></polygon>
                </g>
                <g id="Group-36" transform="translate(31.972403, 15.425926)">
                    <mask id="mask-24" fill="white">
                        <use xlink:href="#path-23"></use>
                    </mask>
                    <g id="Clip-35"></g>
                    <polygon id="Fill-34" fill="#504B5A" mask="url(#mask-24)" points="-6.54801136 17.6767677 17.01375 17.6767677 17.01375 -6.85171156 -6.54801136 -6.85171156"></polygon>
                </g>
                <g id="Group-39" transform="translate(35.137987, 18.699401)">
                    <mask id="mask-26" fill="white">
                        <use xlink:href="#path-25"></use>
                    </mask>
                    <g id="Clip-38"></g>
                    <polygon id="Fill-37" fill="#DCDBDE" mask="url(#mask-26)" points="-6.42898539 10.8941264 10.7003084 10.8941264 10.7003084 -6.87855406 -6.42898539 -6.87855406"></polygon>
                </g>
                <g id="Group-42" transform="translate(8.230519, 4.296109)">
                    <mask id="mask-28" fill="white">
                        <use xlink:href="#path-27"></use>
                    </mask>
                    <g id="Clip-41"></g>
                    <polygon id="Fill-40" fill="#333333" mask="url(#mask-28)" points="-6.48375 13.1403853 19.3106981 13.1403853 19.3106981 -6.67167041 -6.48375 -6.67167041"></polygon>
                </g>
                <g id="Group-45" transform="translate(25.957792, 15.098578)">
                    <mask id="mask-30" fill="white">
                        <use xlink:href="#path-29"></use>
                    </mask>
                    <g id="Clip-44"></g>
                    <polygon id="Fill-43" fill="#4DC7FA" mask="url(#mask-30)" points="-6.43183442 10.7802095 10.6575731 10.7802095 10.6575731 -6.93223906 -6.43183442 -6.93223906"></polygon>
                </g>
                <g id="Group-48" transform="translate(26.274351, 15.098578)">
                    <mask id="mask-32" fill="white">
                        <use xlink:href="#path-31"></use>
                    </mask>
                    <g id="Clip-47"></g>
                    <polygon id="Fill-46" fill="#4DC7FA" mask="url(#mask-32)" points="-6.48881494 10.508511 10.0814367 10.508511 10.0814367 -6.66086794 -6.48881494 -6.66086794"></polygon>
                </g>
                <g id="Group-51" transform="translate(26.590909, 15.425926)">
                    <mask id="mask-34" fill="white">
                        <use xlink:href="#path-33"></use>
                    </mask>
                    <g id="Clip-50"></g>
                    <polygon id="Fill-49" fill="#4DC7FA" mask="url(#mask-34)" points="-6.5454789 9.90979237 9.50530032 9.90979237 9.50530032 -6.71684437 -6.5454789 -6.71684437"></polygon>
                </g>
                <polygon id="Fill-52" fill="#4DC7FA" points="26.1827386 15.1928872 24.2086802 18.696488 22.2409529 15.1928872 22.0886883 15.1928872 24.2086802 18.9668771 26.3350032 15.1928872"></polygon>
                <polygon id="Fill-53" fill="#4DC7FA" points="26.1060998 14.7512626 24.208332 18.1553498 22.5473498 15.1925271 22.3954018 15.1925271 24.2086485 18.4267209 26.2577313 14.7512626"></polygon>
                <polygon id="Fill-54" fill="#4DC7FA" points="26.0306006 14.3128788 24.2031088 17.5968294 22.8552029 15.192789 22.7029383 15.192789 24.2037419 17.8688552 26.1822321 14.3128788"></polygon>
                <g id="Group-57" transform="translate(16.777597, 15.098578)">
                    <mask id="mask-36" fill="white">
                        <use xlink:href="#path-35"></use>
                    </mask>
                    <g id="Clip-56"></g>
                    <polygon id="Fill-55" fill="#4DC7FA" mask="url(#mask-36)" points="-6.61638799 10.7802095 12.0710065 10.7802095 12.0710065 -6.93223906 -6.61638799 -6.93223906"></polygon>
                </g>
                <g id="Group-60" transform="translate(29.123377, 18.372054)">
                    <mask id="mask-38" fill="white">
                        <use xlink:href="#path-37"></use>
                    </mask>
                    <g id="Clip-59"></g>
                    <polygon id="Fill-58" fill="#4DC7FA" mask="url(#mask-38)" points="-6.42930195 7.82393378 7.61702922 7.82393378 7.61702922 -6.71062477 -6.42930195 -6.71062477"></polygon>
                </g>
                <g id="Group-63" transform="translate(29.439935, 18.372054)">
                    <mask id="mask-40" fill="white">
                        <use xlink:href="#path-39"></use>
                    </mask>
                    <g id="Clip-62"></g>
                    <polygon id="Fill-61" fill="#4DC7FA" mask="url(#mask-40)" points="-6.47393669 7.81836887 7.57239448 7.81836887 7.57239448 -6.71618967 -6.47393669 -6.71618967"></polygon>
                </g>
                <g id="Group-68" transform="translate(5.064935, 0.040591)">
                    <path d="M13.995112,1.35260007 L3.54994968,1.99682005 L3.54361851,1.90123457 C3.53032305,1.70024317 3.6746737,1.52445754 3.86429221,1.51038159 L13.6114432,0.789889637 C13.8010617,0.775813692 13.9672549,0.928357651 13.9802338,1.12934905 L13.995112,1.35260007 Z M7.64716558,2.61223345 L13.5816867,2.24625889 C13.5335698,2.27310138 13.4873523,2.30354471 13.4433506,2.3372615 L7.64716558,2.61223345 Z M21.0347386,0.918537224 L14.5376932,1.31921062 C14.5386429,1.30349794 14.5389594,1.28745791 14.5380097,1.27141788 L14.4807127,0.404601571 C14.4674172,0.203937523 14.3015406,0.0510662177 14.1119221,0.0651421624 L3.24668669,0.868453049 C3.05675162,0.882528994 2.91240097,1.05831463 2.92569643,1.25897868 L2.9769789,2.03217359 L0.241280844,2.20075758 L1.47079383,2.99293865 L1.64996591,2.98180883 L2.48757955,3.33305275 L3.25744968,3.29671717 C3.16786364,3.47512159 3.11689773,3.67873176 3.11689773,3.89478114 C3.11689773,3.95599514 3.12132955,4.34324729 3.12924351,4.4018425 L5.83613474,4.06565657 C5.81334253,3.86793865 5.43125649,3.35727647 5.33343994,3.19818556 L13.0539838,2.83188365 C12.984974,2.98704639 12.9460373,3.4869061 12.9416055,3.66858399 C12.9416055,3.66858399 15.3515649,3.77038908 15.3515649,3.70197344 C15.3515649,3.46726525 15.2914188,2.91961279 15.1869545,2.73073326 L18.0825146,2.59324729 L19.0625795,2.07047325 L14.7577013,2.27473812 C14.701987,2.23971193 14.6431071,2.20959596 14.5820114,2.1843902 L19.9001932,1.85638795 L21.0347386,0.918537224 Z" id="Fill-64" fill="#5A5A5A"></path>
                    <path d="M7.64703896,2.61701272 L13.5818766,2.25103816 C13.5337597,2.27820801 13.4875422,2.30865133 13.4435406,2.34204078 L7.64703896,2.61701272 Z M21.034612,0.923316498 L0.241154221,2.20553685 L1.47098377,2.99804527 L1.64983929,2.98691545 L2.48776948,3.33815937 L3.25763961,3.30149645 C3.16805357,3.48022821 18.082388,2.59835391 18.082388,2.59835391 L19.0627695,2.07525253 L14.7578912,2.2795174 C14.7018604,2.24481856 14.6432971,2.21470258 14.5818847,2.18949682 L19.9000666,1.86149458 L21.034612,0.923316498 Z" id="Fill-66" fill="#4DC7FA"></path>
                </g>
            </g>
        </g>
    </g>
</svg>