<svg xmlns="http://www.w3.org/2000/svg" xmlns:xlink="http://www.w3.org/1999/xlink" width="50" height="50" viewBox="0 0 50 50" version="1.1">
    <!-- Generator: Sketch 44 (41411) - http://www.bohemiancoding.com/sketch -->
    <title>Icon/Colour/SpecialtyItems</title>
    <desc>Created with Sketch.</desc>
    <defs/>
    <g id="Approved" stroke="none" stroke-width="1" fill="none" fill-rule="evenodd">
        <g id="Icon/Colour/SpecialtyItems">
            <g id="diamond" transform="translate(0.000000, -1.000000)">
                <path d="M44.5462281,8.58315789 L37.9382456,0.653596491 C37.6380702,0.293421053 37.1934211,0.0851754386 36.7245614,0.0851754386 L8.18789474,0.0851754386 C7.71894737,0.0851754386 7.27447368,0.293421053 6.97421053,0.653596491 L0.366140351,8.58315789 C-0.110701754,9.15535088 -0.123070175,9.98289474 0.336403509,10.5691228 L21.212807,37.204386 C21.8453509,38.0114035 23.0671053,38.0114035 23.6996491,37.204386 L44.5760526,10.5690351 C45.0353509,9.98280702 45.0229825,9.15535088 44.5462281,8.58315789 Z" id="Shape" fill="#00C3FF"/>
                <polygon id="Shape" fill="#40D2FF" points="22.4562281 0.0851754386 14.5571053 9.56412281 30.3553509 9.56412281"/>
                <path d="M14.5571053,9.56412281 L7.55114035,0.222894737 C7.33096491,0.320087719 7.13201754,0.464210526 6.97421053,0.653596491 L0.366140351,8.58315789 C0.129298246,8.86745614 0.00824561404,9.21464912 0.00140350877,9.56412281 L14.5571053,9.56412281 Z" id="Shape" fill="#00AAF0"/>
                <path d="M30.3553509,9.56412281 L37.3612281,0.222894737 C37.5814035,0.320087719 37.7803509,0.464210526 37.9381579,0.653596491 L44.5461404,8.58315789 C44.7829825,8.86745614 44.9040351,9.21464912 44.9108772,9.56412281 L30.3553509,9.56412281 Z" id="Shape" fill="#80E1FF"/>
                <g id="Group" transform="translate(0.000000, 9.561404)" fill="#00C3FF">
                    <path d="M44.9109649,0.00271929825 L0.00140350877,0.00271929825 C-0.00543859649,0.356578947 0.105175439,0.712631579 0.336403509,1.0077193 L21.212807,27.6429825 C21.8453509,28.45 23.0671053,28.45 23.6996491,27.6429825 L44.5760526,1.00763158 C44.807193,0.712631579 44.9176316,0.356578947 44.9109649,0.00271929825 Z" id="Shape"/>
                    <path d="M22.4562281,28.2482456 C22.9198246,28.2482456 23.3834211,28.0464912 23.6996491,27.6429825 L44.5760526,1.00763158 C44.8072807,0.712631579 44.917807,0.356578947 44.9110526,0.00263157895 L22.4562281,0.00263157895 L22.4562281,28.2482456 Z" id="Shape"/>
                </g>
                <path d="M22.7294737,37.7797368 C23.2388596,35.8950877 30.3552632,9.56412281 30.3552632,9.56412281 L14.5570175,9.56412281 L22.182807,37.7797368 C22.3640351,37.8113158 22.5483333,37.8113158 22.7294737,37.7797368 Z" id="Shape" fill="#00AAF0"/>
            </g>
        </g>
    </g>
</svg>