<svg xmlns="http://www.w3.org/2000/svg" xmlns:xlink="http://www.w3.org/1999/xlink" width="50" height="50" viewBox="0 0 50 50" version="1.1">
    <!-- Generator: Sketch 44 (41411) - http://www.bohemiancoding.com/sketch -->
    <title>Icon/Colour/FireSmoke</title>
    <desc>Created with Sketch.</desc>
    <defs/>
    <g id="Approved" stroke="none" stroke-width="1" fill="none" fill-rule="evenodd">
        <g id="Icon/Colour/FireSmoke">
            <g id="Fire-and-Smoke" transform="translate(0.000000, -1.000000)">
                <g id="Group-14" transform="translate(9.817112, 0.015506)" fill="#5A5A5A">
                    <path d="M3.08969904,10.4356587 C4.79605855,10.4356587 6.17932862,11.8476722 6.17932862,13.5894012 C6.17932862,15.3311302 4.79605855,16.7431436 3.08969904,16.7431436 C1.38327007,16.7431436 0,15.3311302 0,13.5894012 C0,11.8476722 1.38327007,10.4356587 3.08969904,10.4356587 Z" id="Fill-7"/>
                    <path d="M8.76617465,5.1128374 C11.6711417,5.1128374 14.025974,7.43587803 14.025974,10.3013658 C14.025974,13.1668535 11.6711417,15.4897775 8.76617465,15.4897775 C5.8613258,15.4897775 3.50649351,13.1668535 3.50649351,10.3013658 C3.50649351,7.43587803 5.8613258,5.1128374 8.76617465,5.1128374 Z" id="Fill-12"/>
                    <path d="M3.50647774,0.270265342 C4.28113563,0.270265342 4.90909091,0.889742842 4.90909091,1.65387291 C4.90909091,2.41800298 4.28113563,3.03744938 3.50647774,3.03744938 C2.73185138,3.03744938 2.1038961,2.41800298 2.1038961,1.65387291 C2.1038961,0.889742842 2.73185138,0.270265342 3.50647774,0.270265342 Z" id="Fill-12-Copy"/>
                </g>
                <path d="M0.701298701,11.4207176 C0.701298701,10.2711384 1.65075211,9.33924612 2.8219947,9.33924612 C3.9932373,9.33924612 4.9426907,10.2711384 4.9426907,11.4207176 C4.9426907,12.5702968 3.9932373,13.5021891 2.8219947,13.5021891 C1.65075211,13.5021891 0.701298701,12.5702968 0.701298701,11.4207176" id="Fill-5" fill="#5A5A5A"/>
                <path d="M16.4805195,11.4146341 C16.4805195,9.69530508 17.8934174,8.30155211 19.6363636,8.30155211 C21.3793099,8.30155211 22.7922078,9.69530508 22.7922078,11.4146341 C22.7922078,13.1339632 21.3793099,14.5277162 19.6363636,14.5277162 C17.8934174,14.5277162 16.4805195,13.1339632 16.4805195,11.4146341" id="Fill-5-Copy-2" fill="#333333"/>
                <path d="M15.0779221,12.1064302 C15.0779221,11.3422839 15.7058767,10.7228381 16.4805195,10.7228381 C17.2551622,10.7228381 17.8831169,11.3422839 17.8831169,12.1064302 C17.8831169,12.8705764 17.2551622,13.4900222 16.4805195,13.4900222 C15.7058767,13.4900222 15.0779221,12.8705764 15.0779221,12.1064302" id="Fill-5-Copy-3" fill="#333333"/>
                <path d="M20.4995996,16.9772459 C20.4995996,16.9772459 21.3697766,19.9501042 19.4150743,22.0759665 C19.0129664,20.7202852 17.7599076,18.960452 17.0028363,17.7535234 C15.2440746,14.9499018 17.9078857,11.2004409 17.9078857,11.2004409 C17.9078857,11.2004409 12.9599752,12.0970211 10.5340336,16.6885195 C9.01038034,19.5721261 9.55719383,21.6489732 10.9814451,24.8700777 C10.9443227,24.873004 7.37525766,23.189254 7.52691736,17.1551801 C7.52691736,17.1551801 0.17413199,23.6227501 0.17413199,30.7267052 C0.17413199,35.4248503 4.01777986,39.9242521 11.3309885,40.906995 C19.0176706,41.9399724 23.8183188,37.6141966 25.5183801,34.0821747 C27.3035262,30.3730315 28.6807353,23.3731221 20.4995996,16.9772459 Z" id="Shape" fill="#FFA733"/>
                <path d="M20.5633111,16.9772459 C20.5633111,16.9772459 21.433488,19.9501042 19.4787858,22.0759665 C19.0766779,20.7202852 17.7115361,19.0009322 17.0665477,17.7535234 C15.4512646,14.6299616 17.9714949,11.2004409 17.9714949,11.2004409 C17.9714949,11.2004409 15.6260363,11.5643565 13.5266283,13.2796453 L13.5266283,41.0613563 C19.9734439,41.1169557 24.0449392,37.275317 25.5819893,34.0821747 C27.3672377,30.3730315 28.7444468,23.3731221 20.5633111,16.9772459 Z" id="Shape" fill="#FF9811"/>
                <path d="M18.0889773,37.586924 C18.814244,40.4372036 15.8567265,41.2014508 13.4620781,41.2014508 C11.0674298,41.2014508 9.07192358,40.0127302 8.64701053,37.8662213 C8.27486647,35.9860041 9.41717182,33.3849462 13.7531257,29.3235925 C13.7531257,34.3295662 17.2724897,34.3783375 18.0889773,37.586924 Z" id="Shape" fill="#FFDA44"/>
                <path d="M18.1535275,37.5868427 C17.3370399,34.3780937 13.8176759,34.3294036 13.8176759,29.3235925 C13.717558,29.4173148 13.6221443,29.5091675 13.5266283,29.6011828 L13.5266283,41.0246546 C13.6228602,41.0297756 13.7198078,41.0332709 13.8176759,41.0332709 C16.2123242,41.0331896 18.8789988,40.4372036 18.1535275,37.5868427 Z" id="Shape" fill="#FFD422"/>
            </g>
        </g>
    </g>
</svg>