<svg xmlns="http://www.w3.org/2000/svg" xmlns:xlink="http://www.w3.org/1999/xlink" width="50" height="50" viewBox="0 0 50 50" version="1.1">
    <!-- Generator: Sketch 44 (41411) - http://www.bohemiancoding.com/sketch -->
    <title>Icon/Colour/BadWeather</title>
    <desc>Created with Sketch.</desc>
    <defs/>
    <g id="Approved" stroke="none" stroke-width="1" fill="none" fill-rule="evenodd">
        <g id="Icon/Colour/BadWeather">
            <g id="HOME---BAD-WEATHER-">
                <path d="M29.0284876,42.1791518 C29.0284876,42.6713444 28.771593,43.0702409 28.4546339,43.0702409 L20.1668278,43.0702409 C19.8499261,43.0702409 19.5929741,42.6712551 19.5929741,42.1791518 C19.5929741,41.6870485 19.8498688,41.2880627 20.1668278,41.2880627 L28.4546339,41.2880627 C28.771593,41.288152 29.0284876,41.6870485 29.0284876,42.1791518 Z M22.5978809,22.7041555 L18.1578561,22.7041555 C17.5836218,22.7041555 17.118018,23.1641202 17.118018,23.731434 C17.118018,24.2987477 17.5835178,24.7587124 18.1578561,24.7587124 L22.5978809,24.7587124 C23.1721152,24.7587124 23.637719,24.2987477 23.637719,23.731434 C23.637719,23.1641202 23.1721152,22.7041555 22.5978809,22.7041555 Z M17.0449893,18.0582912 L12.6049646,18.0582912 C12.0307302,18.0582912 11.5651264,18.5182558 11.5651264,19.0855696 C11.5651264,19.6528833 12.0306263,20.112848 12.6049646,20.112848 L17.0449893,20.112848 C17.6192236,20.112848 18.0848275,19.6528833 18.0848275,19.0855696 C18.0848275,18.5182558 17.6192236,18.0582912 17.0449893,18.0582912 Z M13.5717436,23.0348901 L13.3377463,23.0348901 C12.7636159,23.0348901 12.2980121,23.4948548 12.2980121,24.0621685 C12.2980121,24.6294823 12.7635119,25.0894469 13.3378502,25.0894469 L13.5719516,25.0894469 C14.1461859,25.0894469 14.6117897,24.6294823 14.6117897,24.0621685 C14.6117897,23.4948548 14.1461859,23.0348901 13.5717436,23.0348901 Z" id="Shape-Copy" fill="#1B9FD6" transform="translate(20.296807, 30.564266) rotate(298.000000) translate(-20.296807, -30.564266) "/>
                <g id="Group" fill-rule="nonzero">
                    <g id="cloud-computing">
                        <g id="Layer_1">
                            <g id="Group" fill="#CDD3DA">
                                <path d="M37.3949972,11.6952735 C36.8617653,11.6952735 36.3397254,11.7446359 35.8367117,11.8449984 C35.8367117,11.8189135 35.8379552,11.7941153 35.8379552,11.7670947 C35.8379552,5.26821287 30.2376529,0 23.3332456,0 C17.5013954,0 12.595364,3.75774542 11.2144079,8.8421943 C10.5777131,8.70896249 9.91900767,8.64100139 9.24513095,8.64100139 C4.1996982,8.64100139 0.110178035,12.4874121 0.110178035,17.2321725 C0.110178035,21.9778686 4.1996982,25.8204192 9.24513095,25.8204192 L37.3946241,25.8204192 C41.5427152,25.8204192 44.9057567,22.6621585 44.9057567,18.7543372 C44.9057567,14.8565755 41.5430883,11.6952735 37.3949972,11.6952735 Z" id="Shape"/>
                                <path d="M35.8334784,11.757269 C35.8334784,18.2517058 30.2375286,23.5158246 23.3328726,23.5158246 C16.4294601,23.5158246 10.8336346,18.2520567 10.8336346,11.757269 C10.8340077,5.26376791 16.4299575,0 23.3332456,0 C30.2376529,0 35.8334784,5.26376791 35.8334784,11.757269 Z" id="Shape"/>
                            </g>
                            <path d="M18.3772237,17.2306518 C18.3772237,21.9757631 14.2886984,25.8206531 9.24513095,25.8206531 C4.20056868,25.8206531 0.112043352,21.9759971 0.112043352,17.2306518 C0.112043352,12.4855405 4.20056868,8.64088442 9.24513095,8.64088442 C14.2886984,8.64065048 18.3772237,12.4855405 18.3772237,17.2306518 Z" id="Shape" fill="#CDD3DA"/>
                            <path d="M44.901653,18.7590161 C44.901653,22.659702 41.5408499,25.8206531 37.3949972,25.8206531 C33.2495175,25.8206531 29.8874708,22.659936 29.8874708,18.7590161 C29.8874708,14.8565755 33.2495175,11.6952735 37.3949972,11.6952735 C41.5408499,11.6952735 44.901653,14.8565755 44.901653,18.7590161 Z" id="Shape" fill="#CDD3DA"/>
                            <path d="M41.1208746,12.2687543 C40.0406725,11.8287164 38.8487507,11.5841584 37.5975792,11.5841584 C36.9655821,11.5841584 36.3468499,11.6426638 35.7506679,11.7616154 C35.7506679,16.5572529 33.1706518,20.6838219 29.25,23.1912342 C30.3804612,23.6778546 31.6263268,23.9556858 32.9503076,23.9556858 C37.8652347,23.9556858 41.85,20.2088471 41.85,15.5842893 C41.8497052,14.4048933 41.5898613,13.2851117 41.1208746,12.2687543 Z" id="Shape" fill="#F3F3F3"/>
                            <path d="M11.8580828,20.8058146 C13.0914095,21.3877735 14.4465959,21.757185 15.8993205,21.757185 C24.2506552,21.757185 31.0218043,15.3898186 31.0218043,7.53323817 C31.0218043,5.33366168 30.4907633,3.25238459 29.5421104,1.39185759 C27.5653741,0.500225354 25.3492933,0 23.0104562,0 C16.767028,0 11.4007368,3.56015423 9.09087408,8.64220724 C4.11677983,8.71983853 0.110551098,12.535979 0.110551098,17.2321725 C0.110551098,18.6530389 0.482370879,19.9894511 1.131128,21.1699387 C2.20168119,21.6915422 7.93118332,23.9195362 11.8580828,20.8058146 Z" id="Combined-Shape" fill="#F3F3F3"/>
                        </g>
                    </g>
                    <polygon id="Shape" fill="#F4B92C" points="27.5914708 23.1928318 23.3853665 30.7931377 28.8958611 30.7686227 16.2 44.5767485 20.9991558 32.8821673 16.3540351 32.8821673 20.5312341 23.1683168"/>
                    <polygon id="Shape-Copy-3" fill="#FFCC33" points="27.5914708 23.1928318 23.3853665 30.7931377 28.8289453 30.7929301 21.2159766 39.1232209 23.3853665 32.8264233 19.9540351 32.8821673 20.0254904 32.7160018 24.1312341 23.1683168"/>
                </g>
            </g>
        </g>
    </g>
</svg>