<svg xmlns:xlink="http://www.w3.org/1999/xlink" xmlns="http://www.w3.org/2000/svg" width="73" height="73" viewBox="0 0 73 73"><g fill="none" fill-rule="evenodd"><ellipse stroke="#ED1C24" stroke-width="4" cx="36.07" cy="36.056" rx="33.07" ry="33.056"/><path d="M22.842 31.52l2.88-8.64h21.129l2.881 8.64h-26.89zm24.009 9.6a2.877 2.877 0 0 1-2.881-2.88 2.877 2.877 0 0 1 2.88-2.88 2.877 2.877 0 0 1 2.882 2.88 2.877 2.877 0 0 1-2.881 2.88zm-21.128 0a2.877 2.877 0 0 1-2.881-2.88 2.877 2.877 0 0 1 2.88-2.88 2.877 2.877 0 0 1 2.882 2.88 2.877 2.877 0 0 1-2.881 2.88zm23.855-19.18A2.87 2.87 0 0 0 46.851 20H25.723a2.888 2.888 0 0 0-2.728 1.94L19 33.44V48.8c0 1.055.864 1.92 1.92 1.92h1.922c1.056 0 1.92-.865 1.92-1.92v-1.92h23.05v1.92c0 1.055.864 1.92 1.92 1.92h1.92a1.927 1.927 0 0 0 1.922-1.92V33.44l-3.996-11.5z" fill="#ED1C24"/></g></svg>