<svg xmlns="http://www.w3.org/2000/svg" xmlns:xlink="http://www.w3.org/1999/xlink" width="50" height="50" viewBox="0 0 50 50" version="1.1">
    <!-- Generator: Sketch 44 (41411) - http://www.bohemiancoding.com/sketch -->
    <title>Icon/Colour/SavingTheDay</title>
    <desc>Created with Sketch.</desc>
    <defs>
        <rect id="path-1" x="0" y="0" width="41" height="41"/>
    </defs>
    <g id="Approved" stroke="none" stroke-width="1" fill="none" fill-rule="evenodd">
        <g id="Icon/Colour/SavingTheDay">
            <g id="SavingtheDay-Copy-2">
                <mask id="mask-2" fill="white">
                    <use xlink:href="#path-1"/>
                </mask>
                <g id="Mask"/>
                <g id="SavingtheDay-Copy" mask="url(#mask-2)">
                    <g transform="translate(-2.640000, 13.150323) scale(-1, 1) translate(2.640000, -13.150323) translate(-44.640000, -16.849677)" id="Page-1">
                        <g transform="translate(41.616921, 30.021145) rotate(-13.000000) translate(-41.616921, -30.021145) translate(4.116921, 8.021145)">
                            <path d="M12.4070747,33.1573043 C7.15549002,26.2114861 9.31499209,21.630596 9.12162849,21.1809863 C8.92848947,20.731152 11.1979032,10.3170308 12.9970156,9.54425012 C14.7959035,8.77146946 20.24714,10.0524752 22.410297,14.3439793 C24.573454,18.6354834 30.3876122,29.6956118 30.3876122,29.6956118 C30.3876122,29.6956118 17.8751547,27.6333037 12.4070747,33.1573043 Z" id="Fill-1" fill="#C7171D" transform="translate(19.614801, 21.244729) rotate(-15.000000) translate(-19.614801, -21.244729) "/>
                            <g id="Group-8" transform="translate(-0.000000, 0.216495)" fill="#AD6C3C">
                                <path d="M2.15368576,0.337249823 C2.33914329,0.579036795 2.39571141,0.861877429 2.46206559,0.911523718 C2.78595988,1.15402674 2.82653618,1.41968212 2.70242046,1.85146162 C2.55730054,2.35651713 2.45395033,2.31474742 2.65611575,2.87231343 C2.48521794,3.07495621 1.56962582,3.54802806 1.56962582,3.54802806 C1.01492402,2.6868559 0.693655245,2.217603 0.5833832,1.93595579 C0.53302086,1.80730507 0.423464867,1.51945207 0.386946203,1.02131839 C0.369044897,0.776667213 1.0586032,0.342262189 1.68347812,0.107635739 C1.8846888,0.0319728854 2.05296108,0.205973579 2.15368576,0.337249823" id="Fill-6"/>
                            </g>
                            <path d="M1.19079738,3.32854242 C2.12505124,5.80880676 2.08260557,7.05140931 2.62002612,8.28615155 C2.9182687,8.97112132 3.22908777,9.22601991 3.35417897,9.33202179 C3.4460323,9.41017572 5.16923659,8.95697277 5.21594928,8.34139829 C5.25727205,7.79544369 4.94128763,7.21220877 4.64416795,6.75226841 C4.31740368,6.24696283 4.01062706,5.71740259 3.60593344,4.964385 C3.24099052,4.28525431 2.85044546,3.53852496 2.49987568,2.79202019 C2.44799764,2.68130213 1.1620511,3.23354497 1.19079738,3.32854242" id="Fill-9" fill="#00539B"/>
                            <path d="M19.831121,21.9581198 C20.1143658,22.5160039 20.0398665,22.5654242 19.9533195,22.7965441 C19.8916056,22.9612785 19.7123647,23.2526371 19.469443,23.7436439 C19.4015822,23.8810865 19.4603457,24.0807347 19.6339315,24.4606073 C19.7062179,24.6187032 19.8761156,24.6641895 19.8874258,24.7042667 C19.9474186,24.9159627 20.0642079,25.0669282 20.3036874,24.9816106 C21.4027363,24.5896902 21.5391954,24.6135398 21.6960618,24.3138216 C21.967013,23.7965064 22.0319233,23.649229 22.0026645,23.5012139 C21.9448845,23.2091177 21.6527883,22.6556593 21.1706329,21.4258065 C21.1706329,21.4258065 20.1455916,21.8324791 19.831121,21.9581198" id="Fill-11" fill="#AD6C3C"/>
                            <path d="M9.70658288,19.4983646 L15.1699467,17.1515009 C15.05047,16.485845 16.0965649,15.468721 15.2146382,13.4158329 L14.3946957,11.5064516 L7.53870968,14.4515971 L9.70658288,19.4983646 Z" id="Fill-13" fill="#5A4170"/>
                            <path d="M15.7240355,15.9170429 C16.1990227,16.2943378 16.4918754,16.1539751 16.8119023,16.5234096 C17.1224968,16.8818397 17.444994,17.6514762 17.5628986,17.5425548 C17.8458698,17.2811434 19.4721831,15.9305992 19.3926817,15.8295381 C18.6039559,14.8263381 18.0476706,13.5354508 17.5960397,13.0005006 C16.639777,11.8679424 15.7731218,11.3498357 15.4892523,11.1831972 C15.3439489,11.0978567 15.3518092,11.0753986 15.2410911,11.1775827 C14.6960349,11.6813162 14.4323776,12.1194723 13.8870968,12.6232058 C14.3838683,13.937674 14.6296559,15.0481419 15.7240355,15.9170429 Z" id="Fill-15" fill="#005AA8"/>
                            <path d="M7.84176781,12.3579488 C7.50444827,10.9848651 7.08875022,10.0930569 6.10935573,9.09749263 C5.6842253,8.66540022 5.47177238,8.66292983 5.19890737,8.25643957 C4.93412725,7.86185206 4.70527997,7.05426147 4.57614633,7.14970808 C4.26645015,7.3792291 2.71280395,8.40713292 2.77950429,8.51740183 C3.4413423,9.61223057 3.78899253,10.7409709 4.34033706,11.654788 C5.61303336,13.7640457 6.92817533,14.9412954 7.18891301,15.1404981 C7.32253826,15.2426821 7.31220757,15.2640173 7.43325633,15.1744097 C8.03019064,14.7324358 7.24483349,12.7999227 7.84176781,12.3579488" id="Fill-17" fill="#005AA8"/>
                            <path d="M20.1219981,16.9623995 C19.8329108,16.3341543 19.4750944,15.9985391 19.348973,15.8806841 C19.2563895,15.7942413 17.6613154,16.2984051 17.308695,16.843278 C16.9891402,17.3368992 17.9259694,18.3427966 18.2122224,18.8312219 C18.6319186,19.5473269 18.5830335,19.5115163 19.0416997,20.2599784 C19.4656472,20.9512843 19.63668,21.8461058 20.0155166,22.5811055 C20.1059744,22.7568252 21.6439575,22.2193476 21.618686,22.1182616 C20.6349863,19.4704206 20.8270026,18.4942786 20.1219981,16.9623995 Z" id="Fill-19" fill="#00539B"/>
                            <path d="M10.874743,23.2613994 C10.9234769,23.3815498 16.2633216,21.1370947 16.1871889,20.9794394 C13.5602737,15.5477414 17.0760931,16.3390168 13.9425248,12.6967742 C11.6708955,13.6847027 7.06608647,14.8814117 6.74516129,15.019304 C7.60058748,18.864118 8.13890635,16.5031058 10.874743,23.2613994 Z" id="Fill-21" fill="#005AA8"/>
                            <path d="M13.438894,15.0354585 L7.98136925,15.8354134 C7.09068396,15.9542163 6.528335,15.2780052 5.9516129,13.3297715 L7.02286072,11.6043214 L10.5141854,10.5067977 L12.7525768,10.316129 L14.009777,13.2428589 C14.264451,13.8357508 14.1840513,14.8849897 13.438894,15.0354585" id="Fill-23" fill="#005AA8"/>
                            <path d="M12.7007842,12.0311245 C13.3547619,12.7401244 14.5787243,13.0168073 15.4345997,12.6491694 C16.2902504,12.2815315 16.4539694,11.4088127 15.7997672,10.6998128 C15.1457895,9.99103751 13.9218271,9.71435464 13.0661763,10.0819925 C12.2103009,10.4494058 12.0468065,11.3221247 12.7007842,12.0311245" id="Fill-25" fill="#005AA8"/>
                            <path d="M8.72634236,11.9484509 C9.12811644,13.1018951 8.77799582,13.9117315 8.10897124,14.1991942 C7.43972208,14.4866569 6.56857527,14.0426618 6.14187279,12.8995483 C5.68193243,11.667501 6.11806728,10.6678943 6.78709186,10.3804316 C7.45634102,10.0931934 8.32456828,10.7952313 8.72634236,11.9484509" id="Fill-27" fill="#005AA8"/>
                            <path d="M10.9916042,22.1407946 L14.1867075,20.7683847 L12.6083575,17.1158114 C12.3541326,16.5283095 11.7077906,16.1593241 11.1454417,16.2963181 L9.88869057,16.602421 C9.2524547,16.7573813 8.94792388,17.4216897 9.23336538,18.080159 L10.9916042,22.1407946 Z" id="Fill-29" fill="#005AA8"/>
                            <path d="M21.069025,37.174416 C20.5851041,36.523098 20.0947538,35.8765356 19.5936879,35.2359696 C19.1230545,34.6342758 18.403174,33.9223749 17.9794753,33.2933878 C17.3751101,32.3962231 16.9833243,32.0588 16.7816549,31.6591182 C16.5799855,31.2596432 15.590333,30.6275111 14.0852063,28.3410748 C13.2770285,27.1134955 11.912063,23.8629018 11.9032762,22.9454739 C11.8919175,21.7691729 13.8048837,22.0764296 14.8670235,22.7484243 C15.3301559,23.0416208 15.7274939,23.5105698 16.0736109,23.926793 C16.525599,24.470385 16.8132083,25.0983383 17.0823866,25.7368367 C17.7947661,27.4250943 18.672769,29.8729534 18.827718,30.1938567 C18.9828813,30.5149668 19.7578523,31.1698844 20.0523197,31.5168405 C20.8821432,32.4946445 20.8124912,33.0117703 20.9991586,33.6469604 C21.2432622,34.4771324 22.1191632,35.9015545 22.9406285,37.2296229 C23.1099365,37.5031765 23.285031,37.773215 23.4614114,38.0430467 C23.5970721,38.2469196 23.6757253,38.4592699 23.6020013,38.6945715 C23.4228349,39.2656636 22.5604356,39.3500248 22.221391,38.8306246 C21.8259818,38.2855851 21.4723638,37.7157336 21.069025,37.174416 Z" id="Fill-31" fill="#00539B"/>
                            <path d="M11.1096774,23.363544 L16.544295,21.0290323 C16.7529301,21.5152485 17.4294459,22.1375659 18.0757879,23.6427028 C18.2911603,24.1435168 18.0679499,24.6362206 18.0679499,24.6362206 L15.347956,25.7438701 L12.0455033,25.7202892 L11.1096774,23.363544 Z" id="Fill-33" fill="#105A87"/>
                            <polygon id="Fill-35" fill="#FFCC33" points="10.9130633 23.3298245 16.5266941 20.9599438 15.8845772 19.4419355 10.316129 21.9401219"/>
                            <path d="M11.9126632,26.621808 C11.7550078,26.2193601 11.5648008,25.5394932 11.4484682,25.1749995 C11.2077182,24.4213081 10.8925411,23.3581596 10.8925411,23.3581596 L16.4608701,20.9324826 C16.6421063,21.3542443 17.2245901,21.8941326 17.9596412,23.008949 C18.1357122,23.2759749 18.1325054,23.5499208 18.2580457,23.8544516 C17.6575181,24.0020008 16.0160822,24.4046981 15.1319098,25.8094476 C14.7523692,26.4124455 15.1979364,26.8604832 15.0245604,27.0147698 C14.1332014,27.6373063 13.9598239,27.5541397 13.2137683,26.9024078 C13.2137683,26.9024078 12.3164585,26.5432049 11.9126632,26.621808 Z" id="Fill-39" fill="#00539B"/>
                            <path d="M21.4235608,32.733871 C22.5582081,34.4346618 21.6020775,34.4179667 23.6071507,37.6312525 C23.9163149,38.1268234 24.4115212,38.9224842 24.4115212,38.9224842 C24.4115212,38.9224842 23.1071366,39.8288823 23.0444258,39.7012384 C22.8644458,39.3358473 22.3970414,38.7846964 21.9043436,38.0807533 C21.2609308,37.161464 18.8904627,34.1109029 18.8904627,34.1109029 L18.8467742,33.8693517 L19.5677393,34.3911276 L19.8125204,33.2605075 C19.8125204,33.2605075 20.8570733,32.7697972 21.4235608,32.733871" id="Fill-45" fill="#00254B"/>
                            <path d="M23.1348843,41.3029569 C22.8670074,40.9046938 21.9269044,37.9183704 21.8421053,37.7795218 C21.6033934,37.3881765 23.6324049,38.4597737 23.6324049,38.4597737 C23.6652462,38.5072095 23.7799456,38.6811407 24.1497774,38.6808937 C24.5004927,38.6806466 24.8097889,38.9949088 24.8097889,38.9949088 C24.8097889,38.9949088 24.9127242,39.0895333 24.8717951,39.9376953 C24.8438555,40.5168073 25.0009544,40.6927151 25.0975176,41.1653437 C25.2237359,41.7812679 25.2092759,42.0060938 25.2129522,42.2494493 C25.2166284,42.4928049 25.0972725,43.1060114 24.9730149,43.3108253 C24.8911568,43.445968 24.3828524,43.4627681 24.3502562,43.1571531 C24.2728096,42.4285689 23.4027612,41.70122 23.1348843,41.3029569 Z" id="Fill-47" fill="#00254B"/>
                            <path d="M10.8149218,11.0823969 L11.6923568,10.9972809 C12.0146295,10.9658397 12.2057473,10.6516519 12.0802069,10.3590239 L12.0615668,10.316129 L10.316129,10.4793989 L10.4944458,10.8941986 C10.5460992,11.0145736 10.6824194,11.0951979 10.8149218,11.0823969" id="Fill-49" fill="#AD6C3C"/>
                            <path d="M12.2966646,32.969018 C11.8783052,32.3606031 11.159994,31.9235689 10.7260961,31.3250223 C10.318358,30.7627225 7.79923042,28.4923235 7.31544827,26.0655275 C6.90476356,24.0054101 12.9029099,23.0704023 14.2183982,22.1132225 C15.0334189,21.5201946 16.3168824,20.7060497 17.0161149,21.4746336 C17.3457671,21.8369119 18.4279562,23.7256642 18.3446638,24.7675427 C17.6306456,26.6689099 12.6209072,26.8602851 11.0760246,27.0876552 C10.8199286,27.1253464 11.102167,27.4217395 11.4290656,27.7227208 C11.8533256,28.1132753 12.1680294,28.5387482 12.2482789,29.1232516 C12.356655,29.9129004 13.2858179,31.790143 13.9889842,33.0303149 C14.133748,33.2857505 14.3497471,33.635069 14.5011983,33.8870886 C14.6178354,34.0774318 14.6168183,34.178067 14.5428629,34.3966864 C14.363285,34.9271042 13.5802627,35.001116 13.2891617,34.5160542 C12.9479047,34.006891 12.645199,33.4747652 12.2966646,32.969018 Z" id="Fill-37-Copy" fill="#005AA8"/>
                            <path d="M14.797023,33.7827528 C15.2257468,34.5865256 15.3945584,35.2816514 15.3945584,35.2816514 C15.3945584,35.2816514 14.0297842,36.370641 13.9556727,36.2370158 C13.7456902,35.8581489 13.2511645,35.1594797 12.7685415,34.387822 C12.0561729,33.2492001 9.64822344,30.0889067 9.64822344,30.0889067 L9.58870968,29.8376014 L10.5121837,30.3283093 L10.8097525,29.111758 C10.8097525,29.111758 11.8416988,28.8011636 12.4431247,28.766129 C13.6691083,30.7082991 13.5818193,31.5048353 14.797023,33.7827528 Z" id="Fill-41-Copy" fill="#00254B"/>
                            <path d="M13.9124269,37.6586985 C13.6669607,37.2964506 13.3743326,36.6285489 13.2966278,36.5023348 C13.0778867,36.1465997 13.9010472,35.0966057 13.9010472,35.0966057 C13.9311409,35.1397251 14.483601,35.0793144 14.8570006,35.2243874 C15.2304002,35.3694604 15.4905523,35.5420296 15.4905523,35.5420296 C15.4905523,35.5420296 15.584876,35.6280439 15.5473711,36.3990279 C15.521769,36.925444 15.6223809,37.1039853 15.7108656,37.5336073 C15.8265244,38.0934859 15.8132742,38.2978539 15.8166429,38.5190655 C15.8200116,38.740277 15.710641,39.2976852 15.5967788,39.4838623 C15.521769,39.6067077 15.0559895,39.6219791 15.0261204,39.3441733 C14.955153,38.6818862 14.1578931,38.0207219 13.9124269,37.6586985 Z" id="Fill-43-Copy" fill="#00254B" transform="translate(14.538184, 37.332291) rotate(-325.000000) translate(-14.538184, -37.332291) "/>
                            <g id="Group-2" transform="translate(6.745161, 4.761290)">
                                <path d="M4.26983126,5.81963202 L4.09030313,5.41295988 C4.09030313,5.41295988 3.89077116,5.39890268 3.94445235,5.1939636 C3.98952429,5.02182463 4.02269522,4.85856389 4.02269522,4.85856389 C4.02269522,4.85856389 4.96211604,2.94062012 4.84032051,1.80815287 C4.82132953,1.63206802 4.19690587,1.32256314 4.19690587,1.32256314 C4.19690587,1.32256314 4.47847891,0.835986947 4.08068103,0.608359057 C3.68338958,0.380731167 3.03744281,0.049523955 2.48012064,0.00537943452 C1.92279848,-0.0390117033 1.02566425,0.199713971 0.938305711,0.412791433 C0.838792939,0.655956222 0.652934479,1.1861837 0.819801952,1.33686695 C0.740799446,1.48681035 0.658758382,1.60839275 0.532151801,2.01753107 C0.488852351,2.15736315 0.521516849,2.45256422 0.477964185,2.59880836 C0.401493811,2.85677019 0.268050475,2.92557645 0.234373125,3.08193191 C0.129542876,3.56604193 0.00192344359,4.95696425 0.00192344359,4.95696425 C-0.0127629197,5.14710629 0.0538321415,5.20900726 0.299448907,5.29630983 C0.391112071,5.32910995 0.814990902,5.43145619 0.814990902,5.43145619 L0.995278672,6.16662275 C1.00692648,6.22038535 0.991480474,6.29289088 0.799038473,6.33974819 C0.718516688,6.35947758 0.673191532,6.44258766 0.706109243,6.51706612 L0.822587296,6.78119339 C0.887156652,6.92768415 1.0476938,6.97404823 1.21177592,6.9326165 L4.11435838,6.19868302 C4.264767,6.13579557 4.33440062,5.96612278 4.26983126,5.81963202" id="Fill-53" fill="#D28C5C"/>
                                <path d="M4.05619004,5.69725624 C4.11737802,5.83557564 4.05164874,5.99601683 3.90967351,6.05539637 L1.63149267,6.90506613 C1.62121501,6.77303398 1.52453745,6.38000453 1.61249517,6.23935652 C1.78912765,5.95689619 2.12255433,5.96621063 2.29392847,5.28439379 C2.37352064,4.96770291 1.49274838,5.46765535 1.26305445,5.16586757 C0.944207719,4.7471836 1.92202029,4.58907102 2.4390109,2.53151173 C2.50019888,2.28793918 2.55756261,2.05996832 2.69882079,1.497842 L4.59803826,1.95075653 C4.68121567,2.95741439 3.92759968,4.57114072 3.83271051,4.76953825 C3.8264961,4.78281132 3.82291087,4.79003001 3.82291087,4.79003001 C3.82291087,4.79003001 3.79183885,4.94395109 3.74905507,5.10648803 C3.69838378,5.29999547 3.88696704,5.31326855 3.88696704,5.31326855 L4.05619004,5.69725624 Z" id="Fill-55" fill="#AD6C3C"/>
                                <path d="M0.906987883,0.416544745 C1.01283098,0.176334284 1.89654491,-0.0385000968 2.45386708,0.00584644973 C3.01118925,0.0499466266 3.65890851,0.381313877 4.05645317,0.608713113 C4.45399783,0.836112349 4.17799549,1.32515621 4.17799549,1.32515621 C4.17799549,1.32515621 4.80267236,1.6382921 4.82166334,1.81420007 C4.94345887,2.94552975 4.03720897,4.73417379 4.00732982,4.86253241 L3.73031462,4.79650533 C3.67916556,4.78418684 3.64650107,4.73614475 3.65586995,4.68563896 C3.74044315,4.23231871 3.85286979,3.65088621 3.79412434,3.48409392 C3.75158453,3.36263366 3.67587379,3.33159107 3.62193939,3.30867869 C3.57357568,3.28823 3.51736235,3.30251945 3.48571071,3.34341682 L3.08563392,3.86177867 L2.88559552,3.81398295 L2.91066362,2.60135127 C2.91142326,2.56119301 2.90610578,2.52103475 2.89521762,2.48235471 L2.69923063,1.79547597 L0.793548387,1.34166298 C0.793548387,1.34166298 0.801144782,0.656755205 0.906987883,0.416544745" id="Fill-57" fill="#512E11"/>
                                <path d="M1.83508527,0.361331256 L1.86243229,2.30926389e-13 L0.962006294,0.109531614 C0.870089916,0.121838537 0.780958884,0.186572951 0.718668446,0.285520611 L0.438867904,0.894713294 C0.395062027,0.964124339 0.384427075,1.05421101 0.411774096,1.12263751 L0.599658261,1.38132902 C0.647262335,1.44187909 0.671824012,1.46157016 0.720187725,1.48126124 L0.828562958,1.52507388 C0.828562958,1.52507388 0.8640128,1.4522169 0.890600182,1.4010201 C0.917187564,1.35006944 0.937444617,1.30921046 0.957954883,1.27598176 L1.24130041,1.34219301 L1.83508527,0.361331256 Z" id="Fill-59" fill="#512E11"/>
                                <path d="M1.03973722,3.17419355 L0.422909961,3.87579528 C0.378597658,3.92615656 0.392271168,4.00367343 0.451523048,4.03675388 L0.924272018,4.30040998 L0.854131973,3.94615295 L1.03973722,3.17419355 Z" id="Fill-61" fill="#7F614C"/>
                            </g>
                            <path d="M16.7210945,7.71034389 C18.8195724,8.00656525 21.5351598,12.0049598 25.1657242,19.5275 C26.8559152,23.0296045 29.9230078,25.960826 31.5541342,29.3443521 C30.9293519,30.2875892 29.113396,31.3516505 29.113396,31.3516505 C27.2338838,27.9683489 24.5541922,26.0295476 22.6032635,18.5204822 C21.271278,13.393315 17.577382,11.0370189 16.1890269,10.7809974 C14.8004472,10.5252005 10.5477942,8.52453525 10.5477942,8.52453525 C10.5477942,8.52453525 14.2745172,7.36493946 16.7210945,7.71034389 Z" id="Fill-3" fill="#ED1C24" transform="translate(21.050964, 19.498868) rotate(-15.000000) translate(-21.050964, -19.498868) "/>
                        </g>
                    </g>
                </g>
            </g>
        </g>
    </g>
</svg>