<svg xmlns="http://www.w3.org/2000/svg" xmlns:xlink="http://www.w3.org/1999/xlink" width="50" height="50" viewBox="0 0 50 50" version="1.1">
    <!-- Generator: Sketch 44 (41411) - http://www.bohemiancoding.com/sketch -->
    <title>Icon/Colour/TrustedExperts</title>
    <desc>Created with Sketch.</desc>
    <defs>
        <path d="M1.07989298,0.017263235 C0.521351007,0.017263235 0.0918849606,0.426480014 0.0918849606,0.913515483 L0.0918849606,15.7054348 C0.0918849606,16.2122115 0.542863661,16.6019417 1.07989298,16.6019417 L14.1383367,16.6019417 C14.6752349,16.6019417 15.1262136,16.192725 15.1262136,15.7054348 L15.1262136,0.913515483 C15.1262136,0.4069935 14.6752349,0.017263235 14.1383367,0.017263235 L1.07989298,0.017263235 Z" id="path-1"/>
        <path d="M2.63041583,0.894902877 C2.63041583,1.15064935 2.43133175,1.10136655 2.56150211,1.29307199 C1.12879282,1.52737864 0.706122,2.87920132 0.0114160103,3.81656714 L7.78919949,3.81656714 C7.07291445,2.87920132 6.65010441,1.52737864 5.21739513,1.29307199 C5.34756549,1.10136655 5.14848141,1.12934875 5.14848141,0.894902877 C5.14848141,0.213283533 4.584085,0.0282606347 3.88951823,0.0282606347 C3.19481224,0.0282606347 2.63041583,0.213283533 2.63041583,0.894902877 Z" id="path-3"/>
    </defs>
    <g id="Approved" stroke="none" stroke-width="1" fill="none" fill-rule="evenodd">
        <g id="Icon/Colour/TrustedExperts">
            <g id="TrustedExperts">
                <g id="Group-3" transform="translate(11.296953, 0.000000)" fill-rule="nonzero">
                    <path d="M13.0034125,0 C0.884559171,0 2.22824778,14.7715462 2.28354057,25.4762249 C2.28560484,25.8804288 2.49689703,26.2450251 2.84236641,26.4537037 C4.18531778,27.2652151 7.87342083,29.1622392 13.0034125,29.1622392 C18.1334042,29.1622392 21.8215072,27.2652151 23.1644586,26.4537037 C23.509928,26.2450251 23.7212202,25.8804288 23.7232844,25.4762249 C23.7785772,14.7718418 25.1222658,0 13.0034125,0 Z" id="Shape" fill="#694B4B"/>
                    <path d="M12.221752,0 C0.950721489,0.633425183 2.22864853,14.979338 2.28276175,25.4456325 C2.28482601,25.8498364 2.49611821,26.2144327 2.84158758,26.4231113 C4.18453895,27.2346227 7.87264201,29.1316468 13.0026337,29.1316468 L16.0652647,7.64366553" id="Shape" fill="#5A4146"/>
                    <path d="M13.2723362,0 C6.38152704,0 5.90291262,8.34566497 5.90291262,8.34566497 C9.87470457,7.67411014 12.3152548,9.35284944 16.3349671,7.67411014 L13.2723362,29.1622392 C18.4024753,29.1622392 22.0904309,27.2652151 23.4333822,26.4537037 C23.7788516,26.2450251 23.9901438,25.8804288 23.9922081,25.4762249 C24.0475009,14.7718418 25.3911895,0 13.2723362,0 Z" id="Shape" fill="#694B4B"/>
                    <path d="M23.8649236,25.3802614 C23.9124017,16.1819996 24.9031011,3.9895255 17.4938667,0.737864078 C17.3647028,1.41074902 17.1305562,3.28915174 17.7389244,4.50856172 C19.2703136,7.57829445 20.8015554,7.57829445 22.3327971,9.88055705 C23.8641863,18.3222851 19.4069974,27.2821626 17.9264775,28.5018682 L17.9264775,28.5018682 C20.5494202,27.8765714 22.4295227,26.8872695 23.3059503,26.3577402 C23.6515671,26.1490617 23.8628593,25.7846131 23.8649236,25.3802614 Z" id="Shape" fill="#785550"/>
                    <path d="M24.6187109,27.891529 L17.7867333,25.0383077 C17.2161117,24.8000713 16.8443966,24.2411319 16.8443966,23.6214511 L16.8443966,21.7669903 L9.18789293,21.7669903 L9.18789293,23.6214511 C9.18789293,24.2411319 8.81617791,24.8000713 8.24555628,25.0383077 L1.4135787,27.891529 C0.557646254,28.2490315 0,29.0871449 0,30.01674 L0,33.0864727 C0,33.3344337 0.0586614042,37.385201 0.162832924,37.5925162 C0.414799048,38.0939622 0.933018012,38.4379513 1.53138921,38.4379513 L24.5007529,38.4379513 C25.3465115,38.4379513 26.0321421,33.9341925 26.0321421,33.0864727 L26.0321421,30.01674 C26.0321421,29.0871449 25.4746433,28.2490315 24.6187109,27.891529 Z" id="Shape" fill="#E6AF78"/>
                    <path d="M24.6185634,27.8461626 L18.0129177,25.0873786 L13.0160711,27.2489458 L8.01922444,25.0873786 L1.4135787,27.8461626 C0.557646254,28.203665 -1.75744551e-14,29.0417785 -1.75744551e-14,29.9713735 L-2.84217094e-14,36.8576446 C-2.84217094e-14,37.7053643 0.685630641,38.3925848 1.53138921,38.3925848 L24.5007529,38.3925848 C25.3465115,38.3925848 26.0321421,33.888826 26.0321421,33.0411062 L26.0321421,29.9713735 C26.0319947,29.0417785 25.4744959,28.203665 24.6185634,27.8461626 Z" id="Shape" fill="#B4E1FA"/>
                    <path d="M17.0444109,21.7669903 L9.38790717,21.7669903 L9.38790717,23.6214511 C9.38790717,24.2411319 9.01619215,24.8000713 8.44557052,25.0383077 L7.37864078,25.4840404 C15.5441331,27.5709739 17.0444109,21.7669903 17.0444109,21.7669903 Z" id="Shape" fill="#D29B6E"/>
                    <g id="Group" transform="translate(0.000000, 23.794086)" fill="#A0D2F0">
                        <path d="M3.73189495,6.87738421 L0.658647757,4.42718447 C0.246827031,4.84927087 0,5.42003336 0,6.03380256 L3.72874368e-15,13.0350421 C3.72874368e-15,13.8827619 0.685630641,14.4550139 1.53138921,14.4550139 L4.59402019,14.4550139 L4.59402019,8.67538952 C4.59387274,7.97575471 4.27671328,7.31424955 3.73189495,6.87738421 Z" id="Shape"/>
                        <path d="M26.3607156,12.9104673 L26.3607156,6.02419625 C26.3607156,5.41515632 26.1180171,4.84823634 25.7120943,4.42718447 L22.6289681,6.8677779 C22.0841498,7.30464324 21.7669903,7.9661484 21.7669903,8.66548764 L21.7669903,14.4454076 L24.8296213,14.4454076 C25.6752324,14.4454076 26.3607156,13.7581871 26.3607156,12.9104673 Z" id="Shape"/>
                        <path d="M13.4242455,9.11062756 L13.1945224,9.11062756 C12.8350455,9.11062756 12.5436893,8.81859579 12.5436893,8.45828534 L12.5436893,3.32038835 L14.0750785,3.32038835 L14.0750785,8.45828534 C14.0749311,8.81859579 13.7835749,9.11062756 13.4242455,9.11062756 Z" id="Shape"/>
                        <path d="M13.1349707,3.41711558 L8.75283249,0.12289082 C8.47150275,-0.0885957497 8.07074059,-0.0198736988 7.87566761,0.273340385 L7.00970874,1.57521683 L9.69634872,5.34532332 C9.90056343,5.63188688 10.303095,5.68789905 10.5773472,5.46798848 L13.1349707,3.41711558 Z" id="Shape"/>
                        <path d="M13.2815534,3.41711558 L17.6636916,0.12289082 C17.9450213,-0.0885957497 18.3457835,-0.0198736988 18.5408565,0.273340385 L19.4068153,1.57521683 L16.7201754,5.34532332 C16.5159607,5.63188688 16.1134291,5.68789905 15.8391769,5.46798848 L13.2815534,3.41711558 Z" id="Shape"/>
                    </g>
                    <path d="M16.8751961,7.00970874 C13.0470179,10.8467638 5.53398058,7.77717887 5.53398058,13.9164965 L6.00935116,18.4388509 C6.10106347,19.450469 6.68613495,20.3510973 7.57199923,20.8444182 L11.9314305,23.2718584 C12.6251708,23.6581798 13.4685702,23.6581798 14.1623104,23.2718584 L18.5217417,20.8444182 C19.407606,20.3510973 19.9926775,19.450469 20.0843898,18.4388509 L20.6331892,13.06789 C20.6722628,12.6861501 20.6805198,12.3020456 20.6676919,11.9189756 C20.381349,9.96549587 17.6407432,8.54450121 16.8751961,7.00970874 Z" id="Shape" fill="#EAB577"/>
                    <path d="M5.53398058,13.9166443 L6.00935116,18.4389986 C6.10106347,19.4506168 6.68613495,20.3512451 7.57199923,20.844566 L11.9314305,23.2720062 C12.4128464,23.5400961 12.9648897,23.6094093 13.4903924,23.5055134 L13.4903924,23.5055134 C13.4903924,23.5055134 11.2925407,22.8378011 9.98438695,19.2886397 C9.58362479,18.2013534 9.02745301,12.4456969 9.50591998,11.7422195 C10.4517954,10.3518173 15.7267279,10.2072793 17.2853949,7.62791162 C17.2084273,7.53214411 17.1373576,7.43622882 17.0724807,7.34016574 C17.0673201,7.33248069 17.0609798,7.32464786 17.0556717,7.31681502 C16.9879934,7.21469258 16.9266552,7.11242234 16.8751961,7.00970874 C13.0470179,10.8470594 5.53398058,7.77717887 5.53398058,13.9166443 Z" id="Shape" fill="#D99F65"/>
                    <path d="M18.7874997,33.2038835 L16.7968117,33.2038835 C16.0780054,33.2038835 15.4951456,33.7880948 15.4951456,34.5085679 L15.4951456,34.7388238 L20.0890184,34.7388238 L20.0890184,34.5085679 C20.0891658,33.7880948 19.506306,33.2038835 18.7874997,33.2038835 Z" id="Shape" fill="#A0D2F0"/>
                </g>
                <g id="Page-1" transform="translate(0.000000, 22.456311)">
                    <g id="Group-3" transform="translate(0.000000, 2.748196)">
                        <mask id="mask-2" fill="white">
                            <use xlink:href="#path-1"/>
                        </mask>
                        <g id="Clip-2"/>
                        <polygon id="Fill-1" fill="#00539B" mask="url(#mask-2)" points="-2.4572266 20.326067 17.859652 20.326067 17.859652 -2.1630555 -2.4572266 -2.1630555"/>
                    </g>
                    <polygon id="Fill-4" fill="#FFFFFF" points="1.10679612 3.68932039 1.10679612 17.9691778 11.6254787 17.9691778 11.9829742 15.9696135 14.0184513 15.60044 14.0184513 3.68932039"/>
                    <polygon id="Fill-5" fill="#D8D8D8" points="11.6352213 15.6215356 11.6352213 17.9105369 14.084449 15.6215356"/>
                    <g id="Group-8" transform="translate(3.807657, 0.096062)">
                        <mask id="mask-4" fill="white">
                            <use xlink:href="#path-3"/>
                        </mask>
                        <g id="Clip-7"/>
                        <polygon id="Fill-6" fill="#FFD05B" mask="url(#mask-4)" points="-2.16876351 5.62795384 9.96937901 5.62795384 9.96937901 -3.15193259 -2.16876351 -3.15193259"/>
                    </g>
                    <polygon id="Fill-9" fill="#5A5A5A" points="5.16504854 7.37864078 13.2815534 7.37864078 13.2815534 6.6407767 5.16504854 6.6407767"/>
                    <polygon id="Fill-10" fill="#5A5A5A" points="5.16504854 10.6990291 13.2815534 10.6990291 13.2815534 9.96116505 5.16504854 9.96116505"/>
                    <polygon id="Fill-11" fill="#5A5A5A" points="5.16504854 14.0194175 13.2815534 14.0194175 13.2815534 13.2815534 5.16504854 13.2815534"/>
                    <polygon id="Fill-14" fill="#47A60E" points="3.67856951 6.27184466 2.68875462 7.26165955 2.19392932 6.76666996 1.84466019 7.11610337 2.34408547 7.61552864 2.68875462 7.96019779 3.03408091 7.61503579 4.02783863 6.62111378"/>
                    <polygon id="Fill-15" fill="#47A60E" points="3.67856951 9.59223301 2.68875462 10.5820479 2.19392932 10.0870583 1.84466019 10.4364917 2.34408547 10.935917 2.68875462 11.2805861 3.03408091 10.9354241 4.02783863 9.94150213"/>
                    <polygon id="Fill-16" fill="#47A60E" points="3.67856951 12.9126214 2.68875462 13.9024362 2.19392932 13.4074467 1.84466019 13.7568801 2.34408547 14.2563053 2.68875462 14.6009745 3.03408091 14.2558125 4.02783863 13.2618905"/>
                </g>
            </g>
        </g>
    </g>
</svg>