<svg xmlns="http://www.w3.org/2000/svg" xmlns:xlink="http://www.w3.org/1999/xlink" width="50" height="50" viewBox="0 0 50 50" version="1.1">
    <!-- Generator: Sketch 44 (41411) - http://www.bohemiancoding.com/sketch -->
    <title>Icon/Colour/AdditionalLivingExpenses</title>
    <desc>Created with Sketch.</desc>
    <defs/>
    <g id="Approved" stroke="none" stroke-width="1" fill="none" fill-rule="evenodd">
        <g id="Icon/Colour/AdditionalLivingExpenses" fill-rule="nonzero">
            <g id="building">
                <g id="Group" transform="translate(2.373016, 7.955393)" fill="#005AA8">
                    <path d="M0.792039683,3.17411053 C0.354857143,3.17411053 0,2.81858674 0,2.3805829 L0,0.793527633 C0,0.355523789 0.354857143,0 0.792039683,0 C1.22922222,0 1.58407937,0.355523789 1.58407937,0.793527633 L1.58407937,2.3805829 C1.58407937,2.81867819 1.22931349,3.17411053 0.792039683,3.17411053" id="Shape"/>
                    <path d="M5.39203968,3.17411053 C4.95485714,3.17411053 4.6,2.81858674 4.6,2.3805829 L4.6,0.793527633 C4.6,0.355523789 4.95485714,0 5.39203968,0 C5.82922222,0 6.18407937,0.355523789 6.18407937,0.793527633 L6.18407937,2.3805829 C6.18407937,2.81867819 5.82922222,3.17411053 5.39203968,3.17411053" id="Shape"/>
                </g>
                <g id="Group" transform="translate(19.714286, 0.000000)" fill="#005AA8">
                    <path d="M0.792039683,3.17411053 C0.354857143,3.17411053 0,2.81858674 0,2.3805829 L0,0.793527633 C0,0.355523789 0.354857143,0 0.792039683,0 C1.22922222,0 1.58407937,0.355523789 1.58407937,0.793527633 L1.58407937,2.3805829 C1.58407937,2.81858674 1.22922222,3.17411053 0.792039683,3.17411053" id="Shape"/>
                    <path d="M5.39203968,3.17411053 C4.95485714,3.17411053 4.6,2.81858674 4.6,2.3805829 L4.6,0.793527633 C4.6,0.355523789 4.95485714,0 5.39203968,0 C5.82922222,0 6.18407937,0.355523789 6.18407937,0.793527633 L6.18407937,2.3805829 C6.18407937,2.81858674 5.82931349,3.17411053 5.39203968,3.17411053" id="Shape"/>
                </g>
                <g id="Group" transform="translate(12.595238, 1.645943)" fill="#005AA8">
                    <path d="M25.1720397,9.61411053 C24.7340357,9.61411053 24.38,9.25858674 24.38,8.8205829 L24.38,7.23352763 C24.38,6.79552379 24.7340357,6.44 25.1720397,6.44 C25.6100437,6.44 25.9640794,6.79552379 25.9640794,7.23352763 L25.9640794,8.8205829 C25.9640794,9.25867819 25.6100437,9.61411053 25.1720397,9.61411053" id="Shape"/>
                    <path d="M29.7720397,9.61411053 C29.3340357,9.61411053 28.98,9.25858674 28.98,8.8205829 L28.98,7.23352763 C28.98,6.79552379 29.3340357,6.44 29.7720397,6.44 C30.2100437,6.44 30.5640794,6.79552379 30.5640794,7.23352763 L30.5640794,8.8205829 C30.5640794,9.25867819 30.2100437,9.61411053 29.7720397,9.61411053" id="Shape"/>
                    <polygon id="Shape" points="0 42.8503093 20.5930317 42.8503093 20.5930317 0 0 0"/>
                </g>
                <polygon id="Shape" fill="#1B9FD6" points="0 38.2268119 12.6725437 38.2268119 12.6725437 9.66 0 9.66"/>
                <polygon id="Shape" fill="#EFEFEF" points="16.56 44.2752763 29.2326349 44.2752763 29.2326349 36.34 16.56 36.34"/>
                <polygon id="Shape" fill="#D8D8D8" points="22.08 44.2752763 23.6640794 44.2752763 23.6640794 36.34 22.08 36.34"/>
                <g id="Group" transform="translate(0.000000, 9.509896)" fill="#1B9FD6">
                    <polygon id="Shape" points="0 34.8682211 12.6725437 34.8682211 12.6725437 28.52 0 28.52"/>
                    <polygon id="Shape" points="33.12 28.5668119 45.7925437 28.5668119 45.7925437 0 33.12 0"/>
                    <polygon id="Shape" points="33.12 34.8682211 45.7925437 34.8682211 45.7925437 28.52 33.12 28.52"/>
                </g>
                <g id="Group" transform="translate(4.746032, 7.132422)">
                    <path d="M14.796119,0 L13.2120397,0 C12.7748571,0 12.42,0.355523789 12.42,0.793527633 L12.42,2.3805829 C12.42,2.81858674 12.7748571,3.17411053 13.2120397,3.17411053 L14.796119,3.17411053 C15.2333016,3.17411053 15.5881587,2.81858674 15.5881587,2.3805829 L15.5881587,0.793527633 C15.5881587,0.355523789 15.2333016,0 14.796119,0" id="Shape" fill="#FFCC33"/>
                    <path d="M22.616119,0 L21.0320397,0 C20.5948571,0 20.24,0.355523789 20.24,0.793527633 L20.24,2.3805829 C20.24,2.81858674 20.5948571,3.17411053 21.0320397,3.17411053 L22.616119,3.17411053 C23.0533016,3.17411053 23.4081587,2.81858674 23.4081587,2.3805829 L23.4081587,0.793527633 C23.4081587,0.355523789 23.0533929,0 22.616119,0" id="Shape" fill="#FFCC33"/>
                    <path d="M14.796119,6.44 L13.2120397,6.44 C12.7748571,6.44 12.42,6.79552379 12.42,7.23352763 L12.42,8.8205829 C12.42,9.25858674 12.7748571,9.61411053 13.2120397,9.61411053 L14.796119,9.61411053 C15.2333016,9.61411053 15.5881587,9.25858674 15.5881587,8.8205829 L15.5881587,7.23352763 C15.5881587,6.79552379 15.2333016,6.44 14.796119,6.44" id="Shape" fill="#FFCC33"/>
                    <path d="M22.616119,6.44 L21.0320397,6.44 C20.5948571,6.44 20.24,6.79552379 20.24,7.23352763 L20.24,8.8205829 C20.24,9.25858674 20.5948571,9.61411053 21.0320397,9.61411053 L22.616119,9.61411053 C23.0533016,9.61411053 23.4081587,9.25858674 23.4081587,8.8205829 L23.4081587,7.23352763 C23.4081587,6.79552379 23.0533929,6.44 22.616119,6.44" id="Shape" fill="#FFCC33"/>
                    <path d="M14.796119,12.88 L13.2120397,12.88 C12.7748571,12.88 12.42,13.2355238 12.42,13.6735276 L12.42,15.2605829 C12.42,15.6985867 12.7748571,16.0541105 13.2120397,16.0541105 L14.796119,16.0541105 C15.2333016,16.0541105 15.5881587,15.6985867 15.5881587,15.2605829 L15.5881587,13.6735276 C15.5881587,13.2355238 15.2333016,12.88 14.796119,12.88" id="Shape" fill="#FFCC33"/>
                    <path d="M22.616119,12.88 L21.0320397,12.88 C20.5948571,12.88 20.24,13.2355238 20.24,13.6735276 L20.24,15.2605829 C20.24,15.6985867 20.5948571,16.0541105 21.0320397,16.0541105 L22.616119,16.0541105 C23.0533016,16.0541105 23.4081587,15.6985867 23.4081587,15.2605829 L23.4081587,13.6735276 C23.4081587,13.2355238 23.0533929,12.88 22.616119,12.88" id="Shape" fill="#FFCC33"/>
                    <path d="M14.796119,19.32 L13.2120397,19.32 C12.7748571,19.32 12.42,19.6755238 12.42,20.1135276 L12.42,21.7005829 C12.42,22.1385867 12.7748571,22.4941105 13.2120397,22.4941105 L14.796119,22.4941105 C15.2333016,22.4941105 15.5881587,22.1385867 15.5881587,21.7005829 L15.5881587,20.1135276 C15.5881587,19.6755238 15.2333016,19.32 14.796119,19.32" id="Shape" fill="#FFCC33"/>
                    <path d="M22.616119,19.32 L21.0320397,19.32 C20.5948571,19.32 20.24,19.6755238 20.24,20.1135276 L20.24,21.7005829 C20.24,22.1385867 20.5948571,22.4941105 21.0320397,22.4941105 L22.616119,22.4941105 C23.0533016,22.4941105 23.4081587,22.1385867 23.4081587,21.7005829 L23.4081587,20.1135276 C23.4081587,19.6755238 23.0533929,19.32 22.616119,19.32" id="Shape" fill="#FFCC33"/>
                    <path d="M35.496119,5.52 L33.9120397,5.52 C33.4748571,5.52 33.12,5.87552379 33.12,6.31352763 L33.12,7.9005829 C33.12,8.33858674 33.4748571,8.69411053 33.9120397,8.69411053 L35.496119,8.69411053 C35.9333016,8.69411053 36.2881587,8.33858674 36.2881587,7.9005829 L36.2881587,6.31352763 C36.2881587,5.87552379 35.9333016,5.52 35.496119,5.52" id="Shape" fill="#FFFFFF"/>
                    <path d="M35.496119,11.96 L33.9120397,11.96 C33.4748571,11.96 33.12,12.3155238 33.12,12.7535276 L33.12,14.3405829 C33.12,14.7785867 33.4748571,15.1341105 33.9120397,15.1341105 L35.496119,15.1341105 C35.9333016,15.1341105 36.2881587,14.7785867 36.2881587,14.3405829 L36.2881587,12.7535276 C36.2881587,12.3155238 35.9333016,11.96 35.496119,11.96" id="Shape" fill="#FFFFFF"/>
                    <path d="M35.496119,18.4 L33.9120397,18.4 C33.4748571,18.4 33.12,18.7555238 33.12,19.1935276 L33.12,20.7805829 C33.12,21.2185867 33.4748571,21.5741105 33.9120397,21.5741105 L35.496119,21.5741105 C35.9333016,21.5741105 36.2881587,21.2185867 36.2881587,20.7805829 L36.2881587,19.1935276 C36.2881587,18.7555238 35.9333016,18.4 35.496119,18.4" id="Shape" fill="#FFFFFF"/>
                    <path d="M35.496119,24.84 L33.9120397,24.84 C33.4748571,24.84 33.12,25.1955238 33.12,25.6335276 L33.12,27.2205829 C33.12,27.6585867 33.4748571,28.0141105 33.9120397,28.0141105 L35.496119,28.0141105 C35.9333016,28.0141105 36.2881587,27.6585867 36.2881587,27.2205829 L36.2881587,25.6335276 C36.2881587,25.1954323 35.9333016,24.84 35.496119,24.84" id="Shape" fill="#FFFFFF"/>
                    <path d="M2.37611905,5.52 L0.792039683,5.52 C0.354857143,5.52 0,5.87552379 0,6.31352763 L0,7.9005829 C0,8.33858674 0.354857143,8.69411053 0.792039683,8.69411053 L2.37611905,8.69411053 C2.81330159,8.69411053 3.16815873,8.33858674 3.16815873,7.9005829 L3.16815873,6.31352763 C3.16815873,5.87552379 2.81330159,5.52 2.37611905,5.52" id="Shape" fill="#FFFFFF"/>
                    <path d="M2.37611905,11.96 L0.792039683,11.96 C0.354857143,11.96 0,12.3155238 0,12.7535276 L0,14.3405829 C0,14.7785867 0.354857143,15.1341105 0.792039683,15.1341105 L2.37611905,15.1341105 C2.81330159,15.1341105 3.16815873,14.7785867 3.16815873,14.3405829 L3.16815873,12.7535276 C3.16815873,12.3155238 2.81330159,11.96 2.37611905,11.96" id="Shape" fill="#FFFFFF"/>
                    <path d="M2.37611905,18.4 L0.792039683,18.4 C0.354857143,18.4 0,18.7555238 0,19.1935276 L0,20.7805829 C0,21.2185867 0.354857143,21.5741105 0.792039683,21.5741105 L2.37611905,21.5741105 C2.81330159,21.5741105 3.16815873,21.2185867 3.16815873,20.7805829 L3.16815873,19.1935276 C3.16815873,18.7555238 2.81330159,18.4 2.37611905,18.4" id="Shape" fill="#FFFFFF"/>
                    <path d="M2.37611905,24.84 L0.792039683,24.84 C0.354857143,24.84 0,25.1955238 0,25.6335276 L0,27.2205829 C0,27.6585867 0.354857143,28.0141105 0.792039683,28.0141105 L2.37611905,28.0141105 C2.81330159,28.0141105 3.16815873,27.6585867 3.16815873,27.2205829 L3.16815873,25.6335276 C3.16815873,25.1954323 2.81330159,24.84 2.37611905,24.84" id="Shape" fill="#FFFFFF"/>
                </g>
            </g>
        </g>
    </g>
</svg>