<svg xmlns="http://www.w3.org/2000/svg" xmlns:xlink="http://www.w3.org/1999/xlink" width="53" height="35" viewBox="0 0 53 35"><defs><path id="a" d="M52.954 34.901V.044H0v34.857z"/></defs><g fill="none" fill-rule="evenodd"><path d="M.833 17.352C.833 8.192 11.283.939 25.964.939c14.682 0 26.167 7.339 26.158 16.499C52.11 27.182 40.66 34.34 25.964 34.11 11.594 33.884.833 26.512.833 17.352" fill="#FEFEFE"/><g transform="translate(0 .054)"><mask id="b" fill="#fff"><use xlink:href="#a"/></mask><path d="M25.964 1.725c-13.852 0-24.299 6.695-24.299 15.572 0 4.163 2.417 8.08 6.806 11.03 4.53 3.046 10.748 4.782 17.506 4.888.22.004.44.005.66.005 8.55 0 16.257-2.608 20.715-7.033 2.572-2.553 3.933-5.597 3.937-8.805.003-2.918-1.281-5.76-3.715-8.218-4.61-4.658-12.689-7.439-21.61-7.439m.67 33.176c-.227 0-.455-.002-.683-.005-7.074-.111-13.61-1.947-18.403-5.17C2.681 26.454 0 22.04 0 17.297c0-4.77 2.64-9.154 7.435-12.343 4.76-3.166 11.34-4.91 18.53-4.91 9.352 0 17.872 2.966 22.788 7.932 2.752 2.78 4.205 6.034 4.201 9.408-.004 3.668-1.537 7.126-4.434 10.002-2.388 2.37-5.686 4.308-9.538 5.605-3.72 1.253-7.976 1.91-12.348 1.91" fill="#FEFEFE" mask="url(#b)"/></g><path d="M26.477 30.293c13.158.08 21.447-5.956 21.792-12.855.338-6.744-9.379-12.856-21.792-12.856-12.413 0-21.45 5.506-21.45 12.511 0 7.005 9.037 13.125 21.45 13.2M.833 17.352C.833 8.192 11.283.939 25.964.939c14.682 0 26.168 7.34 26.158 16.5-.012 9.744-11.46 16.9-26.158 16.67C11.594 33.886.833 26.512.833 17.353" fill="#004E94"/><path d="M23.401 18.473h4.87l-2.392-7.158-2.478 7.158zM28.357 5.71l7.52 22.075-4.615 1.207-1.88-6.726h-7.434l-2.05 6.294-4.358-1.724L23.743 5.71h4.614z" fill="#ED1B2D"/><path d="M23.642 18.3h4.391l-2.157-6.453-2.234 6.453zm4.868.345h-5.35l2.721-7.861 2.629 7.861zm-6.686 3.45h7.688l1.87 6.689 4.273-1.119-7.42-21.782H23.86L15.762 26.74l4.03 1.595 2.032-6.24zm9.319 7.108l-1.89-6.763h-7.18l-2.07 6.348-4.685-1.853.063-.161 8.245-21.236h4.853l7.62 22.368-4.956 1.297z" fill="#FEFEFE"/><path d="M16.181 13.73h4.273s-.47-5.303-6.238-5.26c-5.768.043-7.007 5.045-7.007 7.89 0 2.845 1.325 7.89 6.836 7.89s6.28-5.303 6.28-5.82h-4.23s-.127 2.457-2.05 2.457c-1.923 0-2.435-2.112-2.435-4.743 0-2.63.768-4.31 2.606-4.31 1.837 0 1.965 1.896 1.965 1.896" fill="#ED1B2D"/><path d="M14.287 8.642h-.07c-1.141.01-6.837.421-6.837 7.718 0 .848.13 3.025 1.325 4.92 1.171 1.856 2.968 2.797 5.34 2.797 2.25 0 3.954-.886 5.063-2.636a7.253 7.253 0 0 0 1.033-2.839H16.25c-.074.574-.449 2.458-2.205 2.458-1.754 0-2.606-1.608-2.606-4.916 0-2.045.482-4.484 2.777-4.484 1.032 0 1.56.564 1.82 1.038.186.335.264.669.295.86h3.926a6.574 6.574 0 0 0-.91-2.392c-1.07-1.675-2.772-2.524-5.06-2.524m-.242 15.78c-2.462 0-4.408-1.022-5.629-2.957-1.244-1.972-1.378-4.227-1.378-5.105 0-.887.133-3.16 1.368-5.09 1.25-1.953 3.204-2.953 5.809-2.973h.07c3.011 0 4.574 1.462 5.357 2.694.851 1.34.977 2.668.982 2.724l.017.187h-4.62l-.01-.16c-.006-.071-.143-1.736-1.795-1.736-1.616 0-2.435 1.392-2.435 4.138 0 3.118.72 4.57 2.264 4.57.72 0 1.255-.376 1.587-1.118a3.76 3.76 0 0 0 .293-1.176l.009-.163h4.562v.172c0 .29-.196 1.77-1.1 3.198-.809 1.275-2.393 2.796-5.351 2.796" fill="#FEFEFE"/><path d="M38.098 13.816l-1.282 3.967h2.564l-1.282-3.967zm2.22-4.656l4.615 14.832h-3.845l-.683-2.588H35.96l-.683 2.502h-4.273L35.961 9.16h4.358z" fill="#ED1B2D"/><path d="M37.051 17.61h2.093l-1.046-3.237-1.047 3.237zm2.564.345H36.58l1.518-4.696 1.517 4.696zm1.605 5.864h3.48L40.193 9.332h-4.11l-4.839 14.401h3.904l.683-2.501h4.705l.684 2.587zm3.946.346h-4.21l-.683-2.588h-4.182l-.683 2.501h-4.641l5.072-15.091h4.605l.038.12 4.684 15.058z" fill="#FEFEFE"/><path d="M45.351 21.796c.115 0 .217-.009.217-.147 0-.112-.1-.132-.195-.132h-.184v.279h.162zm-.162.507h-.136V21.4h.341c.211 0 .316.078.316.256 0 .161-.1.232-.232.248l.254.398h-.151l-.236-.391h-.156v.39zm.164.2c.35 0 .627-.276.627-.653a.629.629 0 1 0-1.259 0c0 .377.277.654.632.654zm-.788-.653c0-.45.361-.78.788-.78.422 0 .783.33.783.78a.778.778 0 0 1-.783.784.778.778 0 0 1-.788-.784z" fill="#00529B"/></g></svg>