<svg role="img" aria-labelledby="handshake-icon" viewBox="0 0 64 64" version="1.1" xmlns="http://www.w3.org/2000/svg" xmlns:xlink="http://www.w3.org/1999/xlink" class="Root__Svg-sc-ib9alu-0 jLIbFE" width="64"  height="64" ><title id="___SVG_ID__878__0___">handshake Icon</title><g stroke="none" stroke-width="1" fill="#000A27" fill-rule="evenodd"><path d="M34.0386655,1.51150226 C34.2935201,0.508463511 35.2630863,-0.127158211 36.2684242,0.0215031483 L36.4194083,0.0497365836 L62.4391176,5.94312327 C63.484926,6.17999576 64.1497049,7.19584486 63.9710408,8.23770255 L63.9397297,8.38663498 L61.9382136,16.4116722 C61.6852948,17.4257446 60.7028592,18.0665444 59.689258,17.9076659 L59.5370713,17.8777833 L57.5425871,17.4063057 L56.8330496,21.3877273 L57.865556,21.1682576 C60.5686835,20.5923285 63.2257804,22.3219566 63.8003479,25.03149 C64.3121543,27.4450559 62.9989004,29.8220113 60.7953363,30.7195567 C60.9419216,31.0447115 61.0562463,31.3900616 61.1332073,31.7529927 C61.6450922,34.1669287 60.3313571,36.544243 58.1271819,37.4414722 C58.2745433,37.7654962 58.3890258,38.111187 58.4660668,38.4744954 C58.8359659,40.2188579 58.2525589,41.9440973 57.0687266,43.1055367 C57.3897825,43.602191 57.6266186,44.1654172 57.7567044,44.7788733 C58.3161517,47.4171032 56.694958,50.0115898 54.1139552,50.6779618 L53.9026055,50.7277295 L48.029271,51.9791038 L47.9434824,51.9938942 C47.7529589,53.9504131 46.4172419,55.69442 44.4248306,56.3050048 C43.8684591,56.4755077 43.305235,56.5440359 42.7551637,56.5212516 L42.5588637,56.5081601 C42.0986877,58.0691178 40.8904424,59.3760638 39.2213279,59.8875726 C38.608674,60.0753235 37.987711,60.1394247 37.3851503,60.0941126 C36.9221222,61.6488238 35.7159071,62.9500739 34.0513194,63.4601954 C32.3138858,63.992641 30.5096267,63.5306448 29.2477659,62.3989047 C28.7897617,62.7498686 28.2618519,63.0264776 27.6774434,63.2055726 C25.106105,63.9935727 22.3883991,62.6034547 21.4991569,60.0877435 L21.4293283,59.875518 L20.8738114,58.0561285 L17.4902484,58.0561285 L17.8355166,59.5264951 C18.086829,60.5947412 17.4351304,61.6671335 16.3728717,61.9333275 L8.36680729,63.9395868 C7.27711345,64.2126559 6.17663797,63.5336238 5.92907253,62.4354186 L0.0496189963,36.3540477 C-0.189353111,35.2939628 0.457228032,34.2358945 1.50792877,33.967663 L9.26380365,31.98768 C10.3485217,31.7107643 11.4489623,32.3793554 11.7058735,33.4714004 L12.0020913,34.7283485 L12.4052922,34.6023468 C14.2146096,34.0048429 15.8870815,33.0481767 17.3221605,31.7878518 C17.3987949,31.7205045 17.4791132,31.6600743 17.5623559,31.6065111 L17.3193181,30.1379097 C17.1243617,28.957295 17.4656857,27.7555463 18.2416657,26.8569216 L18.402627,26.6813344 L27.8962632,16.9224798 C28.293806,16.5138311 28.7730737,16.1955813 29.301507,15.9879802 L29.5308936,15.9058418 L34.327247,14.3515979 L34.9394658,12.0636372 L33.5435762,11.7336142 C32.503634,11.4877996 31.8486127,10.4715759 32.0314894,9.43404048 L32.0633636,9.28575705 L34.0386655,1.51150226 Z M29.369826,48.111433 C28.8790269,48.2618409 28.5874707,48.7561323 28.6777057,49.2501698 L28.7053896,49.3640174 L31.631323,58.9569939 C31.7929178,59.4867994 32.3523931,59.7849826 32.880946,59.6230048 C33.3717451,59.4725969 33.6633014,58.9783055 33.5730663,58.484268 L33.5453824,58.3704204 L33.1170076,56.9659946 L33.0410943,56.7642248 L32.9732128,56.5575179 L31.8028395,52.7203273 C31.7600151,52.579923 31.7236389,52.4390833 31.6935411,52.2981282 L30.619449,48.7774439 C30.4578542,48.2476384 29.8983789,47.9494552 29.369826,48.111433 Z M8.27666776,36.380515 L4.38271819,37.3746165 L9.38150464,59.5487974 L13.4856134,58.5195864 L8.27666776,36.380515 Z M24.75151,53.6125961 C24.2607109,53.763004 23.9691547,54.2572953 24.0593898,54.7513329 L24.0870737,54.8651804 L25.257447,58.7023711 C25.4190419,59.2321765 25.9785171,59.5303598 26.50707,59.368382 C26.9978692,59.2179741 27.2894254,58.7236827 27.1991903,58.2296451 L27.1715064,58.1157976 L26.001133,54.278607 C25.8395382,53.7488015 25.2800629,53.4506183 24.75151,53.6125961 Z M36.2953946,50.294596 C35.8269804,50.438144 35.540049,50.8949221 35.5932929,51.3657659 L36.8713115,55.5558826 C37.0898403,55.9760739 37.5825405,56.1939299 38.0509546,56.0503819 C38.5417537,55.899974 38.8333099,55.4056827 38.7430749,54.9116451 L38.7153909,54.7977976 L38.160132,52.9793369 L38.1432214,52.984895 C38.1017843,52.8490392 38.0663844,52.7127757 38.0368679,52.5763945 L37.5450176,50.9606069 C37.3834228,50.4308015 36.8239475,50.1326182 36.2953946,50.294596 Z M58.8133922,25.0753716 L58.6978332,25.0930931 L42.4111254,28.5621105 L32.7685968,30.6460733 C31.7147086,30.8737852 30.732352,31.3514438 29.9030464,32.0370311 L29.6589277,32.2489031 L28.7073506,33.1156515 L29.2160876,35.6566541 C29.3926692,36.8853242 28.991682,38.1220152 28.1390118,39.0104007 L27.9738737,39.1728043 L25.4841626,41.4839099 C24.909321,42.0175139 24.1909002,42.3703011 23.4179434,42.498546 C21.302902,42.8494627 19.3009854,41.4693873 18.8524082,39.3919117 L18.8149488,39.1951368 L18.3044066,36.0992877 C16.7219054,37.1945098 14.9724086,38.0338725 13.1195721,38.5822312 L12.9217879,38.639551 L16.5455328,54.0436099 L20.0667806,54.0442644 C20.2722878,52.1049279 21.6030789,50.3815916 23.5811367,49.7754054 C23.9476191,49.663095 24.3170748,49.5950301 24.6837862,49.5681634 C24.4474912,47.2366695 25.8775425,44.9858038 28.1994526,44.2742424 C30.5863262,43.5427725 33.09932,44.6881189 34.1588582,46.8684158 C34.4591096,46.7009562 34.7823531,46.5624178 35.1250212,46.4574054 C36.8579547,45.9263389 38.657368,46.3845695 39.9187589,47.5099158 C40.3721804,47.1677131 40.891554,46.8978322 41.4654031,46.7219731 C43.4153348,46.1244064 45.4494379,46.7794088 46.7064997,48.2279803 C46.8143257,48.1725556 46.9303595,48.126257 47.0520239,48.0907815 L47.1969938,48.0542684 L53.0703283,46.8028941 C53.6109538,46.6877082 53.9560616,46.1550295 53.8411481,45.6131228 C53.7344427,45.1099238 53.2686072,44.7757084 52.7697487,44.8227549 L52.6541897,44.8404763 L46.7808552,46.0918506 C46.6825596,46.1127935 46.5844163,46.1261147 46.4870371,46.1322126 L46.3416179,46.1359918 C45.4252289,46.126247 44.6054254,45.4825783 44.4069384,44.5465577 C44.1875581,43.5120085 44.806481,42.4942757 45.8036081,42.2035284 L45.948578,42.1670152 L53.7796907,40.4985161 C54.3203162,40.3833303 54.665424,39.8506516 54.5505105,39.3087449 C54.4438051,38.8055458 53.9779696,38.4713304 53.4791111,38.518377 L53.3721704,38.5341489 L43.5746612,40.6217222 C43.4763657,40.6426651 43.3782223,40.6559863 43.2808431,40.6620842 L43.135424,40.6658634 C42.219035,40.6561186 41.3992314,40.0124499 41.2007445,39.0764293 C40.9813641,38.0418801 41.6002871,37.0241473 42.5974142,36.7334 L42.742384,36.6968868 L56.4468312,33.7770135 C56.9874567,33.6618276 57.3325645,33.1291489 57.217651,32.5872422 C57.1109456,32.0840431 56.6451102,31.7498278 56.1462516,31.7968743 L56.0306926,31.8145957 L40.3684673,35.1515938 C39.2872162,35.3819655 38.2243775,34.6901143 37.9945505,33.6063009 C37.7751702,32.5717518 38.3940931,31.5540189 39.3912202,31.2632716 L39.5361901,31.2267584 L59.1139718,27.0555108 C59.6545973,26.9403249 59.9997051,26.4076462 59.8847916,25.8657395 C59.7780862,25.3625405 59.3122507,25.0283251 58.8133922,25.0753716 Z M42.6357765,50.5591638 C42.1673624,50.7027117 41.8804309,51.1594899 41.9336748,51.6303336 L41.9887842,51.805838 L42.0048342,51.8018032 C42.1548866,52.2937654 42.6480093,52.5860126 43.1408789,52.4955637 L43.2544572,52.4678142 C43.7452564,52.3174062 44.0368126,51.8231149 43.9465775,51.3290773 L43.9188936,51.2152298 L43.8853995,51.2251747 C43.7238047,50.6953692 43.1643294,50.397186 42.6357765,50.5591638 Z M38.8374184,12.9845102 L38.193431,15.3917893 C37.8611872,16.6325329 36.9580486,17.6341408 35.7709767,18.0940828 L35.5586045,18.1695646 L30.7622512,19.7238084 L21.268615,29.4826629 L22.7642458,38.53989 L25.2539569,36.2287844 L24.7452199,33.6877818 C24.5668459,32.4466403 24.9778701,31.1981511 25.8469614,30.3085561 L26.015252,30.1460522 L26.9668291,29.2793038 C28.2729462,28.089621 29.8499871,27.2423292 31.5572934,26.8099284 L31.9250873,26.7236479 L35.0938518,26.0380597 L35.2061372,26.0017056 L35.2061372,26.0017056 L35.351107,25.9651924 L41.37434,24.682005 L52.6138096,22.2534693 L53.6416322,16.4844295 L38.8374184,12.9845102 Z M37.4373698,4.39310437 L36.4446178,8.29628184 L58.5333495,13.5175717 L59.5591265,9.40373697 L37.4373698,4.39310437 Z" fill="#000A27"></path></g></svg>