<svg role="img" aria-labelledby="code_2-icon" viewBox="0 0 64 64" version="1.1" xmlns="http://www.w3.org/2000/svg" xmlns:xlink="http://www.w3.org/1999/xlink" class="Root__Svg-sc-ib9alu-0 fZZFLg" width="64"  height="64" ><title id="___SVG_ID__891__0___">code_2 Icon</title><g stroke="none" stroke-width="1" fill="#000A27" fill-rule="evenodd"><path d="M62.0096875,0 C63.1144296,0 64.01,0.895570411 64.01,2.0003125 L64.01,62.0096875 C64.01,63.1144296 63.1144296,64.01 62.0096875,64.01 L2.0003125,64.01 C0.895570411,64.01 0,63.1144296 0,62.0096875 L0,2.0003125 C0,0.895570411 0.895570411,0 2.0003125,0 L62.0096875,0 Z M60.009375,4.000625 L4.000625,4.000625 L4.000625,60.009375 L60.009375,60.009375 L60.009375,4.000625 Z M38.5807231,10.0859231 C39.5907763,10.3889391 40.1838017,11.4187812 39.9595311,12.4320943 L39.9218894,12.5766606 L27.9200144,52.5829106 C27.6025691,53.6410616 26.4874279,54.2415222 25.4292769,53.9240769 C24.4192237,53.6210609 23.8261983,52.5912188 24.0504689,51.5779057 L24.0881106,51.4333394 L36.0899856,11.4270894 C36.4074309,10.3689384 37.5225721,9.76847781 38.5807231,10.0859231 Z M20.8536667,20.3667993 C21.6968354,19.7728117 22.8687735,19.9166339 23.5406341,20.7228993 L23.5406341,20.7228993 L23.640564,20.8531783 C24.2345517,21.6963471 24.0907295,22.8682852 23.2844639,23.5401458 L23.2844639,23.5401458 L13.1260506,32.0060002 L23.2844639,40.4698542 L23.406253,40.5799724 C24.1425789,41.3021768 24.2124947,42.4808351 23.5406341,43.2871007 C22.8334125,44.1358011 21.5720883,44.2504925 20.7233877,43.5432708 L20.7233877,43.5432708 L8.7210244,33.5417083 L8.60128877,33.4336844 C7.76313938,32.6150936 7.80305126,31.2332382 8.7210244,30.4682917 L8.7210244,30.4682917 L20.7233877,20.4667292 L20.8536667,20.3667993 Z M43.1568719,20.3667993 L43.2871508,20.4667292 L55.2895141,30.4682917 C56.2074872,31.2332382 56.2473992,32.6150936 55.4092497,33.4336844 L55.2895141,33.5417083 L43.2871508,43.5432708 C42.4384503,44.2504925 41.1771261,44.1358011 40.4699044,43.2871007 C39.7980439,42.4808351 39.8679597,41.3021768 40.6042855,40.5799724 L40.7260746,40.4698542 L50.884488,32.0060002 L40.7260746,23.5401458 C39.9198091,22.8682852 39.7759869,21.6963471 40.3699745,20.8531783 L40.4699044,20.7228993 C41.141765,19.9166339 42.3137031,19.7728117 43.1568719,20.3667993 Z" fill="#000A27"></path></g></svg>