<svg role="img" aria-labelledby="devops-icon" viewBox="0 0 64 64" version="1.1" xmlns="http://www.w3.org/2000/svg" xmlns:xlink="http://www.w3.org/1999/xlink" class="Root__Svg-sc-ib9alu-0 jLIbFE" width="64"  height="64" ><title id="___SVG_ID__869__0___">devops Icon</title><g stroke="none" stroke-width="1" fill="#000A27" fill-rule="evenodd"><path d="M44.5,0 C55.2695526,0 64,8.73044738 64,19.5 C64,30.2695526 55.2695526,39 44.5,39 L43,39 L43,43 C43,43.0684338 42.9965629,43.1360648 42.989852,43.2027299 C42.6178901,54.7515758 33.1389877,64 21.5,64 C9.62587788,64 0,54.3741221 0,42.5 C0,30.7446191 9.43432291,21.1927424 21.1444582,21.0028804 L21.5,21 L25,21 L25,19 C25,18.9240007 25.004239,18.8489914 25.0124935,18.7751958 C25.3943967,8.3415164 33.9730656,0 44.5,0 Z M44.5,4 C36.0452705,4 29.1715949,10.7692963 29.0031631,19.1836988 L29,19.5 L29,42.5 C29,46.6421356 25.6421356,50 21.5,50 C17.3578644,50 14,46.6421356 14,42.5 C14,38.4390827 17.2274744,35.1319825 21.2572689,35.0038536 L21.5,35 L25,35 L25,25 L21.5,25 C11.8350169,25 4,32.8350169 4,42.5 C4,52.1649831 11.8350169,60 21.5,60 C31.0551538,60 38.8216951,52.3420399 38.9969736,42.8287703 L39,42.5 L39,19 C39,15.6862915 41.6862915,13 45,13 C48.3137085,13 51,15.6862915 51,19 C51,22.2383969 48.4344251,24.8775718 45.2249383,24.9958615 L45,25 L43,25 L43,35 L44.5,35 L44.5,35 C53.0604136,35 60,28.0604136 60,19.5 C60,10.9395864 53.0604136,4 44.5,4 Z M25,39 L21.5,39 C19.5670034,39 18,40.5670034 18,42.5 C18,44.4329966 19.5670034,46 21.5,46 C23.3685634,46 24.8951264,44.5357224 24.9948211,42.6920352 L25,42.5 L25,39 Z M45,17 C43.9456382,17 43.0818349,17.8158778 43.0054857,18.8507377 L43,19 L43,21 L45,21 C46.1045695,21 47,20.1045695 47,19 C47,17.8954305 46.1045695,17 45,17 Z" id="___SVG_ID__869__1___" fill-rule="nonzero" fill="#000A27"></path></g></svg>