<svg role="img" aria-labelledby="download_document-icon" viewBox="0 0 70 64" version="1.1" xmlns="http://www.w3.org/2000/svg" xmlns:xlink="http://www.w3.org/1999/xlink" class="Root__Svg-sc-ib9alu-0 jkrjUq" width="70"  height="64" ><title id="___SVG_ID__883__0___">download_document Icon</title><g stroke="none" stroke-width="1" fill="#000A27" fill-rule="evenodd"><path d="M45.8778618,0.00454008488 C46.4112998,-0.0314627532 46.9673626,0.145108164 47.4120232,0.589768699 L63.4662395,16.6461826 L63.5463474,16.7371963 L63.5663745,16.7632406 C63.8503863,17.1160208 63.9868686,17.5218101 64,17.9242142 L63.9970433,62.001145 C63.9970433,63.0554581 63.1812032,63.9192215 62.1463911,63.9955671 L61.9971357,64.0010526 L17.9991684,64.0010526 C16.8946499,64.0010526 15.9992608,63.1056635 15.9992608,62.001145 C15.9992608,60.946832 16.815101,60.0830685 17.849913,60.0067229 L17.9991684,60.0012374 L59.9972281,60.0012374 L59.9972281,20.0030759 L45.9978749,20.0030854 C44.9435618,20.0030854 44.0797984,19.1872452 44.0034528,18.1524331 L43.9979673,18.0031778 L43.9979673,4.00381502 L19.999076,4.00382453 L19.999076,44.5949397 L22.4804482,41.7005002 C23.1992593,40.8618872 24.4618009,40.7647687 25.3004138,41.4835798 C26.0970961,42.1664503 26.2245798,43.3400377 25.6190458,44.1746949 L25.5173343,44.3035453 L19.5176115,51.303222 C18.755737,52.1920756 17.4085139,52.2324781 16.5934258,51.4244294 L16.4807253,51.303222 L10.4810025,44.3035453 C9.76219147,43.4649325 9.85931007,42.2023908 10.697923,41.4835798 C11.4946053,40.8007092 12.6738833,40.8542152 13.40611,41.5802788 L13.5178887,41.7005002 L15.9992608,44.5949397 L15.9992608,2.00391693 C15.9992608,0.949603842 16.815101,0.0858404213 17.849913,0.00949480689 L17.9991684,0.00400932389 L45.8778618,0.00454008488 Z M1.9999076,16.0032701 C3.05422069,16.0032701 3.9179841,16.8191103 3.99432972,17.8539224 L3.99981521,18.0031778 L3.99981521,62.001145 C3.99981521,63.1056635 3.10442607,64.0010526 1.9999076,64.0010526 C0.945594518,64.0010526 0.0818310975,63.1852125 0.005485483,62.1504004 L0,62.001145 L0,18.0031778 C0,16.8986593 0.895389132,16.0032701 1.9999076,16.0032701 Z M9.99953802,50.0016994 C11.0538511,50.0016994 11.9176145,50.8175395 11.9939601,51.8523516 L11.9994456,52.001607 L11.9994456,62.001145 C11.9994456,63.1056635 11.1040565,64.0010526 9.99953802,64.0010526 C8.94522493,64.0010526 8.08146151,63.1852125 8.0051159,62.1504004 L7.99963041,62.001145 L7.99963041,52.001607 C7.99963041,50.8970885 8.89501954,50.0016994 9.99953802,50.0016994 Z M9.99953802,8.00363974 C11.0538511,8.00363974 11.9176145,8.81947983 11.9939601,9.8542919 L11.9994456,10.0035473 L11.9994456,36.0023462 C11.9994456,37.1068647 11.1040565,38.0022538 9.99953802,38.0022538 C8.94522493,38.0022538 8.08146151,37.1864137 8.0051159,36.1516016 L7.99963041,36.0023462 L7.99963041,10.0035473 C7.99963041,8.89902887 8.89501954,8.00363974 9.99953802,8.00363974 Z M47.9977825,6.83269383 L47.9977825,16.0032701 L57.1683588,16.0032701 L47.9977825,6.83269383 Z" fill="#000A27"></path></g></svg>