<svg role="img" aria-labelledby="cog-icon" viewBox="0 0 64 64" version="1.1" xmlns="http://www.w3.org/2000/svg" xmlns:xlink="http://www.w3.org/1999/xlink" class="Root__Svg-sc-ib9alu-0 jLIbFE" width="64"  height="64" ><title id="___SVG_ID__871__0___">cog Icon</title><g stroke="none" stroke-width="1" fill="#000A27" fill-rule="evenodd"><path d="M37.3926491,0.459000911 C38.2228417,0.601673272 38.8686974,1.24711478 39.0202669,2.06459503 L39.0428181,2.2198079 L39.332996,4.97201457 L39.753587,5.08797638 C41.7758738,5.66963781 43.7201524,6.47745766 45.5537093,7.49358162 L45.9229925,7.7040131 L48.0776845,5.96225378 C48.727196,5.43691346 49.628668,5.37403678 50.3402592,5.78796475 L50.4896755,5.88396685 C53.4576039,7.98139127 56.0297582,10.5622132 58.1148668,13.5132461 C58.5969644,14.195554 58.6011322,15.0992905 58.1417742,15.7825151 L58.0362507,15.9253842 L56.2959868,18.0760075 L56.5065184,18.4464712 C57.5227396,20.2802355 58.3306103,22.2247439 58.9122707,24.2472722 L59.0269854,24.6670039 L61.7772198,24.9572048 C62.6150003,25.0456574 63.3014555,25.6478789 63.5057427,26.4538767 L63.5383154,26.6073137 C64.150411,30.1680233 64.1564686,33.8113096 63.5409991,37.3926491 C63.4023257,38.199572 62.7878326,38.8346636 61.9984687,39.00749 L61.8383535,39.0358057 L57.6594663,39.6018561 C56.5648934,39.7501213 55.557374,38.9829873 55.4091089,37.8884144 C55.2675831,36.8435947 55.9601296,35.8780947 56.9753755,35.6635283 L57.1225507,35.6380568 L59.805985,35.2739983 L59.8565146,34.8312222 C60.0492504,32.9427601 60.0473435,31.0437324 59.8536528,29.1611224 L59.8089851,28.7720017 L57.2089071,28.497114 C56.403043,28.4120311 55.7339093,27.8506314 55.5036936,27.0844882 L55.463592,26.9286101 C54.8548565,24.0976136 53.7384722,21.4160105 52.1761069,18.9971475 C51.7384042,18.3194936 51.7532276,17.4509693 52.1991836,16.7918684 L52.3013368,16.6539839 L53.9469881,14.6190094 L53.7778898,14.4044801 C52.5401887,12.869556 51.1423179,11.468732 49.6035647,10.2258678 L49.3819906,10.0510119 L47.3457305,11.6988943 C46.7185944,12.2061367 45.8535831,12.283873 45.1508163,11.9107554 L45.0028525,11.8238931 C42.5842544,10.2616989 39.9029714,9.14538671 37.0723143,8.53660669 C36.2802159,8.36625272 35.6746983,7.73698764 35.5272265,6.95084377 L35.5039201,6.79161276 L35.2279983,4.188015 L34.8312222,4.14348535 C32.9427601,3.95074963 31.0437324,3.95265643 29.1611224,4.14634709 L28.7720017,4.190015 L28.497114,6.79109292 C28.4120311,7.59695697 27.8506314,8.26609054 27.0844882,8.49630649 L26.9286101,8.5364079 C24.0972505,9.14522155 21.415324,10.2618139 18.9962221,11.8244908 C18.3185575,12.2622444 17.4499883,12.2474379 16.7908599,11.8014598 L16.6529696,11.6993012 L14.6180094,10.0530118 L14.4038044,10.222655 C12.869092,11.4602641 11.468454,12.8580035 10.2257411,14.3965921 L10.0510119,14.6170093 L11.6988943,16.6542695 C12.2061367,17.2814056 12.283873,18.1464169 11.9107554,18.8491837 L11.8238931,18.9971475 C10.2616989,21.4157456 9.14538671,24.0970286 8.53660669,26.9276858 C8.36625272,27.7197841 7.73698764,28.3253018 6.95084377,28.4727734 L6.79161276,28.49608 L4.188015,28.7710018 L4.14346353,29.1689918 C3.9507207,31.0576682 3.95266439,32.9569111 4.14643457,34.8397278 L4.191015,35.2289982 L6.79124712,35.5038814 C7.59710772,35.5889388 8.26625526,36.1503105 8.49649944,36.9164389 L8.53660669,37.0723143 C9.14546479,39.9033345 10.2619849,42.5849406 11.8244908,45.0037778 C12.2622444,45.6814425 12.2474379,46.5500117 11.8014598,47.2091401 L11.6993012,47.3470303 L10.0530118,49.3809907 L10.222655,49.5961956 C11.4602641,51.130908 12.8580035,52.5315459 14.3965921,53.7742588 L14.6170093,53.9479882 L16.6542695,52.3011056 C17.2814056,51.7938632 18.1464169,51.7161271 18.8491837,52.0892445 L18.9971475,52.1761069 C21.4157456,53.7383012 24.0970286,54.8546132 26.9276858,55.4633934 C27.7197841,55.6337472 28.3253018,56.2630123 28.4727734,57.0491562 L28.49608,57.2083872 L28.7710018,59.810985 L29.1689918,59.8565365 C31.0576682,60.0492792 32.9569111,60.0473355 34.8397278,59.8535655 L35.2749983,59.802985 L35.6380135,57.1228705 C35.7793709,56.078028 36.7036918,55.3314075 37.7394445,55.3944904 L37.8880945,55.4090656 C38.932937,55.5504229 39.6795574,56.4747438 39.6164746,57.5104964 L39.6018994,57.6591465 L39.0369227,61.8351718 C38.9198278,62.7006785 38.254651,63.3901075 37.3938904,63.5381084 C33.8328007,64.1504094 30.189096,64.1565383 26.6073508,63.5409991 C25.7771582,63.3983268 25.1313027,62.7528852 24.9797331,61.9354049 L24.957182,61.7801922 L24.666004,59.0269854 L24.2464129,58.9120235 C22.2241261,58.3303622 20.2798476,57.5225423 18.4462907,56.5064183 L18.0760075,56.2949869 L15.9223155,58.0377462 C15.2728039,58.5630865 14.371332,58.6259632 13.6597409,58.2120353 L13.5103245,58.1160331 C10.5427323,56.0188463 7.97082316,53.4383704 5.88583822,50.4877515 C5.40369633,49.8054363 5.39951362,48.901661 5.85889166,48.2184131 L5.96441988,48.0755394 L7.7040131,45.9239924 L7.49408744,45.554622 C6.47776536,43.7208692 5.66979671,41.7763599 5.08804345,39.7538201 L4.97201457,39.332996 L2.2230355,39.0439305 C1.3852574,38.9555042 0.698786252,38.3533104 0.494469935,37.5473252 L0.461891642,37.3938904 C-0.150409342,33.8328007 -0.156538278,30.189096 0.459000911,26.6073508 C0.601673271,25.7771582 1.24711477,25.1313027 2.06459503,24.9797331 L2.2198079,24.957182 L4.97201457,24.666004 L5.08797638,24.2464129 C5.66963781,22.2241261 6.47745766,20.2798476 7.49358162,18.4462907 L7.7040131,18.0760075 L5.96225378,15.9223155 C5.43691346,15.2728039 5.37403678,14.371332 5.78796475,13.6597409 L5.88396685,13.5103245 C7.98115364,10.5427323 10.5616295,7.97082316 13.5122484,5.88583822 C14.1945637,5.40369633 15.098339,5.39951362 15.7815869,5.85889166 L15.9244605,5.96441988 L18.0750075,7.7040131 L18.3485701,7.54799244 C20.2432001,6.48809028 22.2571857,5.65122037 24.3542002,5.05720917 L24.6670039,4.97201457 L24.9572048,2.22278019 C25.0456574,1.3849997 25.6478789,0.698544457 26.4538767,0.494257309 L26.6073137,0.461684642 C30.1680233,-0.150411081 33.8113096,-0.156468542 37.3926491,0.459000911 Z M20.5821895,26.1144527 C21.6006242,26.3873414 22.2238291,27.3989871 22.0297353,28.418345 L21.9964022,28.5639411 L20.2300063,35.1529983 L28.8460017,43.7689937 L36.9563903,41.5962261 C37.5084467,41.4483031 38.0684656,41.5464348 38.5200094,41.8233959 C38.5752868,41.8548894 38.6295594,41.8893226 38.682429,41.9266216 L38.8169482,42.0303591 L38.9442618,42.147084 L57.4130019,60.584574 C58.1947111,61.3649606 58.1957833,62.6312894 57.4153968,63.4129987 C56.6760833,64.1535652 55.5006332,64.1935048 54.7142858,63.5321185 L54.5869722,63.4153936 L36.89498,45.7529753 L28.7663511,47.9318431 C28.1292585,48.1025515 27.4527715,47.9475502 26.9550739,47.5253013 L26.8345005,47.4142053 L16.5857947,37.1654994 C16.1194106,36.6991153 15.9154021,36.0357598 16.0322315,35.3936165 L16.0681569,35.2336489 L18.132701,27.5286656 C18.4185846,26.4617338 19.5152579,25.8285692 20.5821895,26.1144527 Z M36.9049216,16.3662098 L37.0449261,16.4746987 L37.1654994,16.5857947 L47.4142053,26.8345005 C47.8805894,27.3008848 48.0845979,27.9642403 47.9677684,28.6063835 L47.9318431,28.7663511 L45.7529753,36.89498 L63.4153916,54.5869701 C64.1957792,55.3686784 64.1947087,56.6350071 63.4130006,57.4153948 C62.6724351,58.1547094 61.4969191,58.1926599 60.711692,57.5299442 L60.5845761,57.4130039 L42.115836,38.9130139 C41.683166,38.4796118 41.4907101,37.8972411 41.5383285,37.3313121 C41.5432509,37.2465499 41.5538,37.160764 41.5701446,37.0749232 L41.6034776,36.9293271 L43.7689937,28.8460017 L35.1529983,20.2300063 L28.6378794,21.9765905 C27.6194446,22.2494792 26.5739106,21.684971 26.2323217,20.7051342 L26.1883909,20.5623778 C25.9155022,19.543943 26.4800106,18.4984089 27.4598473,18.1568201 L27.6026037,18.1128893 L35.2336489,16.0681569 C35.8128241,15.9129674 36.4245564,16.0269595 36.9049216,16.3662098 Z M32.5541584,26.0681514 C33.191251,25.8974431 33.867738,26.0524444 34.3654357,26.4746933 L34.486009,26.5857892 L37.4142107,29.5139911 C37.8805948,29.9803752 38.0846033,30.6437308 37.9677738,31.285874 L37.9318485,31.4458416 L36.8600523,35.4458394 C36.6893437,36.0829323 36.2168652,36.5912864 35.6023382,36.8111806 L35.4458394,36.8600523 L31.4458416,37.9318485 C30.8087489,38.1025569 30.1322621,37.9475556 29.6345644,37.5253066 L29.5139911,37.4142107 L26.5857892,34.486009 C26.1194052,34.0196249 25.9153967,33.3562693 26.0322262,32.714126 L26.0681514,32.5541584 L27.1399477,28.5541605 C27.3106562,27.9170678 27.7831348,27.4087136 28.3976618,27.1888193 L28.5541605,27.1399477 L32.5541584,26.0681514 Z M32.4729997,30.2300009 L30.7040007,30.7040007 L30.2300009,32.4729997 L31.5260002,33.7689991 L33.2949993,33.2949993 L33.7689991,31.5260002 L32.4729997,30.2300009 Z" fill="#000A27"></path></g></svg>