<svg role="img" aria-labelledby="agile-icon" viewBox="0 0 64 64" version="1.1" xmlns="http://www.w3.org/2000/svg" xmlns:xlink="http://www.w3.org/1999/xlink" class="Root__Svg-sc-ib9alu-0 jLIbFE" width="64"  height="64" ><title id="___SVG_ID__868__0___">agile Icon</title><g stroke="none" stroke-width="1" fill="#000A27" fill-rule="evenodd"><path d="M32,0 C49.673112,0 64,14.326888 64,32 C64,37.8288389 62.4415606,43.2936849 59.7186269,48.0005927 L62,48 C63.1045695,48 64,48.8954305 64,50 C64,51.0543618 63.1841222,51.9181651 62.1492623,51.9945143 L62,52 L56.9810091,52.0005921 C54.3803722,55.2446215 51.1609206,57.9711983 47.5016654,60.0013113 L62,60 C63.1045695,60 64,60.8954305 64,62 C64,63.0543618 63.1841222,63.9181651 62.1492623,63.9945143 L62,64 L2,64 C0.8954305,64 0,63.1045695 0,62 C0,60.9456382 0.815877791,60.0818349 1.85073766,60.0054857 L2,60 L31,59.999 L31.0005662,59.9824956 L31.4493563,59.9946936 L31.4493563,59.9946936 L32.02,60 L32.4630312,59.9962488 C47.7134399,59.7489867 60,47.3093333 60,32 C60,16.536027 47.463973,4 32,4 C16.536027,4 4,16.536027 4,32 C4,37.9489361 5.85522405,43.4645615 9.01866712,47.999871 L19.9984803,48.0003231 C15.1415578,44.3514277 12,38.5425889 12,32 C12,20.954305 20.954305,12 32,12 C43.045695,12 52,20.954305 52,32 C52,43.045695 43.045695,52 32,52 L2,52 C0.8954305,52 0,51.1045695 0,50 C0,48.9456382 0.815877791,48.0818349 1.85073766,48.0054857 L2,48 L4.28115791,48.0002207 C1.55835729,43.2933969 0,37.8286854 0,32 C0,14.326888 14.326888,0 32,0 Z M32,16 C23.163444,16 16,23.163444 16,32 C16,40.7040266 22.9501827,47.784751 31.6035593,47.9951846 L32.019,48 L32.3148707,47.9969636 C41.006099,47.8292047 48,40.7313589 48,32 C48,23.163444 40.836556,16 32,16 Z" fill="#000A27"></path></g></svg>