<svg role="img" aria-labelledby="briefcase-icon" viewBox="0 0 64 64" version="1.1" xmlns="http://www.w3.org/2000/svg" xmlns:xlink="http://www.w3.org/1999/xlink" class="Root__Svg-sc-ib9alu-0 jLIbFE" width="64"  height="64" ><title id="___SVG_ID__872__0___">briefcase Icon</title><g stroke="none" stroke-width="1" fill="#000A27" fill-rule="evenodd"><path d="M35,4 L35.2249383,4.00413847 C38.3597859,4.11967731 40.8803227,6.64021412 40.9958615,9.77506174 L41,10 L41,12 L62,12 C63.0543618,12 63.9181651,12.8158778 63.9945143,13.8507377 L64,14 L64,58 C64,59.0543618 63.1841222,59.9181651 62.1492623,59.9945143 L62,60 L2,60 C0.945638205,60 0.0818348781,59.1841222 0.00548573643,58.1492623 L3.55271368e-15,58 L3.55271368e-15,14 C3.55271368e-15,12.9456382 0.815877791,12.0818349 1.85073766,12.0054857 L2,12 L23,12 L23,10 L23.0041385,9.77506174 C23.1196773,6.64021412 25.6402141,4.11967731 28.7750617,4.00413847 L29,4 L35,4 Z M60.0007673,38.000156 C58.4221733,39.1861201 56.4811644,39.9157413 54.3736103,39.9931499 L54,40 L10,40 C7.74889586,40 5.67151983,39.2561815 4,38.0009125 L4,56 L60,56 L60.0007673,38.000156 Z M60,16 L4,16 L4,30 C4,33.1630854 6.44763337,35.7544954 9.55221297,35.9835428 L9.77506174,35.9958615 L10,36 L54,36 C57.2383969,36 59.8775718,33.4344251 59.9958615,30.2249383 L60,30 L60,16 Z M18,23 C19.0543618,23 19.9181651,23.8158778 19.9945143,24.8507377 L20,25 L20,30 C20,31.1045695 19.1045695,32 18,32 C16.9456382,32 16.0818349,31.1841222 16.0054857,30.1492623 L16,30 L16,25 C16,23.8954305 16.8954305,23 18,23 Z M46,23 C47.0543618,23 47.9181651,23.8158778 47.9945143,24.8507377 L48,25 L48,30 C48,31.1045695 47.1045695,32 46,32 C44.9456382,32 44.0818349,31.1841222 44.0054857,30.1492623 L44,30 L44,25 C44,23.8954305 44.8954305,23 46,23 Z M35,8 L29,8 L28.8507377,8.00548574 C27.8676208,8.07801742 27.0821352,8.86122651 27.0060445,9.84334953 L27,10 L27,12 L37,12 L37,10 L36.9945143,9.85073766 C36.9219826,8.86762078 36.1387735,8.08213523 35.1566505,8.00604447 L35,8 Z" fill="#000A27"></path></g></svg>