<?xml version="1.0" encoding="UTF-8" standalone="no"?>
<svg
   xmlns:dc="http://purl.org/dc/elements/1.1/"
   xmlns:cc="http://creativecommons.org/ns#"
   xmlns:rdf="http://www.w3.org/1999/02/22-rdf-syntax-ns#"
   xmlns:svg="http://www.w3.org/2000/svg"
   xmlns="http://www.w3.org/2000/svg"
   xmlns:sodipodi="http://sodipodi.sourceforge.net/DTD/sodipodi-0.dtd"
   xmlns:inkscape="http://www.inkscape.org/namespaces/inkscape"
   width="35"
   height="35"
   viewBox="0 0 35 35"
   fill="none"
   version="1.1"
   id="svg861"
   sodipodi:docname="LifeMD-logoIII.svg"
   inkscape:version="1.0.2 (e86c8708, 2021-01-15)">
  <metadata
     id="metadata867">
    <rdf:RDF>
      <cc:Work
         rdf:about="">
        <dc:format>image/svg+xml</dc:format>
        <dc:type
           rdf:resource="http://purl.org/dc/dcmitype/StillImage" />
      </cc:Work>
    </rdf:RDF>
  </metadata>
  <defs
     id="defs865" />
  <sodipodi:namedview
     pagecolor="#ffffff"
     bordercolor="#666666"
     borderopacity="1"
     objecttolerance="10"
     gridtolerance="10"
     guidetolerance="10"
     inkscape:pageopacity="0"
     inkscape:pageshadow="2"
     inkscape:window-width="1108"
     inkscape:window-height="747"
     id="namedview863"
     showgrid="false"
     inkscape:zoom="1"
     inkscape:cx="34.5"
     inkscape:cy="34.5"
     inkscape:window-x="2973"
     inkscape:window-y="416"
     inkscape:window-maximized="0"
     inkscape:current-layer="svg861" />
  <path
     d="M 30.239536,12.534312 H 17.599192 c -0.03342,0 -0.06559,-0.0102 -0.09912,-0.0102 -2.729953,0 -4.963057,2.234319 -4.963057,4.965942 V 30.035427 C 12.537015,32.76563 14.770119,35 17.500072,35 h 0.201225 c 2.619272,0 4.760413,-2.142406 4.760413,-4.763246 v -7.770559 h 7.575127 C 32.766946,22.466195 35,20.231977 35,17.500304 v -0.202746 c 0,-2.61937 -2.142714,-4.763246 -4.760464,-4.763246 z"
     fill="#19d1cb"
     id="path855"
     style="stroke-width:0.507246" />
  <path
     d="m 17.501344,2.3566211e-5 h -0.202645 c -2.617852,0 -4.760413,2.142382233789 -4.760413,4.763222833789 V 12.533754 H 4.9631036 C 2.2330742,12.533754 0,14.768073 0,17.499696 v 0.202746 c 0,2.619319 2.1427235,4.763246 4.7605497,4.763246 H 17.399337 c 0.0349,0 0.06696,0.01015 0.101957,0.01015 2.728685,0 4.961587,-2.234318 4.961587,-4.965993 V 4.9659675 C 22.462881,2.2342884 20.229979,0 17.501293,0 Z"
     fill="#00698b"
     id="path857"
     style="stroke-width:0.507246" />
  <path
     d="m 17.500075,12.524167 c -2.729952,0 -4.963057,2.234268 -4.963057,4.965891 v 4.976137 h 4.861051 c 0.035,0 0.06706,0.01033 0.101955,0.01033 2.728685,0 4.961689,-2.234317 4.961689,-4.965992 v -4.976216 h -4.862522 c -0.03343,0 -0.06559,-0.01015 -0.09912,-0.01015 z"
     fill="#003e52"
     id="path859"
     style="stroke-width:0.507246" />
</svg>
