<?xml version="1.0" encoding="UTF-8" standalone="no"?>
<svg
   xmlns:dc="http://purl.org/dc/elements/1.1/"
   xmlns:cc="http://creativecommons.org/ns#"
   xmlns:rdf="http://www.w3.org/1999/02/22-rdf-syntax-ns#"
   xmlns:svg="http://www.w3.org/2000/svg"
   xmlns="http://www.w3.org/2000/svg"
   xmlns:sodipodi="http://sodipodi.sourceforge.net/DTD/sodipodi-0.dtd"
   xmlns:inkscape="http://www.inkscape.org/namespaces/inkscape"
   version="1.1"
   id="Layer_1"
   x="0px"
   y="0px"
   viewBox="0 0 130 130"
   xml:space="preserve"
   width="130"
   height="130"
   sodipodi:docname="svgexport-5.svg"
   inkscape:version="1.0.2 (e86c8708, 2021-01-15)"><metadata
   id="metadata48"><rdf:RDF><cc:Work
       rdf:about=""><dc:format>image/svg+xml</dc:format><dc:type
         rdf:resource="http://purl.org/dc/dcmitype/StillImage" /><dc:title></dc:title></cc:Work></rdf:RDF></metadata><defs
   id="defs46" /><sodipodi:namedview
   pagecolor="#ffffff"
   bordercolor="#666666"
   borderopacity="1"
   objecttolerance="10"
   gridtolerance="10"
   guidetolerance="10"
   inkscape:pageopacity="0"
   inkscape:pageshadow="2"
   inkscape:window-width="887"
   inkscape:window-height="685"
   id="namedview44"
   showgrid="false"
   inkscape:zoom="0.99079755"
   inkscape:cx="100.09307"
   inkscape:cy="60.937509"
   inkscape:window-x="2531"
   inkscape:window-y="220"
   inkscape:window-maximized="0"
   inkscape:current-layer="Layer_1"
   inkscape:document-rotation="0" />
<g
   id="g41"
   transform="matrix(0.12359224,0,0,0.12359224,-3.7077688,-4.1730318)">
	<path
   style="fill:#66c8c7"
   d="m 1065.411,888.389 h -84.882 c 1.775,-5.125 2.695,-10.518 2.706,-15.942 V 576.123 c 0,-9.072 -7.363,-16.435 -16.435,-16.435 -9.072,0 -16.435,7.363 -16.435,16.435 v 296.325 c 0,8.806 -7.136,15.942 -15.942,15.942 H 786.014 V 838.433 C 785.318,705.711 696.604,589.584 568.742,554.018 616.239,525.963 645.653,475.149 646.316,419.99 V 214.55 c -1.69,-44.662 -37.513,-80.485 -82.175,-82.175 H 416.225 c -44.662,1.69 -80.485,37.513 -82.176,82.175 v 205.439 c 0.663,55.288 30.216,106.206 77.905,134.187 -47.73,13.578 -91.237,39.022 -126.471,73.958 -58.005,57.128 -90.801,135.044 -91.133,216.461 v 43.794 h -16.928 c -8.807,0 -15.942,-7.136 -15.942,-15.942 V 345.538 c 0,-4.227 1.679,-8.281 4.665,-11.277 2.997,-2.986 7.051,-4.665 11.277,-4.665 h 107.321 c 9.072,0 16.435,-7.363 16.435,-16.435 0,-9.072 -7.363,-16.435 -16.435,-16.435 h -107.32 c -26.844,0.268 -48.544,21.968 -48.812,48.812 v 526.909 c 0.011,5.424 0.931,10.817 2.706,15.942 H 46.435 C 37.363,888.389 30,895.752 30,904.824 v 4.109 C 30,945.912 59.832,987 99.849,987 h 912.148 c 40.017,0 69.849,-41.088 69.849,-78.067 v -4.109 c 0,-9.072 -7.363,-16.435 -16.435,-16.435 z M 366.919,214.55 c 1.616,-26.537 22.768,-47.689 49.305,-49.305 H 564.14 c 26.537,1.616 47.689,22.768 49.305,49.305 v 82.175 H 366.919 Z m 0,205.439 v -90.393 h 246.526 v 90.393 C 611.755,487.356 557.549,541.562 490.182,543.252 422.815,541.562 368.61,487.357 366.919,419.989 Z M 227.221,844.595 c 0.331,-72.599 29.575,-142.065 81.277,-193.038 23.239,-22.919 50.513,-41.364 80.442,-54.397 -8.218,22.105 -14.959,47.582 -18.736,62.294 -35.65,5.585 -61.653,36.722 -60.807,72.802 v 106.828 c 0,9.072 7.363,16.435 16.435,16.435 h 16.435 c 9.072,0 16.435,-7.363 16.435,-16.435 0,-9.072 -7.363,-16.435 -16.435,-16.435 v -90.393 c -0.397,-11.011 3.81,-21.7 11.598,-29.49 7.79,-7.787 18.479,-11.995 29.49,-11.598 11.012,-0.397 21.7,3.81 29.49,11.598 7.787,7.79 11.995,18.479 11.598,29.49 v 90.393 c -9.072,0 -16.435,7.363 -16.435,16.435 0,9.072 7.363,16.435 16.435,16.435 h 16.435 c 9.072,0 16.435,-7.363 16.435,-16.435 V 732.256 c 0.77,-33.256 -21.346,-62.714 -53.499,-71.252 6.495,-24.653 17.26,-60.881 26.545,-76.503 0,-0.493 0.408,-0.986 0.652,-1.392 20.856,-5.007 42.255,-7.352 63.686,-6.988 27.756,0.504 55.244,5.435 81.439,14.627 16.852,30.408 24.653,73.958 27.532,95.904 -29.052,8.719 -47.221,37.535 -42.545,67.504 4.668,29.972 30.742,51.905 61.065,51.371 30.326,-0.523 55.619,-23.357 59.235,-53.477 3.619,-30.112 -15.545,-58.284 -44.884,-65.976 -3.169,-25.466 -8.667,-50.579 -16.435,-75.029 81.532,46.78 131.952,133.461 132.303,227.459 l 0.74,49.883 H 227.221 Z M 621.663,716.892 c 11.266,0 21.42,6.782 25.735,17.194 4.311,10.412 1.937,22.396 -6.037,30.356 -7.971,7.971 -19.944,10.357 -30.356,6.045 -10.409,-4.311 -17.205,-14.477 -17.205,-25.743 0,-7.385 2.942,-14.468 8.165,-19.7 5.222,-5.221 12.316,-8.152 19.698,-8.152 z M 1011.997,954.13 H 99.849 c -16.03,0 -30.164,-16.435 -35.086,-32.87 h 982.32 c -4.922,16.84 -19.056,32.87 -35.086,32.87 z m 0,0"
   id="path31" />
	<path
   style="fill:#66c8c7"
   d="M 1032.541,198.115 H 769.579 c -27.23,0 -49.305,22.075 -49.305,49.305 v 117.84 c 0,64.839 -18.895,107.738 -57.523,131.073 -6.259,3.788 -9.256,11.266 -7.352,18.328 1.906,7.064 8.25,12.017 15.57,12.156 h 361.572 c 27.23,0 49.305,-22.075 49.305,-49.305 V 247.421 c 0,-13.074 -5.191,-25.617 -14.444,-34.862 -9.244,-9.253 -21.787,-14.444 -34.861,-14.444 z m 16.435,279.397 c 0,9.072 -7.363,16.435 -16.435,16.435 h -317.2 c 25.392,-30.569 37.803,-73.133 37.803,-128.687 V 247.42 c 0,-9.072 7.363,-16.435 16.435,-16.435 h 262.962 c 9.072,0 16.435,7.363 16.435,16.435 z m 0,0"
   id="path33" />
	<path
   style="fill:#66c8c7"
   d="M 966.8,296.726 H 835.32 c -9.072,0 -16.435,7.363 -16.435,16.435 0,9.072 7.363,16.435 16.435,16.435 H 966.8 c 9.072,0 16.435,-7.363 16.435,-16.435 10e-4,-9.072 -7.362,-16.435 -16.435,-16.435 z m 0,0"
   id="path35" />
	<path
   style="fill:#66c8c7"
   d="m 933.93,395.337 h -98.61 c -9.072,0 -16.435,7.363 -16.435,16.435 0,9.072 7.363,16.435 16.435,16.435 h 98.611 c 9.072,0 16.435,-7.363 16.435,-16.435 0,-9.072 -7.363,-16.435 -16.436,-16.435 z m 0,0"
   id="path37" />
	<path
   style="fill:#66c8c7"
   d="m 514.835,214.55 h -8.218 v -8.218 c 0,-9.072 -7.363,-16.435 -16.435,-16.435 -9.072,0 -16.435,7.363 -16.435,16.435 v 8.218 h -8.218 c -9.072,0 -16.435,7.363 -16.435,16.435 0,9.072 7.363,16.435 16.435,16.435 h 8.218 v 8.218 c 0,9.072 7.363,16.435 16.435,16.435 9.072,0 16.435,-7.363 16.435,-16.435 v -8.218 h 8.218 c 9.072,0 16.435,-7.363 16.435,-16.435 0,-9.072 -7.363,-16.435 -16.435,-16.435 z m 0,0"
   id="path39" />
</g>
</svg>
