<svg xmlns="http://www.w3.org/2000/svg" xmlns:xlink="http://www.w3.org/1999/xlink" id="Layer_1" viewBox="0 0 932.17 1098.02" width="932.17"  height="1098.02" ><defs><style>.cls-1{clip-path:url(#clippath);}.cls-2{fill:none;}.cls-3{fill:#66c8c7;}</style><clipPath id="clippath"><rect class="cls-2" width="932.17" height="1098.02"/></clipPath></defs><path class="cls-3" d="M383.42,78.9h-59.56c-12.21,0-22.15,9.94-22.15,22.15v46.47h-46.47c-12.22,0-22.15,9.94-22.15,22.16v59.54c0,12.22,9.93,22.15,22.15,22.15h46.47v46.48c0,12.21,9.94,22.15,22.15,22.15h59.56c12.21,0,22.15-9.94,22.15-22.15v-46.48h46.47c12.22,0,22.16-9.93,22.16-22.15v-59.54c0-12.22-9.94-22.16-22.16-22.16h-46.47v-46.47c0-12.21-9.94-22.15-22.15-22.15h0Zm58.61,100.78v39.52h-48.5c-11.1,0-20.13,9.04-20.13,20.13v48.5h-39.52v-48.5c0-11.1-9.03-20.13-20.13-20.13h-48.5v-39.52h48.5c11.1,0,20.13-9.02,20.13-20.13v-48.49h39.52v48.49c0,11.1,9.02,20.13,20.13,20.13h48.5Zm0,0"/><path class="cls-3" d="M533.82,565.53h-28.94c-8.88,0-16.08,7.21-16.08,16.08s7.21,16.08,16.08,16.08h28.94c8.88,0,16.08-7.19,16.08-16.08s-7.2-16.08-16.08-16.08h0Zm0,0"/><path class="cls-3" d="M317.79,565.53H173.46c-8.88,0-16.08,7.21-16.08,16.08s7.21,16.08,16.08,16.08h144.32c8.88,0,16.08-7.19,16.08-16.08s-7.21-16.08-16.08-16.08h0Zm0,0"/><path class="cls-3" d="M533.82,658.58h-28.94c-8.88,0-16.08,7.21-16.08,16.08s7.21,16.08,16.08,16.08h28.94c8.88,0,16.08-7.19,16.08-16.08s-7.2-16.08-16.08-16.08h0Zm0,0"/><path class="cls-3" d="M317.79,658.58H173.46c-8.88,0-16.08,7.21-16.08,16.08s7.21,16.08,16.08,16.08h144.32c8.88,0,16.08-7.19,16.08-16.08s-7.21-16.08-16.08-16.08h0Zm0,0"/><path class="cls-3" d="M533.82,751.64h-28.94c-8.88,0-16.08,7.19-16.08,16.08s7.21,16.08,16.08,16.08h28.94c8.88,0,16.08-7.2,16.08-16.08s-7.2-16.08-16.08-16.08h0Zm0,0"/><g class="cls-1"><path class="cls-3" d="M317.79,751.64H173.46c-8.88,0-16.08,7.19-16.08,16.08s7.21,16.08,16.08,16.08h144.32c8.88,0,16.08-7.2,16.08-16.08s-7.21-16.08-16.08-16.08h0Zm0,0"/><path class="cls-3" d="M905.74,574.34l-95.76-55.29c-11.92-6.88-25.79-8.7-39.08-5.14-13.29,3.55-24.4,12.07-31.28,23.99l-33.03,57.22V29.25c0-16.13-13.12-29.25-29.25-29.25H29.92C13.81,0,.69,13.12,.69,29.25v123.55c0,8.88,7.21,16.08,16.08,16.08s16.08-7.2,16.08-16.08V32.17H674.43V609.85c-8.15-2.41-16.82-2.59-25.24-.33-12.06,3.24-22.14,10.97-28.38,21.79l-6.53,11.31c-6.24,10.81-7.91,23.41-4.68,35.48,2.94,10.96,9.63,20.25,18.92,26.54l-118.78,205.74H32.86V227.85c0-8.88-7.2-16.08-16.08-16.08S.69,218.97,.69,227.85V913.29c0,16.13,13.11,29.25,29.23,29.25H494.51c-16.38,52.27,4.95,110.89,54.33,139.39,18.43,10.65,38.88,16.08,59.61,16.08,10.4,0,20.87-1.36,31.16-4.13,30.87-8.27,56.67-28.06,72.65-55.74l5.3-9.19c4.45-7.69,1.81-17.53-5.88-21.97-7.69-4.43-17.53-1.81-21.97,5.89l-5.3,9.19c-11.68,20.23-30.54,34.7-53.11,40.76-22.56,6.04-46.14,2.94-66.37-8.74-41.87-24.17-56.19-77.62-32.02-119.49l35.32-61.17h202.01l-43.54,75.42c-4.45,7.69-1.81,17.53,5.88,21.97,7.69,4.42,17.53,1.81,21.97-5.89l81.17-140.61c6.5,3.16,13.44,4.67,20.29,4.67,16.17,0,31.91-8.38,40.57-23.36l6.53-11.33c12.89-22.31,5.2-50.97-17.11-63.86l-8.2-4.74,46.78-81.01c14.19-24.6,5.74-56.15-18.84-70.35h0Zm-318.95,266.91l69.5-120.38,151.52,87.47-19,32.92h-202.01Zm288.47-63.04l-6.54,11.33c-4.02,6.96-12.96,9.35-19.91,5.33l-201.35-116.24c-6.96-4.02-9.37-12.92-5.33-19.92l6.54-11.33c4.01-6.95,12.91-9.38,19.91-5.33l201.34,116.24c6.96,4.02,9.36,12.96,5.34,19.92h0Zm21.47-149.61l-46.78,81.01-129.23-74.61,46.77-81.02c5.34-9.22,17.18-12.4,26.42-7.07l95.76,55.29c9.22,5.33,12.4,17.18,7.07,26.4h0Zm0,0"/></g><path class="cls-3" d="M558.94,402.56H148.32c-14.78,0-26.81,12.03-26.81,26.81v49.69c0,14.78,12.03,26.81,26.81,26.81h410.62c14.79,0,26.81-12.03,26.81-26.81v-49.69c0-14.78-12.03-26.81-26.81-26.81h0Zm-405.26,32.17h183.86v38.97H153.68v-38.97Zm399.9,38.97h-183.86v-38.97h183.86v38.97Zm0,0"/></svg>