<?xml version="1.0" encoding="UTF-8" standalone="no"?>
<svg
   xmlns:dc="http://purl.org/dc/elements/1.1/"
   xmlns:cc="http://creativecommons.org/ns#"
   xmlns:rdf="http://www.w3.org/1999/02/22-rdf-syntax-ns#"
   xmlns:svg="http://www.w3.org/2000/svg"
   xmlns="http://www.w3.org/2000/svg"
   xmlns:sodipodi="http://sodipodi.sourceforge.net/DTD/sodipodi-0.dtd"
   xmlns:inkscape="http://www.inkscape.org/namespaces/inkscape"
   version="1.1"
   id="Layer_1"
   x="0px"
   y="0px"
   viewBox="0 0 128.09148 150"
   xml:space="preserve"
   width="128.09148"
   height="150"
   sodipodi:docname="svgexport-4.svg"
   inkscape:version="1.0.2 (e86c8708, 2021-01-15)"><metadata
   id="metadata29"><rdf:RDF><cc:Work
       rdf:about=""><dc:format>image/svg+xml</dc:format><dc:type
         rdf:resource="http://purl.org/dc/dcmitype/StillImage" /><dc:title /></cc:Work></rdf:RDF></metadata><defs
   id="defs27" /><sodipodi:namedview
   pagecolor="#ffffff"
   bordercolor="#666666"
   borderopacity="1"
   objecttolerance="10"
   gridtolerance="10"
   guidetolerance="10"
   inkscape:pageopacity="0"
   inkscape:pageshadow="2"
   inkscape:window-width="1233"
   inkscape:window-height="786"
   id="namedview25"
   showgrid="false"
   inkscape:zoom="1"
   inkscape:cx="64.045736"
   inkscape:cy="75"
   inkscape:window-x="1885"
   inkscape:window-y="168"
   inkscape:window-maximized="0"
   inkscape:current-layer="Layer_1"
   inkscape:document-rotation="0" />
<g
   id="g22"
   transform="matrix(0.14177707,0,0,0.14177707,-13.810788,-2.6939061)">
	<path
   style="fill:#66c7c6"
   d="m 974.202,205.946 h -60.259 v -18.512 c 0,-24.475 -19.898,-44.386 -44.362,-44.386 h -20.956 v -15.605 c 0,-12.784 -10.373,-23.193 -23.138,-23.246 v -27.1 c 0,-32.04 -26.067,-58.096 -58.096,-58.096 -32.04,0 -58.096,26.056 -58.096,58.096 v 27.1 c -12.776,0.052 -23.149,10.462 -23.149,23.246 v 78.504 H 319.917 c -14.713,0 -26.67,11.955 -26.67,26.657 v 188.938 c 0,8.555 6.932,15.498 15.498,15.498 8.558,0 15.498,-6.943 15.498,-15.498 v -184.6 h 361.902 v 91.6 c 0,82.279 15.239,239.94 59.796,308.636 4.736,7.299 12.754,11.657 21.449,11.657 8.695,0 16.702,-4.359 21.438,-11.657 22.386,-34.515 36.099,-90.652 43.587,-131.002 1.562,-8.414 -3.992,-16.509 -12.407,-18.069 -8.428,-1.562 -16.512,3.992 -18.071,12.409 -1.389,7.511 -2.874,14.776 -4.414,21.827 H 737.167 C 727.524,477.86 721.272,426.77 718.613,378.973 h 97.562 c -0.915,16.683 -2.27,33.644 -4.036,50.423 -0.893,8.514 5.273,16.143 13.787,17.038 8.503,0.882 16.143,-5.273 17.038,-13.787 3.7,-35.214 5.659,-71.206 5.659,-104.106 v -91.6 h 34.322 v 47.387 c 0,8.555 6.943,15.498 15.498,15.498 8.558,0 15.498,-6.943 15.498,-15.498 v -47.387 h 55.945 v 809.061 H 826.572 c -8.555,0 -15.498,6.943 -15.498,15.498 0,8.555 6.943,15.498 15.498,15.498 h 147.63 c 14.713,0 26.681,-11.958 26.681,-26.659 V 232.603 c 0,-14.702 -11.968,-26.657 -26.681,-26.657 z M 767.391,49.996 c 14.939,0 27.1,12.161 27.1,27.1 v 27.1 h -54.2 v -27.1 c -0.001,-14.938 12.161,-27.1 27.1,-27.1 z m 22.493,503.344 c -6.747,24.312 -14.39,44.524 -22.505,59.322 -8.599,-15.553 -16.143,-35.969 -22.601,-59.322 z M 717.378,347.977 c -0.152,-6.596 -0.237,-13.087 -0.237,-19.435 0,-50.123 0,-143.466 0,-193.349 H 817.64 v 193.349 c 0,6.359 -0.096,12.872 -0.248,19.435 z M 848.625,205.946 v -31.902 h 20.956 c 7.373,0 13.366,6.006 13.366,13.39 v 18.512 z m 0,0"
   id="path10" />
	<path
   style="fill:#66c7c6"
   d="M 754.259,1046.004 H 379.973 c 9.825,-13.013 15.658,-29.211 15.658,-46.731 0,-40.725 -31.489,-74.209 -71.388,-77.446 v -54.06 c 9.836,-3.777 19.072,-9.613 26.993,-17.534 30.307,-30.307 30.307,-79.62 0,-109.927 L 324.243,713.313 V 493.866 c 0,-8.569 -6.94,-15.498 -15.498,-15.498 -8.566,0 -15.498,6.929 -15.498,15.498 v 188.451 l -42.965,-42.954 c -30.371,-30.382 -79.535,-30.382 -109.916,0 -30.307,30.307 -30.307,79.612 0,109.919 l 100.943,100.951 c 14.388,14.379 33.051,21.923 51.938,22.656 v 48.657 H 175.139 c -42.857,0 -77.727,34.87 -77.727,77.727 0,42.857 34.87,77.727 77.727,77.727 h 579.12 c 8.558,0 15.498,-6.943 15.498,-15.498 0,-8.555 -6.94,-15.498 -15.498,-15.498 z M 364.634,999.273 c 0,25.315 -20.242,45.979 -45.395,46.698 -0.196,0 -0.388,0.011 -0.592,0.011 -0.248,0.011 -0.496,0.022 -0.744,0.022 h -55.878 v -93.462 h 55.878 c 25.767,0 46.731,20.967 46.731,46.731 z M 162.278,661.275 c 18.264,-18.264 47.828,-18.264 66.092,0 l 39.51,39.51 -66.081,66.092 -39.521,-39.507 c -18.22,-18.223 -18.22,-47.872 0,-66.095 z m 61.433,127.525 66.092,-66.092 c 57.43,57.43 29.833,29.833 39.521,39.51 18.22,18.231 18.22,47.872 0,66.092 -18.22,18.223 -47.872,18.223 -66.092,0 z m -95.303,210.473 c 0,-25.764 20.964,-46.731 46.731,-46.731 h 55.878 v 93.462 h -55.878 c -25.766,0 -46.731,-20.965 -46.731,-46.731 z m 0,0"
   id="path12" />
	<path
   style="fill:#66c7c6"
   d="m 574.504,366.2 c 0,-31.192 -25.378,-56.581 -56.578,-56.581 h -58.904 c -8.555,0 -15.498,6.943 -15.498,15.498 v 153.269 c 0,8.558 6.943,15.498 15.498,15.498 8.558,0 15.498,-6.94 15.498,-15.498 V 422.79 h 4.414 l 52.272,52.272 -24.375,24.378 c -6.05,6.048 -6.05,15.864 0,21.912 6.059,6.059 15.862,6.059 21.923,0 l 24.375,-24.378 22.086,22.097 c 6.059,6.048 15.876,6.048 21.923,0 6.048,-6.048 6.048,-15.865 0,-21.912 l -22.097,-22.097 24.378,-24.375 c 6.048,-6.05 6.048,-15.864 0,-21.912 -6.059,-6.061 -15.865,-6.061 -21.923,0 l -24.367,24.364 -30.564,-30.555 c 29.038,-2.379 51.939,-26.746 51.939,-56.384 z m -30.996,0 c 0,14.109 -11.484,25.593 -25.582,25.593 H 474.52 v -51.178 h 43.406 c 14.098,0 25.582,11.484 25.582,25.585 z m 0,0"
   id="path14" />
	<path
   style="fill:#66c7c6"
   d="m 459.022,640.214 h 122.466 c 8.569,0 15.498,-6.943 15.498,-15.498 0,-8.558 -6.929,-15.498 -15.498,-15.498 H 459.022 c -8.555,0 -15.498,6.94 -15.498,15.498 0,8.555 6.943,15.498 15.498,15.498 z m 0,0"
   id="path16" />
	<path
   style="fill:#66c7c6"
   d="M 834.119,758.903 H 460.011 c -8.566,0 -15.498,6.94 -15.498,15.498 0,8.555 6.932,15.498 15.498,15.498 h 374.108 c 8.555,0 15.498,-6.943 15.498,-15.498 0,-8.558 -6.943,-15.498 -15.498,-15.498 z m 0,0"
   id="path18" />
	<path
   style="fill:#66c7c6"
   d="M 834.119,908.588 H 460.011 c -8.566,0 -15.498,6.943 -15.498,15.498 0,8.566 6.932,15.498 15.498,15.498 h 374.108 c 8.555,0 15.498,-6.932 15.498,-15.498 0,-8.555 -6.943,-15.498 -15.498,-15.498 z m 0,0"
   id="path20" />
</g>
</svg>
