<?xml version="1.0" encoding="UTF-8" standalone="no"?>
<svg
   xmlns:dc="http://purl.org/dc/elements/1.1/"
   xmlns:cc="http://creativecommons.org/ns#"
   xmlns:rdf="http://www.w3.org/1999/02/22-rdf-syntax-ns#"
   xmlns:svg="http://www.w3.org/2000/svg"
   xmlns="http://www.w3.org/2000/svg"
   xmlns:sodipodi="http://sodipodi.sourceforge.net/DTD/sodipodi-0.dtd"
   xmlns:inkscape="http://www.inkscape.org/namespaces/inkscape"
   id="Layer_1"
   viewBox="0 0 175 175"
   width="175"
   height="175"
   version="1.1"
   sodipodi:docname="svgexport-9.svg"
   inkscape:version="1.0.2 (e86c8708, 2021-01-15)">
  <metadata
     id="metadata158">
    <rdf:RDF>
      <cc:Work
         rdf:about="">
        <dc:format>image/svg+xml</dc:format>
        <dc:type
           rdf:resource="http://purl.org/dc/dcmitype/StillImage" />
        <dc:title></dc:title>
      </cc:Work>
    </rdf:RDF>
  </metadata>
  <sodipodi:namedview
     pagecolor="#ffffff"
     bordercolor="#666666"
     borderopacity="1"
     objecttolerance="10"
     gridtolerance="10"
     guidetolerance="10"
     inkscape:pageopacity="0"
     inkscape:pageshadow="2"
     inkscape:window-width="1394"
     inkscape:window-height="944"
     id="namedview156"
     showgrid="false"
     inkscape:zoom="0.73402881"
     inkscape:cx="533"
     inkscape:cy="527.0518"
     inkscape:window-x="2233"
     inkscape:window-y="247"
     inkscape:window-maximized="0"
     inkscape:current-layer="Layer_1" />
  <defs
     id="defs145">
    <style
       id="style140">.cls-1{clip-path:url(#clippath);}.cls-2{fill:none;}.cls-3{fill:#66c8c7;}</style>
    <clipPath
       id="clippath">
      <rect
         class="cls-2"
         width="1066"
         height="1066"
         id="rect142"
         x="0"
         y="0" />
    </clipPath>
  </defs>
  <path
     class="cls-3"
     d="M 65.071122,112.27299 V 85.736705 c 0,-5.291945 -4.306285,-9.59823 -9.59823,-9.59823 -1.478492,0 -2.864477,0.363642 -4.1133,0.961737 V 61.055314 c 0,-5.291945 -4.306284,-9.59823 -9.59823,-9.59823 -1.478491,0 -2.864477,0.363642 -4.113299,0.961737 v -7.818299 c 0,-5.291945 -4.306285,-9.59823 -9.59823,-9.59823 -4.456208,0 -8.181941,3.070221 -9.255323,7.194685 C 17.100705,41.126786 15.111839,40.487223 12.966672,40.487223 6.920329,40.488818 2,45.409147 2,51.457084 v 46.617924 c 0,0.459337 0.1164292,0.9107 0.3333383,1.314215 L 18.786536,129.55395 c 0.127593,0.22648 0.28549,0.44179 0.470501,0.62521 l 21.467627,21.46922 c 1.529528,1.52953 2.40833,3.65077 2.40833,5.81667 v 11.90927 c 0,1.51358 1.228088,2.74167 2.741667,2.74167 h 32.906395 c 1.51358,0 2.741668,-1.22809 2.741668,-2.74167 v -34.06749 c 0,-3.4849 -1.311024,-6.80872 -3.68905,-9.3574 L 65.067932,112.27139 Z m -9.59823,-30.649584 c 2.267976,0 4.113299,1.845323 4.113299,4.113299 V 106.39571 L 51.359592,97.583773 V 85.736705 c 0,-2.267976 1.845323,-4.113299 4.1133,-4.113299 z M 41.761362,56.94361 c 2.267977,0 4.113299,1.845323 4.113299,4.113299 V 91.706492 L 44.021364,89.720816 C 42.472697,88.062099 40.281276,87.106742 38.00692,87.106742 H 37.648063 V 61.055314 c 0,-2.267976 1.845322,-4.113299 4.113299,-4.113299 v 0 z M 23.936533,44.603712 c 0,-2.267977 1.845323,-4.1133 4.1133,-4.1133 2.267976,0 4.113299,1.845323 4.113299,4.1133 V 89.24234 c -1.216924,1.09571 -2.124434,2.537518 -2.516784,4.185071 L 23.936533,86.160954 V 44.602117 Z M 76.039388,166.63266 H 48.616329 v -9.16761 c 0,-3.65874 -1.425858,-7.10537 -4.014414,-9.69392 L 23.413399,126.58261 7.4833359,97.376433 V 51.457084 c 0,-3.023969 2.4609619,-5.484931 5.4849311,-5.484931 3.023968,0 5.48493,2.460962 5.48493,5.484931 v 35.649658 c 0,0.614044 0.205745,1.208949 0.586931,1.693805 l 30.164727,38.391323 4.309474,-3.38601 -18.607934,-23.68776 v -4.78476 c 0,-1.510389 1.231278,-2.741667 2.741668,-2.741667 h 0.358857 c 0.757587,0 1.486465,0.317389 2.004815,0.869231 l 33.817094,36.231806 c 1.422669,1.52953 2.210559,3.52318 2.210559,5.61412 v 31.32423 z m 0,0"
     id="path147"
     style="stroke-width:0.159492" />
  <g
     class="cls-1"
     clip-path="url(#clippath)"
     id="g153"
     transform="matrix(0.15949203,0,0,0.15949203,2,2.0974919)">
    <path
       class="cls-3"
       d="m 997.23,240.71 c -13.44,0 -25.91,4.02 -36.54,10.72 -6.73,-25.86 -30.09,-45.11 -58.03,-45.11 -33.18,0 -60.18,27 -60.18,60.18 v 49.02 c -7.83,-3.75 -16.52,-6.03 -25.79,-6.03 -33.18,0 -60.18,27 -60.18,60.18 v 100.6 c -7.83,-3.75 -16.52,-6.03 -25.79,-6.03 -33.18,0 -60.18,27 -60.18,60.18 V 690.8 l -80.04,85.76 c -14.91,15.97 -23.13,36.82 -23.13,58.67 v 213.6 c 0,9.49 7.7,17.19 17.19,17.19 h 206.32 c 9.49,0 17.19,-7.7 17.19,-17.19 v -74.67 c 0,-13.58 5.51,-26.85 15.1,-36.47 l 134.6,-134.61 c 1.15,-1.15 2.15,-2.5 2.95,-3.92 l 103.16,-189.13 c 1.36,-2.53 2.09,-5.36 2.09,-8.24 V 309.48 c 0,-37.92 -30.85,-68.77 -68.77,-68.77 v 0 z M 876.88,266.5 c 0,-14.22 11.57,-25.79 25.79,-25.79 14.22,0 25.79,11.57 25.79,25.79 v 260.56 l -35.8,45.53 c -2.46,-10.33 -8.15,-19.34 -15.78,-26.24 z m -85.97,103.16 c 0,-14.22 11.57,-25.79 25.79,-25.79 14.22,0 25.79,11.57 25.79,25.79 V 533 h -2.25 c -14.26,0 -28,5.99 -37.71,16.39 l -11.62,12.46 V 369.67 Z M 704.94,524.4 c 0,-14.22 11.57,-25.79 25.79,-25.79 14.22,0 25.79,11.57 25.79,25.79 v 74.28 l -51.58,55.25 z m 326.68,72.98 -99.88,183.09 -132.85,132.86 c -16.23,16.24 -25.17,37.82 -25.17,60.79 v 57.48 H 601.78 V 835.2 c 0,-13.12 4.94,-25.61 13.88,-35.19 L 827.69,572.84 c 3.22,-3.47 7.8,-5.46 12.55,-5.46 h 2.25 c 9.47,0 17.19,7.72 17.19,17.19 v 30 L 743.01,763.08 770.03,784.31 959.16,543.6 c 2.4,-3.03 3.68,-6.76 3.68,-10.61 V 309.47 c 0,-18.96 15.43,-34.39 34.39,-34.39 18.96,0 34.39,15.43 34.39,34.39 v 287.9 z m 0,0"
       id="path149" />
    <path
       class="cls-3"
       d="M 790.59,141.65 C 787.7,95.25 764.44,53.45 726.81,26.96 671.87,-11.68 597.67,-8.31 546.34,35.16 L 533,46.46 519.65,35.16 c -51.32,-43.47 -125.52,-46.84 -180.47,-8.2 -37.64,26.5 -60.91,68.29 -63.79,114.69 -2.9,46.52 15.04,91.04 49.26,122.13 l 196.77,178.98 c 3.29,2.97 7.43,4.46 11.57,4.46 4.14,0 8.28,-1.5 11.57,-4.46 L 741.33,263.78 c 34.2,-31.1 52.15,-75.61 49.24,-122.13 v 0 z M 533,406.82 347.79,238.38 c -26.44,-24.06 -40.32,-58.52 -38.06,-94.56 2.23,-35.92 20.19,-68.26 49.25,-88.7 19.59,-13.79 42.35,-20.6 65.08,-20.6 26.17,0 52.29,9.02 73.34,26.89 l 24.47,20.73 c 6.41,5.42 15.82,5.42 22.23,0 L 568.59,61.4 c 39.34,-33.35 96.3,-35.95 138.42,-6.3 29.06,20.45 47.02,52.79 49.25,88.71 2.26,36.05 -11.62,70.52 -38.06,94.56 L 532.99,406.82 Z m 0,0"
       id="path151" />
  </g>
</svg>
