<?xml version="1.0" encoding="UTF-8" standalone="no"?>
<svg
   xmlns:dc="http://purl.org/dc/elements/1.1/"
   xmlns:cc="http://creativecommons.org/ns#"
   xmlns:rdf="http://www.w3.org/1999/02/22-rdf-syntax-ns#"
   xmlns:svg="http://www.w3.org/2000/svg"
   xmlns="http://www.w3.org/2000/svg"
   xmlns:xlink="http://www.w3.org/1999/xlink"
   xmlns:sodipodi="http://sodipodi.sourceforge.net/DTD/sodipodi-0.dtd"
   xmlns:inkscape="http://www.inkscape.org/namespaces/inkscape"
   version="1.1"
   id="Layer_1"
   x="0px"
   y="0px"
   viewBox="0 0 130 130"
   xml:space="preserve"
   width="130"
   height="130"
   sodipodi:docname="svgexport-8.svg"
   inkscape:version="1.0.2 (e86c8708, 2021-01-15)"><metadata
   id="metadata138"><rdf:RDF><cc:Work
       rdf:about=""><dc:format>image/svg+xml</dc:format><dc:type
         rdf:resource="http://purl.org/dc/dcmitype/StillImage" /><dc:title></dc:title></cc:Work></rdf:RDF></metadata><defs
   id="defs136" /><sodipodi:namedview
   pagecolor="#ffffff"
   bordercolor="#666666"
   borderopacity="1"
   objecttolerance="10"
   gridtolerance="10"
   guidetolerance="10"
   inkscape:pageopacity="0"
   inkscape:pageshadow="2"
   inkscape:window-width="994"
   inkscape:window-height="992"
   id="namedview134"
   showgrid="false"
   inkscape:zoom="1.3694268"
   inkscape:cx="67.500062"
   inkscape:cy="75"
   inkscape:window-x="2672"
   inkscape:window-y="130"
   inkscape:window-maximized="0"
   inkscape:current-layer="Layer_1"
   inkscape:document-rotation="0" />
<g
   id="g131"
   transform="matrix(0.11926616,0,0,0.11926616,-0.3257473,-2.7431192)">
	<path
   style="fill:#66c8c7"
   d="m 201.167,132 c 0,10.028 -8.139,18.167 -18.167,18.167 -10.028,0 -18.167,-8.139 -18.167,-18.167 0,-10.028 8.139,-18.167 18.167,-18.167 10.028,0 18.167,8.139 18.167,18.167 z m 0,0"
   id="path93" />
	<path
   style="fill:#66c8c7"
   d="m 273.833,132 c 0,10.028 -8.139,18.167 -18.167,18.167 -10.028,0 -18.167,-8.139 -18.167,-18.167 0,-10.028 8.139,-18.167 18.167,-18.167 10.029,0 18.167,8.139 18.167,18.167 z m 0,0"
   id="path95" />
	<path
   style="fill:#66c8c7"
   d="m 346.5,132 c 0,10.028 -8.139,18.167 -18.167,18.167 -10.028,0 -18.167,-8.139 -18.167,-18.167 0,-10.028 8.139,-18.167 18.167,-18.167 10.028,0 18.167,8.139 18.167,18.167 z m 0,0"
   id="path97" />
	<path
   style="fill:#66c8c7"
   d="m 782.5,887.739 c -10.028,0 -18.167,8.124 -18.167,18.167 v 116.261 c 0,30.099 -24.401,54.5 -54.5,54.5 h -545 c -30.099,0 -54.5,-24.401 -54.5,-54.5 V 113.833 c 0,-30.099 24.401,-54.5 54.5,-54.5 h 545 c 30.099,0 54.5,24.401 54.5,54.5 v 54.5 c 0,10.028 8.139,18.167 18.167,18.167 10.028,0 18.167,-8.139 18.167,-18.167 v -54.5 C 800.667,63.663 760.004,23 709.834,23 h -545 C 114.663,23 74,63.663 74,113.833 v 908.333 c 0,50.17 40.663,90.833 90.833,90.833 h 545 c 50.17,0 90.833,-40.663 90.833,-90.833 v -116.26 c 10e-4,-10.043 -8.138,-18.167 -18.166,-18.167 z m 0,0"
   id="path99" />
	<g
   id="g111">
		<defs
   id="defs102">
			<rect
   id="SVGID_1_"
   x="74"
   y="23"
   width="981"
   height="1090" />
		</defs>
		<clipPath
   id="SVGID_00000054225072266919286750000002382134540196487837_">
			<use
   xlink:href="#SVGID_1_"
   style="overflow:visible"
   id="use104"
   x="0"
   y="0"
   width="100%"
   height="100%" />
		</clipPath>
		<path
   style="fill:#66c8c7"
   d="m 510,1040.333 c 30.099,0 54.5,-24.401 54.5,-54.5 0,-30.099 -24.401,-54.5 -54.5,-54.5 H 364.667 c -30.099,0 -54.5,24.401 -54.5,54.5 0,30.099 24.401,54.5 54.5,54.5 z m -163.5,-54.5 c 0,-10.028 8.139,-18.167 18.167,-18.167 H 510 c 10.028,0 18.167,8.139 18.167,18.167 0,10.028 -8.139,18.167 -18.167,18.167 H 364.667 c -10.028,0 -18.167,-8.139 -18.167,-18.167 z m 0,0"
   clip-path="url(#SVGID_00000054225072266919286750000002382134540196487837_)"
   id="path107" />
		<path
   style="fill:#66c8c7"
   d="m 1036.833,295.5 c -10.028,0 -18.167,8.139 -18.167,18.167 V 838.678 L 675.322,804.167 c -5.123,-0.472 -10.21,1.241 -13.994,4.72 -3.806,3.44 -5.983,8.326 -5.995,13.446 v 36.333 h -72.667 v -36.333 c -0.012,-5.12 -2.189,-10.007 -5.995,-13.446 -3.785,-3.479 -8.871,-5.193 -13.994,-4.72 L 219.333,838.678 V 313.667 c 0,-10.028 -8.139,-18.167 -18.167,-18.167 -10.028,0 -18.167,8.139 -18.167,18.167 v 545 c -0.024,5.144 2.141,10.064 5.95,13.531 3.809,3.464 8.905,5.156 14.04,4.635 l 343.344,-34.511 v 16.344 c 0,20.071 16.262,36.333 36.333,36.333 h 72.667 c 20.071,0 36.333,-16.262 36.333,-36.333 v -16.344 l 343.344,34.511 c 5.135,0.521 10.231,-1.172 14.04,-4.635 3.809,-3.467 5.974,-8.387 5.95,-13.531 v -545 c 0,-10.028 -8.139,-18.167 -18.167,-18.167 z m 0,0"
   clip-path="url(#SVGID_00000054225072266919286750000002382134540196487837_)"
   id="path109" />
	</g>
	<path
   style="fill:#66c8c7"
   d="m 528.167,368.167 h -36.333 v -36.333 c 0,-10.028 -8.139,-18.167 -18.167,-18.167 H 401 c -10.028,0 -18.167,8.139 -18.167,18.167 v 36.333 H 346.5 c -10.028,0 -18.167,8.139 -18.167,18.167 V 459 c 0,10.028 8.139,18.167 18.167,18.167 h 36.333 V 513.5 c 0,10.028 8.139,18.167 18.167,18.167 h 72.667 c 10.028,0 18.167,-8.139 18.167,-18.167 v -36.333 h 36.333 c 10.028,0 18.167,-8.139 18.167,-18.167 v -72.667 c -10e-4,-10.028 -8.139,-18.166 -18.167,-18.166 z M 510,440.833 h -36.333 c -10.028,0 -18.167,8.139 -18.167,18.167 v 36.333 H 419.167 V 459 c 0,-10.028 -8.139,-18.167 -18.167,-18.167 H 364.667 V 404.5 H 401 c 10.028,0 18.167,-8.139 18.167,-18.167 V 350 H 455.5 v 36.333 c 0,10.028 8.139,18.167 18.167,18.167 H 510 Z m 0,0"
   id="path113" />
	<path
   style="fill:#66c8c7"
   d="M 528.167,568 H 382.833 c -10.028,0 -18.167,8.139 -18.167,18.167 0,10.028 8.139,18.167 18.167,18.167 h 145.333 c 10.028,0 18.167,-8.139 18.167,-18.167 0,-10.028 -8.138,-18.167 -18.166,-18.167 z m 0,0"
   id="path115" />
	<path
   style="fill:#66c8c7"
   d="m 455.5,640.667 h -109 c -10.028,0 -18.167,8.139 -18.167,18.167 0,10.028 8.139,18.167 18.167,18.167 h 109 c 10.028,0 18.167,-8.139 18.167,-18.167 0,-10.029 -8.139,-18.167 -18.167,-18.167 z m 0,0"
   id="path117" />
	<path
   style="fill:#66c8c7"
   d="m 840.821,564.179 c -21.043,-20.141 -53.731,-21.618 -76.488,-3.44 -22.757,-18.179 -55.445,-16.701 -76.488,3.44 -22.021,22.236 -22.021,58.073 0,80.309 l 63.583,63.583 c 3.418,3.43 8.054,5.368 12.904,5.368 4.85,0 9.486,-1.938 12.904,-5.368 l 63.583,-63.583 c 22.023,-22.236 22.023,-58.073 0.002,-80.309 z m -25.809,54.5 -50.679,50.87 -50.679,-50.87 c -4.269,-3.688 -6.8,-8.999 -7.003,-14.642 -0.2,-5.641 1.965,-11.106 5.95,-15.102 3.997,-3.985 9.462,-6.149 15.102,-5.95 5.644,0.203 10.955,2.734 14.642,7.003 l 9.083,9.083 c 3.418,3.43 8.054,5.368 12.904,5.368 4.85,0 9.486,-1.938 12.904,-5.368 l 9.083,-9.083 c 7.972,-7.806 20.719,-7.806 28.691,0 3.845,3.785 6.01,8.953 6.01,14.346 0.002,5.392 -2.162,10.56 -6.008,14.345 z m 0,0"
   id="path119" />
	<path
   style="fill:#66c8c7"
   d="M 855.167,713.333 H 891.5 c 10.028,0 18.167,-8.139 18.167,-18.167 0,-10.028 -8.139,-18.167 -18.167,-18.167 H 855.167 C 845.139,677 837,685.139 837,695.167 c 0,10.028 8.139,18.166 18.167,18.166 z m 0,0"
   id="path121" />
	<path
   style="fill:#66c8c7"
   d="M 891.5,477.167 H 709.833 c -10.028,0 -18.167,8.139 -18.167,18.167 0,10.028 8.139,18.167 18.167,18.167 H 891.5 c 10.028,0 18.167,-8.139 18.167,-18.167 0,-10.029 -8.139,-18.167 -18.167,-18.167 z m 0,0"
   id="path123" />
	<path
   style="fill:#66c8c7"
   d="M 891.5,404.5 H 709.833 c -10.028,0 -18.167,8.139 -18.167,18.167 0,10.028 8.139,18.167 18.167,18.167 H 891.5 c 10.028,0 18.167,-8.139 18.167,-18.167 0,-10.028 -8.139,-18.167 -18.167,-18.167 z m 0,0"
   id="path125" />
	<path
   style="fill:#66c8c7"
   d="M 891.5,331.833 H 764.333 c -10.028,0 -18.167,8.139 -18.167,18.167 0,10.028 8.139,18.167 18.167,18.167 H 891.5 c 10.028,0 18.167,-8.139 18.167,-18.167 0,-10.028 -8.139,-18.167 -18.167,-18.167 z m 0,0"
   id="path127" />
	<path
   style="fill:#66c8c7"
   d="m 624.819,229.373 c -2.189,1.998 -3.821,4.366 -5.819,6.54 -1.998,-2.174 -3.63,-4.542 -5.819,-6.54 -15.339,-13.767 -35.813,-20.377 -56.311,-18.167 L 272.011,241 c -9.307,0.936 -16.392,8.799 -16.344,18.167 V 786 c 0.012,5.12 2.189,10.007 5.995,13.446 3.337,3.028 7.666,4.708 12.172,4.72 h 1.823 L 619,767.833 962.344,804.166 h 1.823 c 4.505,-0.012 8.835,-1.693 12.172,-4.72 3.806,-3.44 5.983,-8.326 5.995,-13.446 V 568 c 0,-10.028 -8.139,-18.167 -18.167,-18.167 C 954.139,549.833 946,557.972 946,568 V 765.835 L 637.167,733.323 V 283.328 c 0.024,-10.252 4.375,-20.023 11.993,-26.881 7.639,-6.955 17.882,-10.328 28.161,-9.274 L 946,275.511 v 219.823 c 0,10.028 8.139,18.167 18.167,18.167 10.028,0 18.167,-8.139 18.167,-18.167 V 259.167 C 982.382,249.799 975.297,241.936 965.99,241 L 681.13,211.031 c -20.522,-2.165 -41.005,4.505 -56.311,18.342 z M 292,275.511 560.679,247.174 c 10.279,-1.087 20.534,2.259 28.198,9.189 7.663,6.943 12.017,16.807 11.957,27.144 V 733.323 L 292,765.835 Z m 0,0"
   id="path129" />
</g>
</svg>
