<svg xmlns="http://www.w3.org/2000/svg" xmlns:xlink="http://www.w3.org/1999/xlink" id="Layer_1" viewBox="0 0 1066 1066" width="1066"  height="1066" ><defs><style>.cls-1{clip-path:url(#clippath);}.cls-2{fill:none;}.cls-3{fill:#66c8c7;}</style><clipPath id="clippath"><rect class="cls-2" width="1066" height="1066"/></clipPath></defs><path class="cls-3" d="M395.45,690.79v-166.38c0-33.18-27-60.18-60.18-60.18-9.27,0-17.96,2.28-25.79,6.03v-100.6c0-33.18-27-60.18-60.18-60.18-9.27,0-17.96,2.28-25.79,6.03v-49.02c0-33.18-27-60.18-60.18-60.18-27.94,0-51.3,19.25-58.03,45.11-10.62-6.71-23.09-10.72-36.54-10.72C30.85,240.71,0,271.56,0,309.48v292.29c0,2.88,.73,5.71,2.09,8.24l103.16,189.13c.8,1.42,1.79,2.77,2.95,3.92l134.6,134.61c9.59,9.59,15.1,22.89,15.1,36.47v74.67c0,9.49,7.7,17.19,17.19,17.19h206.32c9.49,0,17.19-7.7,17.19-17.19v-213.6c0-21.85-8.22-42.69-23.13-58.67l-80.04-85.76Zm-60.18-192.17c14.22,0,25.79,11.57,25.79,25.79v129.53l-51.58-55.25v-74.28c0-14.22,11.57-25.79,25.79-25.79h0Zm-85.97-154.74c14.22,0,25.79,11.57,25.79,25.79v192.17l-11.62-12.45c-9.71-10.4-23.45-16.39-37.71-16.39h-2.25v-163.34c0-14.22,11.57-25.79,25.79-25.79h0Zm-111.76-77.37c0-14.22,11.57-25.79,25.79-25.79s25.79,11.57,25.79,25.79v279.88c-7.63,6.87-13.32,15.91-15.78,26.24l-35.8-45.56V266.5Zm326.68,765.11h-171.94v-57.48c0-22.94-8.94-44.55-25.17-60.78l-132.85-132.85-99.88-183.12V309.48c0-18.96,15.43-34.39,34.39-34.39s34.39,15.43,34.39,34.39v223.52c0,3.85,1.29,7.58,3.68,10.62l189.13,240.71,27.02-21.23-116.67-148.52v-30c0-9.47,7.72-17.19,17.19-17.19h2.25c4.75,0,9.32,1.99,12.57,5.45l212.03,227.17c8.92,9.59,13.86,22.09,13.86,35.2v196.4Zm0,0"/><g class="cls-1"><path class="cls-3" d="M997.23,240.71c-13.44,0-25.91,4.02-36.54,10.72-6.73-25.86-30.09-45.11-58.03-45.11-33.18,0-60.18,27-60.18,60.18v49.02c-7.83-3.75-16.52-6.03-25.79-6.03-33.18,0-60.18,27-60.18,60.18v100.6c-7.83-3.75-16.52-6.03-25.79-6.03-33.18,0-60.18,27-60.18,60.18v166.38l-80.04,85.76c-14.91,15.97-23.13,36.82-23.13,58.67v213.6c0,9.49,7.7,17.19,17.19,17.19h206.32c9.49,0,17.19-7.7,17.19-17.19v-74.67c0-13.58,5.51-26.85,15.1-36.47l134.6-134.61c1.15-1.15,2.15-2.5,2.95-3.92l103.16-189.13c1.36-2.53,2.09-5.36,2.09-8.24V309.48c0-37.92-30.85-68.77-68.77-68.77h0Zm-120.35,25.79c0-14.22,11.57-25.79,25.79-25.79s25.79,11.57,25.79,25.79v260.56l-35.8,45.53c-2.46-10.33-8.15-19.34-15.78-26.24V266.5Zm-85.97,103.16c0-14.22,11.57-25.79,25.79-25.79s25.79,11.57,25.79,25.79v163.34h-2.25c-14.26,0-28,5.99-37.71,16.39l-11.62,12.46v-192.18Zm-85.97,154.74c0-14.22,11.57-25.79,25.79-25.79s25.79,11.57,25.79,25.79v74.28l-51.58,55.25v-129.53Zm326.68,72.98l-99.88,183.09-132.85,132.86c-16.23,16.24-25.17,37.82-25.17,60.79v57.48h-171.94v-196.4c0-13.12,4.94-25.61,13.88-35.19l212.03-227.17c3.22-3.47,7.8-5.46,12.55-5.46h2.25c9.47,0,17.19,7.72,17.19,17.19v30l-116.67,148.51,27.02,21.23,189.13-240.71c2.4-3.03,3.68-6.76,3.68-10.61v-223.52c0-18.96,15.43-34.39,34.39-34.39s34.39,15.43,34.39,34.39v287.9Zm0,0"/><path class="cls-3" d="M790.59,141.65c-2.89-46.4-26.15-88.2-63.78-114.69-54.94-38.64-129.14-35.27-180.47,8.2l-13.34,11.3-13.35-11.3c-51.32-43.47-125.52-46.84-180.47-8.2-37.64,26.5-60.91,68.29-63.79,114.69-2.9,46.52,15.04,91.04,49.26,122.13l196.77,178.98c3.29,2.97,7.43,4.46,11.57,4.46s8.28-1.5,11.57-4.46l196.77-178.98c34.2-31.1,52.15-75.61,49.24-122.13h0Zm-257.59,265.17l-185.21-168.44c-26.44-24.06-40.32-58.52-38.06-94.56,2.23-35.92,20.19-68.26,49.25-88.7,19.59-13.79,42.35-20.6,65.08-20.6,26.17,0,52.29,9.02,73.34,26.89l24.47,20.73c6.41,5.42,15.82,5.42,22.23,0l24.49-20.74c39.34-33.35,96.3-35.95,138.42-6.3,29.06,20.45,47.02,52.79,49.25,88.71,2.26,36.05-11.62,70.52-38.06,94.56l-185.21,168.45Zm0,0"/></g></svg>