<svg xmlns="http://www.w3.org/2000/svg" xmlns:xlink="http://www.w3.org/1999/xlink" version="1.1" id="Layer_1" x="0px" y="0px" viewBox="0 0 1125 1125" style="enable-background:new 0 0 1125 1125;" xml:space="preserve" width="1125"  height="1125" >
<g>
	<path style="fill:#66C8C7;" d="M201.167,132c0,10.028-8.139,18.167-18.167,18.167c-10.028,0-18.167-8.139-18.167-18.167   c0-10.028,8.139-18.167,18.167-18.167C193.028,113.833,201.167,121.972,201.167,132L201.167,132z M201.167,132"/>
	<path style="fill:#66C8C7;" d="M273.833,132c0,10.028-8.139,18.167-18.167,18.167c-10.028,0-18.167-8.139-18.167-18.167   c0-10.028,8.139-18.167,18.167-18.167C265.695,113.833,273.833,121.972,273.833,132L273.833,132z M273.833,132"/>
	<path style="fill:#66C8C7;" d="M346.5,132c0,10.028-8.139,18.167-18.167,18.167c-10.028,0-18.167-8.139-18.167-18.167   c0-10.028,8.139-18.167,18.167-18.167C338.361,113.833,346.5,121.972,346.5,132L346.5,132z M346.5,132"/>
	<path style="fill:#66C8C7;" d="M782.5,887.739c-10.028,0-18.167,8.124-18.167,18.167v116.261c0,30.099-24.401,54.5-54.5,54.5h-545   c-30.099,0-54.5-24.401-54.5-54.5V113.833c0-30.099,24.401-54.5,54.5-54.5h545c30.099,0,54.5,24.401,54.5,54.5v54.5   c0,10.028,8.139,18.167,18.167,18.167s18.167-8.139,18.167-18.167v-54.5c0-50.17-40.663-90.833-90.833-90.833h-545   C114.663,23,74,63.663,74,113.833v908.333c0,50.17,40.663,90.833,90.833,90.833h545c50.17,0,90.833-40.663,90.833-90.833V905.906   C800.667,895.863,792.528,887.739,782.5,887.739L782.5,887.739z M782.5,887.739"/>
	<g>
		<defs>
			<rect id="SVGID_1_" x="74" y="23" width="981" height="1090"/>
		</defs>
		<clipPath id="SVGID_00000054225072266919286750000002382134540196487837_">
			<use xlink:href="#SVGID_1_" style="overflow:visible;"/>
		</clipPath>
		<path style="clip-path:url(#SVGID_00000054225072266919286750000002382134540196487837_);fill:#66C8C7;" d="M510,1040.333    c30.099,0,54.5-24.401,54.5-54.5c0-30.099-24.401-54.5-54.5-54.5H364.667c-30.099,0-54.5,24.401-54.5,54.5    c0,30.099,24.401,54.5,54.5,54.5H510z M346.5,985.833c0-10.028,8.139-18.167,18.167-18.167H510    c10.028,0,18.167,8.139,18.167,18.167c0,10.028-8.139,18.167-18.167,18.167H364.667C354.639,1004,346.5,995.861,346.5,985.833    L346.5,985.833z M346.5,985.833"/>
		<path style="clip-path:url(#SVGID_00000054225072266919286750000002382134540196487837_);fill:#66C8C7;" d="M1036.833,295.5    c-10.028,0-18.167,8.139-18.167,18.167v525.011l-343.344-34.511c-5.123-0.472-10.21,1.241-13.994,4.72    c-3.806,3.44-5.983,8.326-5.995,13.446v36.333h-72.667v-36.333c-0.012-5.12-2.189-10.007-5.995-13.446    c-3.785-3.479-8.871-5.193-13.994-4.72l-343.344,34.511V313.667c0-10.028-8.139-18.167-18.167-18.167    c-10.028,0-18.167,8.139-18.167,18.167v545c-0.024,5.144,2.141,10.064,5.95,13.531c3.809,3.464,8.905,5.156,14.04,4.635    l343.344-34.511v16.344c0,20.071,16.262,36.333,36.333,36.333h72.667c20.071,0,36.333-16.262,36.333-36.333v-16.344    l343.344,34.511c5.135,0.521,10.231-1.172,14.04-4.635c3.809-3.467,5.974-8.387,5.95-13.531v-545    C1055,303.639,1046.861,295.5,1036.833,295.5L1036.833,295.5z M1036.833,295.5"/>
	</g>
	<path style="fill:#66C8C7;" d="M528.167,368.167h-36.333v-36.333c0-10.028-8.139-18.167-18.167-18.167H401   c-10.028,0-18.167,8.139-18.167,18.167v36.333H346.5c-10.028,0-18.167,8.139-18.167,18.167V459   c0,10.028,8.139,18.167,18.167,18.167h36.333V513.5c0,10.028,8.139,18.167,18.167,18.167h72.667   c10.028,0,18.167-8.139,18.167-18.167v-36.333h36.333c10.028,0,18.167-8.139,18.167-18.167v-72.667   C546.333,376.305,538.195,368.167,528.167,368.167L528.167,368.167z M510,440.833h-36.333c-10.028,0-18.167,8.139-18.167,18.167   v36.333h-36.333V459c0-10.028-8.139-18.167-18.167-18.167h-36.333V404.5H401c10.028,0,18.167-8.139,18.167-18.167V350H455.5v36.333   c0,10.028,8.139,18.167,18.167,18.167H510V440.833z M510,440.833"/>
	<path style="fill:#66C8C7;" d="M528.167,568H382.833c-10.028,0-18.167,8.139-18.167,18.167c0,10.028,8.139,18.167,18.167,18.167   h145.333c10.028,0,18.167-8.139,18.167-18.167C546.333,576.139,538.195,568,528.167,568L528.167,568z M528.167,568"/>
	<path style="fill:#66C8C7;" d="M455.5,640.667h-109c-10.028,0-18.167,8.139-18.167,18.167c0,10.028,8.139,18.167,18.167,18.167h109   c10.028,0,18.167-8.139,18.167-18.167C473.667,648.805,465.528,640.667,455.5,640.667L455.5,640.667z M455.5,640.667"/>
	<path style="fill:#66C8C7;" d="M840.821,564.179c-21.043-20.141-53.731-21.618-76.488-3.44   c-22.757-18.179-55.445-16.701-76.488,3.44c-22.021,22.236-22.021,58.073,0,80.309l63.583,63.583   c3.418,3.43,8.054,5.368,12.904,5.368c4.85,0,9.486-1.938,12.904-5.368l63.583-63.583   C862.842,622.252,862.842,586.415,840.821,564.179L840.821,564.179z M815.012,618.679l-50.679,50.87l-50.679-50.87   c-4.269-3.688-6.8-8.999-7.003-14.642c-0.2-5.641,1.965-11.106,5.95-15.102c3.997-3.985,9.462-6.149,15.102-5.95   c5.644,0.203,10.955,2.734,14.642,7.003l9.083,9.083c3.418,3.43,8.054,5.368,12.904,5.368c4.85,0,9.486-1.938,12.904-5.368   l9.083-9.083c7.972-7.806,20.719-7.806,28.691,0c3.845,3.785,6.01,8.953,6.01,14.346   C821.022,609.726,818.858,614.894,815.012,618.679L815.012,618.679z M815.012,618.679"/>
	<path style="fill:#66C8C7;" d="M855.167,713.333H891.5c10.028,0,18.167-8.139,18.167-18.167c0-10.028-8.139-18.167-18.167-18.167   h-36.333C845.139,677,837,685.139,837,695.167C837,705.195,845.139,713.333,855.167,713.333L855.167,713.333z M855.167,713.333"/>
	<path style="fill:#66C8C7;" d="M891.5,477.167H709.833c-10.028,0-18.167,8.139-18.167,18.167c0,10.028,8.139,18.167,18.167,18.167   H891.5c10.028,0,18.167-8.139,18.167-18.167C909.667,485.305,901.528,477.167,891.5,477.167L891.5,477.167z M891.5,477.167"/>
	<path style="fill:#66C8C7;" d="M891.5,404.5H709.833c-10.028,0-18.167,8.139-18.167,18.167s8.139,18.167,18.167,18.167H891.5   c10.028,0,18.167-8.139,18.167-18.167S901.528,404.5,891.5,404.5L891.5,404.5z M891.5,404.5"/>
	<path style="fill:#66C8C7;" d="M891.5,331.833H764.333c-10.028,0-18.167,8.139-18.167,18.167c0,10.028,8.139,18.167,18.167,18.167   H891.5c10.028,0,18.167-8.139,18.167-18.167C909.667,339.972,901.528,331.833,891.5,331.833L891.5,331.833z M891.5,331.833"/>
	<path style="fill:#66C8C7;" d="M624.819,229.373c-2.189,1.998-3.821,4.366-5.819,6.54c-1.998-2.174-3.63-4.542-5.819-6.54   c-15.339-13.767-35.813-20.377-56.311-18.167L272.011,241c-9.307,0.936-16.392,8.799-16.344,18.167V786   c0.012,5.12,2.189,10.007,5.995,13.446c3.337,3.028,7.666,4.708,12.172,4.72h1.823L619,767.833l343.344,36.333h1.823   c4.505-0.012,8.835-1.693,12.172-4.72c3.806-3.44,5.983-8.326,5.995-13.446V568c0-10.028-8.139-18.167-18.167-18.167   C954.139,549.833,946,557.972,946,568v197.835l-308.833-32.512V283.328c0.024-10.252,4.375-20.023,11.993-26.881   c7.639-6.955,17.882-10.328,28.161-9.274L946,275.511v219.823c0,10.028,8.139,18.167,18.167,18.167   c10.028,0,18.167-8.139,18.167-18.167V259.167c0.048-9.368-7.037-17.231-16.344-18.167L681.13,211.031   C660.608,208.866,640.125,215.536,624.819,229.373L624.819,229.373z M292,275.511l268.679-28.337   c10.279-1.087,20.534,2.259,28.198,9.189c7.663,6.943,12.017,16.807,11.957,27.144v449.816L292,765.835V275.511z M292,275.511"/>
</g>
</svg>