<svg xmlns="http://www.w3.org/2000/svg" xmlns:xlink="http://www.w3.org/1999/xlink" version="1.1" id="Layer_1" x="0px" y="0px" viewBox="0 0 1125 1125" style="enable-background:new 0 0 1125 1125;" xml:space="preserve" width="1125"  height="1125" >
<g>
	<path style="fill:#66C7C6;" d="M974.202,205.946h-60.259v-18.512c0-24.475-19.898-44.386-44.362-44.386h-20.956v-15.605   c0-12.784-10.373-23.193-23.138-23.246v-27.1c0-32.04-26.067-58.096-58.096-58.096c-32.04,0-58.096,26.056-58.096,58.096v27.1   c-12.776,0.052-23.149,10.462-23.149,23.246v78.504H319.917c-14.713,0-26.67,11.955-26.67,26.657v188.938   c0,8.555,6.932,15.498,15.498,15.498c8.558,0,15.498-6.943,15.498-15.498V236.942h361.902v91.6   c0,82.279,15.239,239.94,59.796,308.636c4.736,7.299,12.754,11.657,21.449,11.657c8.695,0,16.702-4.359,21.438-11.657   c22.386-34.515,36.099-90.652,43.587-131.002c1.562-8.414-3.992-16.509-12.407-18.069c-8.428-1.562-16.512,3.992-18.071,12.409   c-1.389,7.511-2.874,14.776-4.414,21.827h-60.356c-9.643-44.483-15.895-95.573-18.554-143.37h97.562   c-0.915,16.683-2.27,33.644-4.036,50.423c-0.893,8.514,5.273,16.143,13.787,17.038c8.503,0.882,16.143-5.273,17.038-13.787   c3.7-35.214,5.659-71.206,5.659-104.106v-91.6h34.322v47.387c0,8.555,6.943,15.498,15.498,15.498   c8.558,0,15.498-6.943,15.498-15.498v-47.387h55.945v809.061H826.572c-8.555,0-15.498,6.943-15.498,15.498   c0,8.555,6.943,15.498,15.498,15.498h147.63c14.713,0,26.681-11.958,26.681-26.659V232.603   C1000.883,217.901,988.915,205.946,974.202,205.946L974.202,205.946z M767.391,49.996c14.939,0,27.1,12.161,27.1,27.1v27.1h-54.2   v-27.1C740.29,62.158,752.452,49.996,767.391,49.996L767.391,49.996z M789.884,553.34c-6.747,24.312-14.39,44.524-22.505,59.322   c-8.599-15.553-16.143-35.969-22.601-59.322H789.884z M717.378,347.977c-0.152-6.596-0.237-13.087-0.237-19.435   c0-50.123,0-143.466,0-193.349H817.64v193.349c0,6.359-0.096,12.872-0.248,19.435H717.378z M848.625,205.946v-31.902h20.956   c7.373,0,13.366,6.006,13.366,13.39v18.512H848.625z M848.625,205.946"/>
	<path style="fill:#66C7C6;" d="M754.259,1046.004H379.973c9.825-13.013,15.658-29.211,15.658-46.731   c0-40.725-31.489-74.209-71.388-77.446v-54.06c9.836-3.777,19.072-9.613,26.993-17.534c30.307-30.307,30.307-79.62,0-109.927   l-26.993-26.993V493.866c0-8.569-6.94-15.498-15.498-15.498c-8.566,0-15.498,6.929-15.498,15.498v188.451l-42.965-42.954   c-30.371-30.382-79.535-30.382-109.916,0c-30.307,30.307-30.307,79.612,0,109.919l100.943,100.951   c14.388,14.379,33.051,21.923,51.938,22.656v48.657H175.139c-42.857,0-77.727,34.87-77.727,77.727S132.282,1077,175.139,1077   h579.12c8.558,0,15.498-6.943,15.498-15.498C769.757,1052.947,762.817,1046.004,754.259,1046.004L754.259,1046.004z    M364.634,999.273c0,25.315-20.242,45.979-45.395,46.698c-0.196,0-0.388,0.011-0.592,0.011c-0.248,0.011-0.496,0.022-0.744,0.022   h-55.878v-93.462h55.878C343.67,952.542,364.634,973.509,364.634,999.273L364.634,999.273z M162.278,661.275   c18.264-18.264,47.828-18.264,66.092,0l39.51,39.51l-66.081,66.092l-39.521-39.507   C144.058,709.147,144.058,679.498,162.278,661.275L162.278,661.275z M223.711,788.8l66.092-66.092   c57.43,57.43,29.833,29.833,39.521,39.51c18.22,18.231,18.22,47.872,0,66.092c-18.22,18.223-47.872,18.223-66.092,0L223.711,788.8z    M128.408,999.273c0-25.764,20.964-46.731,46.731-46.731h55.878v93.462h-55.878C149.373,1046.004,128.408,1025.039,128.408,999.273   L128.408,999.273z M128.408,999.273"/>
	<path style="fill:#66C7C6;" d="M574.504,366.2c0-31.192-25.378-56.581-56.578-56.581h-58.904c-8.555,0-15.498,6.943-15.498,15.498   v153.269c0,8.558,6.943,15.498,15.498,15.498c8.558,0,15.498-6.94,15.498-15.498V422.79h4.414l52.272,52.272l-24.375,24.378   c-6.05,6.048-6.05,15.864,0,21.912c6.059,6.059,15.862,6.059,21.923,0l24.375-24.378l22.086,22.097   c6.059,6.048,15.876,6.048,21.923,0c6.048-6.048,6.048-15.865,0-21.912l-22.097-22.097l24.378-24.375   c6.048-6.05,6.048-15.864,0-21.912c-6.059-6.061-15.865-6.061-21.923,0l-24.367,24.364l-30.564-30.555   C551.603,420.205,574.504,395.838,574.504,366.2L574.504,366.2z M543.508,366.2c0,14.109-11.484,25.593-25.582,25.593H474.52   v-51.178h43.406C532.024,340.615,543.508,352.099,543.508,366.2L543.508,366.2z M543.508,366.2"/>
	<path style="fill:#66C7C6;" d="M459.022,640.214h122.466c8.569,0,15.498-6.943,15.498-15.498c0-8.558-6.929-15.498-15.498-15.498   H459.022c-8.555,0-15.498,6.94-15.498,15.498C443.524,633.271,450.467,640.214,459.022,640.214L459.022,640.214z M459.022,640.214"/>
	<path style="fill:#66C7C6;" d="M834.119,758.903H460.011c-8.566,0-15.498,6.94-15.498,15.498c0,8.555,6.932,15.498,15.498,15.498   h374.108c8.555,0,15.498-6.943,15.498-15.498C849.617,765.843,842.674,758.903,834.119,758.903L834.119,758.903z M834.119,758.903"/>
	<path style="fill:#66C7C6;" d="M834.119,908.588H460.011c-8.566,0-15.498,6.943-15.498,15.498c0,8.566,6.932,15.498,15.498,15.498   h374.108c8.555,0,15.498-6.932,15.498-15.498C849.617,915.531,842.674,908.588,834.119,908.588L834.119,908.588z M834.119,908.588"/>
</g>
</svg>