<svg xmlns="http://www.w3.org/2000/svg" xmlns:xlink="http://www.w3.org/1999/xlink" version="1.1" id="Layer_1" x="0px" y="0px" viewBox="0 0 1125 1125" style="enable-background:new 0 0 1125 1125;" xml:space="preserve" width="1125"  height="1125" >
<g>
	<path style="fill:#66C8C7;" d="M1065.411,888.389h-84.882c1.775-5.125,2.695-10.518,2.706-15.942V576.123   c0-9.072-7.363-16.435-16.435-16.435s-16.435,7.363-16.435,16.435v296.325c0,8.806-7.136,15.942-15.942,15.942H786.014v-49.957   c-0.696-132.722-89.41-248.849-217.272-284.415c47.497-28.055,76.911-78.869,77.574-134.028V214.55   c-1.69-44.662-37.513-80.485-82.175-82.175H416.225c-44.662,1.69-80.485,37.513-82.176,82.175v205.439   c0.663,55.288,30.216,106.206,77.905,134.187c-47.73,13.578-91.237,39.022-126.471,73.958   c-58.005,57.128-90.801,135.044-91.133,216.461v43.794h-16.928c-8.807,0-15.942-7.136-15.942-15.942V345.538   c0-4.227,1.679-8.281,4.665-11.277c2.997-2.986,7.051-4.665,11.277-4.665h107.321c9.072,0,16.435-7.363,16.435-16.435   c0-9.072-7.363-16.435-16.435-16.435H177.423c-26.844,0.268-48.544,21.968-48.812,48.812v526.909   c0.011,5.424,0.931,10.817,2.706,15.942H46.435c-9.072,0-16.435,7.363-16.435,16.435v4.109C30,945.912,59.832,987,99.849,987   h912.148c40.017,0,69.849-41.088,69.849-78.067v-4.109C1081.846,895.752,1074.483,888.389,1065.411,888.389L1065.411,888.389z    M366.919,214.55c1.616-26.537,22.768-47.689,49.305-49.305h147.916c26.537,1.616,47.689,22.768,49.305,49.305v82.175H366.919   V214.55z M366.919,419.989v-90.393h246.526v90.393c-1.69,67.367-55.896,121.573-123.263,123.263   C422.815,541.562,368.61,487.357,366.919,419.989L366.919,419.989z M227.221,844.595c0.331-72.599,29.575-142.065,81.277-193.038   c23.239-22.919,50.513-41.364,80.442-54.397c-8.218,22.105-14.959,47.582-18.736,62.294c-35.65,5.585-61.653,36.722-60.807,72.802   v106.828c0,9.072,7.363,16.435,16.435,16.435h16.435c9.072,0,16.435-7.363,16.435-16.435s-7.363-16.435-16.435-16.435v-90.393   c-0.397-11.011,3.81-21.7,11.598-29.49c7.79-7.787,18.479-11.995,29.49-11.598c11.012-0.397,21.7,3.81,29.49,11.598   c7.787,7.79,11.995,18.479,11.598,29.49v90.393c-9.072,0-16.435,7.363-16.435,16.435s7.363,16.435,16.435,16.435h16.435   c9.072,0,16.435-7.363,16.435-16.435V732.256c0.77-33.256-21.346-62.714-53.499-71.252c6.495-24.653,17.26-60.881,26.545-76.503   c0-0.493,0.408-0.986,0.652-1.392c20.856-5.007,42.255-7.352,63.686-6.988c27.756,0.504,55.244,5.435,81.439,14.627   c16.852,30.408,24.653,73.958,27.532,95.904c-29.052,8.719-47.221,37.535-42.545,67.504c4.668,29.972,30.742,51.905,61.065,51.371   c30.326-0.523,55.619-23.357,59.235-53.477c3.619-30.112-15.545-58.284-44.884-65.976c-3.169-25.466-8.667-50.579-16.435-75.029   c81.532,46.78,131.952,133.461,132.303,227.459l0.74,49.883H227.221V844.595z M621.663,716.892c11.266,0,21.42,6.782,25.735,17.194   c4.311,10.412,1.937,22.396-6.037,30.356c-7.971,7.971-19.944,10.357-30.356,6.045c-10.409-4.311-17.205-14.477-17.205-25.743   c0-7.385,2.942-14.468,8.165-19.7C607.187,719.823,614.281,716.892,621.663,716.892L621.663,716.892z M1011.997,954.13H99.849   c-16.03,0-30.164-16.435-35.086-32.87h982.32C1042.161,938.1,1028.027,954.13,1011.997,954.13L1011.997,954.13z M1011.997,954.13"/>
	<path style="fill:#66C8C7;" d="M1032.541,198.115H769.579c-27.23,0-49.305,22.075-49.305,49.305v117.84   c0,64.839-18.895,107.738-57.523,131.073c-6.259,3.788-9.256,11.266-7.352,18.328c1.906,7.064,8.25,12.017,15.57,12.156h361.572   c27.23,0,49.305-22.075,49.305-49.305V247.421c0-13.074-5.191-25.617-14.444-34.862   C1058.158,203.306,1045.615,198.115,1032.541,198.115L1032.541,198.115z M1048.976,477.512c0,9.072-7.363,16.435-16.435,16.435   h-317.2c25.392-30.569,37.803-73.133,37.803-128.687v-117.84c0-9.072,7.363-16.435,16.435-16.435h262.962   c9.072,0,16.435,7.363,16.435,16.435V477.512z M1048.976,477.512"/>
	<path style="fill:#66C8C7;" d="M966.8,296.726H835.32c-9.072,0-16.435,7.363-16.435,16.435c0,9.072,7.363,16.435,16.435,16.435   H966.8c9.072,0,16.435-7.363,16.435-16.435C983.236,304.089,975.873,296.726,966.8,296.726L966.8,296.726z M966.8,296.726"/>
	<path style="fill:#66C8C7;" d="M933.93,395.337H835.32c-9.072,0-16.435,7.363-16.435,16.435s7.363,16.435,16.435,16.435h98.611   c9.072,0,16.435-7.363,16.435-16.435S943.003,395.337,933.93,395.337L933.93,395.337z M933.93,395.337"/>
	<path style="fill:#66C8C7;" d="M514.835,214.55h-8.218v-8.218c0-9.072-7.363-16.435-16.435-16.435   c-9.072,0-16.435,7.363-16.435,16.435v8.218h-8.218c-9.072,0-16.435,7.363-16.435,16.435c0,9.072,7.363,16.435,16.435,16.435h8.218   v8.218c0,9.072,7.363,16.435,16.435,16.435c9.072,0,16.435-7.363,16.435-16.435v-8.218h8.218c9.072,0,16.435-7.363,16.435-16.435   C531.27,221.913,523.907,214.55,514.835,214.55L514.835,214.55z M514.835,214.55"/>
</g>
</svg>