<?xml version="1.0" encoding="UTF-8" standalone="no"?>
<svg
   xmlns:dc="http://purl.org/dc/elements/1.1/"
   xmlns:cc="http://creativecommons.org/ns#"
   xmlns:rdf="http://www.w3.org/1999/02/22-rdf-syntax-ns#"
   xmlns:svg="http://www.w3.org/2000/svg"
   xmlns="http://www.w3.org/2000/svg"
   xmlns:sodipodi="http://sodipodi.sourceforge.net/DTD/sodipodi-0.dtd"
   xmlns:inkscape="http://www.inkscape.org/namespaces/inkscape"
   id="Layer_1"
   viewBox="0 0 130 130"
   width="130"
   height="130"
   version="1.1"
   sodipodi:docname="svgexport-6.svg"
   inkscape:version="1.0.2 (e86c8708, 2021-01-15)">
  <metadata
     id="metadata80">
    <rdf:RDF>
      <cc:Work
         rdf:about="">
        <dc:format>image/svg+xml</dc:format>
        <dc:type
           rdf:resource="http://purl.org/dc/dcmitype/StillImage" />
        <dc:title></dc:title>
      </cc:Work>
    </rdf:RDF>
  </metadata>
  <sodipodi:namedview
     pagecolor="#ffffff"
     bordercolor="#666666"
     borderopacity="1"
     objecttolerance="10"
     gridtolerance="10"
     guidetolerance="10"
     inkscape:pageopacity="0"
     inkscape:pageshadow="2"
     inkscape:window-width="869"
     inkscape:window-height="598"
     id="namedview78"
     showgrid="false"
     inkscape:zoom="1"
     inkscape:cx="60.333068"
     inkscape:cy="75.499999"
     inkscape:window-x="2458"
     inkscape:window-y="703"
     inkscape:window-maximized="0"
     inkscape:current-layer="Layer_1"
     inkscape:document-rotation="0" />
  <defs
     id="defs55">
    <style
       id="style50">.cls-1{clip-path:url(#clippath);}.cls-2{fill:none;}.cls-3{fill:#66c8c7;}</style>
    <clipPath
       id="clippath">
      <rect
         class="cls-2"
         width="932.16998"
         height="1098.02"
         id="rect52"
         x="0"
         y="0" />
    </clipPath>
  </defs>
  <g
     id="g3735"
     transform="translate(5.4230069,-10)">
    <path
       class="cls-3"
       d="M 53.790636,19.341447 H 46.73897 c -1.445614,0 -2.622471,1.176856 -2.622471,2.622471 v 5.501862 h -5.501862 c -1.4468,0 -2.622472,1.176856 -2.622472,2.623656 v 7.049297 c 0,1.4468 1.175672,2.622472 2.622472,2.622472 h 5.501862 v 5.503045 c 0,1.445616 1.176857,2.622472 2.622471,2.622472 h 7.051666 c 1.445616,0 2.622472,-1.176856 2.622472,-2.622472 v -5.503045 h 5.501863 c 1.446798,0 2.623654,-1.175672 2.623654,-2.622472 v -7.049297 c 0,-1.4468 -1.176856,-2.623656 -2.623654,-2.623656 h -5.501863 v -5.501862 c 0,-1.445615 -1.176856,-2.622471 -2.622472,-2.622471 z m 6.939191,11.931948 v 4.67901 H 54.98762 c -1.314195,0 -2.383312,1.070301 -2.383312,2.383312 v 5.742205 h -4.67901 v -5.742205 c 0,-1.314195 -1.069115,-2.383312 -2.38331,-2.383312 h -5.742207 v -4.67901 h 5.742207 c 1.314195,0 2.38331,-1.067932 2.38331,-2.383312 v -5.741021 h 4.67901 v 5.741021 c 0,1.314196 1.067932,2.383312 2.383312,2.383312 z m 0,0"
       id="path57"
       style="stroke-width:0.118396" />
    <path
       class="cls-3"
       d="m 71.597392,76.956493 h -3.426377 c -1.051357,0 -1.903807,0.853636 -1.903807,1.903808 0,1.050173 0.853634,1.903808 1.903807,1.903808 h 3.426377 c 1.05136,0 1.903814,-0.851268 1.903814,-1.903808 0,-1.05254 -0.852454,-1.903808 -1.903814,-1.903808 z m 0,0"
       id="path59"
       style="stroke-width:0.118396" />
    <path
       class="cls-3"
       d="M 46.020307,76.956493 H 28.932212 c -1.051357,0 -1.903808,0.853636 -1.903808,1.903808 0,1.050173 0.853635,1.903808 1.903808,1.903808 h 17.086911 c 1.051357,0 1.903808,-0.851268 1.903808,-1.903808 0,-1.05254 -0.853635,-1.903808 -1.903808,-1.903808 v 0 z m 0,0"
       id="path61"
       style="stroke-width:0.118396" />
    <path
       class="cls-3"
       d="m 71.597392,87.973245 h -3.426377 c -1.051357,0 -1.903807,0.853632 -1.903807,1.903798 0,1.050183 0.853634,1.903815 1.903807,1.903815 h 3.426377 c 1.05136,0 1.903814,-0.851274 1.903814,-1.903815 0,-1.052532 -0.852454,-1.903798 -1.903814,-1.903798 z m 0,0"
       id="path63"
       style="stroke-width:0.118396" />
    <path
       class="cls-3"
       d="M 46.020307,87.973245 H 28.932212 c -1.051357,0 -1.903808,0.853632 -1.903808,1.903798 0,1.050183 0.853635,1.903815 1.903808,1.903815 h 17.086911 c 1.051357,0 1.903808,-0.851274 1.903808,-1.903815 0,-1.052532 -0.853635,-1.903798 -1.903808,-1.903798 v 0 z m 0,0"
       id="path65"
       style="stroke-width:0.118396" />
    <path
       class="cls-3"
       d="m 71.597392,98.99117 h -3.426377 c -1.051357,0 -1.903807,0.851275 -1.903807,1.90382 0,1.05254 0.853634,1.90379 1.903807,1.90379 h 3.426377 c 1.05136,0 1.903814,-0.85244 1.903814,-1.90379 0,-1.051366 -0.852454,-1.90382 -1.903814,-1.90382 z m 0,0"
       id="path67"
       style="stroke-width:0.118396" />
    <path
       class="cls-3"
       d="M 46.020308,98.991178 H 28.932212 c -1.051357,0 -1.903808,0.851267 -1.903808,1.903812 0,1.05254 0.853635,1.9038 1.903808,1.9038 h 17.086912 c 1.051357,0 1.903808,-0.85245 1.903808,-1.9038 0,-1.051361 -0.853635,-1.903812 -1.903808,-1.903812 v 0 z m 0,0"
       id="path69"
       style="stroke-width:0.118396" />
    <path
       class="cls-3"
       d="m 115.63124,77.999565 -11.3376,-6.546115 c -1.41128,-0.814565 -3.05343,-1.030045 -4.626916,-0.608556 -1.573483,0.420306 -2.888863,1.42904 -3.703427,2.840321 l -3.91062,6.774619 v -66.99675 c 0,-1.909727 -1.553356,-3.463083 -3.463084,-3.463083 H 11.937649 c -1.90736,0 -3.4607158,1.553356 -3.4607158,3.463083 v 14.627827 c 0,1.051357 0.8536353,1.903808 1.9038078,1.903808 1.050173,0 1.903808,-0.852451 1.903808,-1.903808 v -14.28211 h 75.960512 v 68.395007 c -0.964927,-0.285335 -1.991421,-0.306646 -2.988315,-0.03907 -1.427856,0.383603 -2.621288,1.298804 -3.360079,2.579849 l -0.773126,1.339059 c -0.738791,1.279861 -0.936512,2.771651 -0.554093,4.20069 0.348084,1.297621 1.140153,2.39752 2.240052,3.14223 L 68.746422,117.78536 H 12.285733 V 36.976532 c 0,-1.051357 -0.852451,-1.903808 -1.903808,-1.903808 -1.0513565,0 -1.9049918,0.852451 -1.9049918,1.903808 v 81.153358 c 0,1.90973 1.5521718,3.46309 3.4607158,3.46309 h 55.005602 c -1.939327,6.18856 0.58606,13.12893 6.432455,16.50322 2.182039,1.26091 4.603237,1.9038 7.057586,1.9038 1.231319,0 2.470925,-0.16101 3.68922,-0.48897 3.654885,-0.97914 6.709502,-3.32219 8.60147,-6.5994 l 0.627499,-1.08805 c 0.526862,-0.91047 0.214297,-2.07549 -0.696169,-2.60116 -0.910465,-0.5245 -2.075482,-0.2143 -2.60116,0.69735 l -0.627499,1.08806 c -1.382865,2.39515 -3.615814,4.10834 -6.288012,4.82582 -2.671014,0.71511 -5.462792,0.34808 -7.857943,-1.03478 -4.957241,-2.86163 -6.652672,-9.1899 -3.79104,-14.14714 l 4.181747,-7.24229 h 23.917178 l -5.154963,8.92943 c -0.526862,0.91047 -0.214296,2.07548 0.696169,2.60116 0.910465,0.52331 2.075482,0.2143 2.60116,-0.69735 l 9.610201,-16.64766 c 0.76958,0.37413 1.59125,0.55291 2.40226,0.55291 1.91446,0 3.77802,-0.99216 4.80332,-2.76574 l 0.77313,-1.34142 c 1.52613,-2.64142 0.61566,-6.034647 -2.02576,-7.560771 l -0.97084,-0.561198 5.53856,-9.59126 c 1.68004,-2.912542 0.6796,-6.647936 -2.23058,-8.32916 v 0 z m -37.762405,31.601075 8.228522,-14.252507 17.939363,10.356097 -2.24952,3.8976 H 77.870019 Z m 34.153695,-7.46368 -0.77431,1.34143 c -0.47595,0.82403 -1.53441,1.107 -2.35726,0.63105 L 85.051921,90.347085 C 84.227884,89.871133 83.94255,88.817409 84.42087,87.988637 l 0.77431,-1.341427 c 0.474768,-0.822852 1.528492,-1.110555 2.357264,-0.631051 L 111.3903,99.778511 c 0.82403,0.475949 1.10818,1.534409 0.63223,2.358449 z m 2.54196,-17.713227 -5.53856,9.591261 -15.300318,-8.833527 5.537382,-9.592444 c 0.632234,-1.091612 2.034046,-1.468111 3.128026,-0.83706 l 11.3376,6.546115 c 1.09161,0.631051 1.46811,2.034044 0.83706,3.125655 v 0 z m 0,0"
       id="path71"
       style="stroke-width:0.118396" />
    <path
       class="cls-3"
       d="M 74.571504,57.661497 H 25.955736 c -1.749892,0 -3.174197,1.424304 -3.174197,3.174197 v 5.883097 c 0,1.749893 1.424305,3.174197 3.174197,3.174197 h 48.615768 c 1.751074,0 3.174202,-1.424304 3.174202,-3.174197 v -5.883097 c 0,-1.749893 -1.424315,-3.174197 -3.174202,-3.174197 z m -47.981165,3.808798 h 21.768289 v 4.613894 H 26.590339 Z m 47.346566,4.613894 H 52.168612 v -4.613894 h 21.768293 z m 0,0"
       id="path75"
       style="stroke-width:0.118396" />
  </g>
</svg>
