<?xml version="1.0" encoding="UTF-8" standalone="no"?>
<svg
   xmlns:dc="http://purl.org/dc/elements/1.1/"
   xmlns:cc="http://creativecommons.org/ns#"
   xmlns:rdf="http://www.w3.org/1999/02/22-rdf-syntax-ns#"
   xmlns:svg="http://www.w3.org/2000/svg"
   xmlns="http://www.w3.org/2000/svg"
   xmlns:sodipodi="http://sodipodi.sourceforge.net/DTD/sodipodi-0.dtd"
   xmlns:inkscape="http://www.inkscape.org/namespaces/inkscape"
   id="Layer_1"
   viewBox="0 0 175.00001 175.00001"
   width="175"
   height="175"
   version="1.1"
   sodipodi:docname="svgexport-7.svg"
   inkscape:version="1.0.2 (e86c8708, 2021-01-15)">
  <metadata
     id="metadata91">
    <rdf:RDF>
      <cc:Work
         rdf:about="">
        <dc:format>image/svg+xml</dc:format>
        <dc:type
           rdf:resource="http://purl.org/dc/dcmitype/StillImage" />
        <dc:title></dc:title>
      </cc:Work>
    </rdf:RDF>
  </metadata>
  <sodipodi:namedview
     pagecolor="#ffffff"
     bordercolor="#666666"
     borderopacity="1"
     objecttolerance="10"
     gridtolerance="10"
     guidetolerance="10"
     inkscape:pageopacity="0"
     inkscape:pageshadow="2"
     inkscape:window-width="1655"
     inkscape:window-height="923"
     id="namedview89"
     showgrid="false"
     inkscape:zoom="0.73533529"
     inkscape:cx="540.66498"
     inkscape:cy="297.875"
     inkscape:window-x="2559"
     inkscape:window-y="277"
     inkscape:window-maximized="0"
     inkscape:current-layer="Layer_1" />
  <defs
     id="defs84">
    <style
       id="style82">.cls-1{fill:#66c8c7;}</style>
  </defs>
  <path
     class="cls-1"
     d="m 172.5,90.648993 c 0,23.611937 -19.28227,43.287247 -43.28725,43.287247 -0.39146,0 -38.169937,-0.39461 -46.829273,-42.108144 C 74.513354,54.837261 46.180283,55.624902 46.180283,55.624902 c -19.675308,0 -35.417126,15.740246 -35.417126,35.417125 0,19.676883 15.740246,35.417123 35.417126,35.417123 10.622936,0 20.461376,-4.7227 27.152395,-12.98743 1.57371,-1.57371 3.935062,-1.96832 5.508772,-0.39146 1.57371,1.57371 1.968317,3.93506 0.394607,5.50877 -8.26473,9.83844 -20.464521,15.74024 -33.448809,15.74024 C 22.175307,134.33085 2.5,115.04857 2.5,91.043599 2.5,67.038624 21.782273,47.756351 45.787248,47.756351 c 0,0 35.022519,-1.182248 44.073317,42.499607 7.478661,35.417122 37.778475,36.204762 39.352185,36.204762 19.28385,0 35.41713,-15.74024 35.41713,-35.417121 0,-19.676879 -15.74025,-35.417125 -35.41713,-35.417125 -8.26158,0 -16.13171,3.14742 -22.82273,8.264729 l 12.98586,1.968317 c 1.96832,0.391463 3.5436,2.359779 3.5436,4.326524 -0.3946,1.968317 -1.96831,3.543599 -3.93506,3.543599 h -0.3946 L 97.340798,70.973685 c -1.182248,0 -2.361351,-0.787641 -3.148993,-1.968317 -0.786069,-1.179103 -1.179103,-2.361351 -0.786069,-3.935061 L 96.15855,44.214324 c 0.394607,-1.968317 2.361351,-3.543599 4.32967,-3.543599 1.96832,0.394607 3.54045,2.361351 3.54045,4.329668 l -1.57371,12.199791 c 7.47709,-6.296413 16.92092,-9.443833 27.1524,-9.443833 C 153.2193,47.361744 172.5,67.038624 172.5,90.648993 Z m 0,0"
     id="path86"
     style="stroke-width:0.157214" />
</svg>
