<?xml version="1.0" encoding="UTF-8" standalone="no"?>
<svg
   xmlns:dc="http://purl.org/dc/elements/1.1/"
   xmlns:cc="http://creativecommons.org/ns#"
   xmlns:rdf="http://www.w3.org/1999/02/22-rdf-syntax-ns#"
   xmlns:svg="http://www.w3.org/2000/svg"
   xmlns="http://www.w3.org/2000/svg"
   xmlns:sodipodi="http://sodipodi.sourceforge.net/DTD/sodipodi-0.dtd"
   xmlns:inkscape="http://www.inkscape.org/namespaces/inkscape"
   id="Layer_1"
   viewBox="0 0 130 130"
   width="130"
   height="130"
   version="1.1"
   sodipodi:docname="svgexport-9.svg"
   inkscape:version="1.0.2 (e86c8708, 2021-01-15)">
  <metadata
     id="metadata158">
    <rdf:RDF>
      <cc:Work
         rdf:about="">
        <dc:format>image/svg+xml</dc:format>
        <dc:type
           rdf:resource="http://purl.org/dc/dcmitype/StillImage" />
        <dc:title></dc:title>
      </cc:Work>
    </rdf:RDF>
  </metadata>
  <sodipodi:namedview
     pagecolor="#ffffff"
     bordercolor="#666666"
     borderopacity="1"
     objecttolerance="10"
     gridtolerance="10"
     guidetolerance="10"
     inkscape:pageopacity="0"
     inkscape:pageshadow="2"
     inkscape:window-width="909"
     inkscape:window-height="633"
     id="namedview156"
     showgrid="false"
     inkscape:zoom="1"
     inkscape:cx="75.49314"
     inkscape:cy="75.377956"
     inkscape:window-x="2451"
     inkscape:window-y="594"
     inkscape:window-maximized="0"
     inkscape:current-layer="Layer_1"
     inkscape:document-rotation="0" />
  <defs
     id="defs145">
    <style
       id="style140">.cls-1{clip-path:url(#clippath);}.cls-2{fill:none;}.cls-3{fill:#66c8c7;}</style>
    <clipPath
       id="clippath">
      <rect
         class="cls-2"
         width="1066"
         height="1066"
         id="rect142"
         x="0"
         y="0" />
    </clipPath>
  </defs>
  <g
     id="g3722"
     transform="translate(-10.000003,-9.9939528)">
    <path
       class="cls-3"
       d="M 58.226904,94.23017 V 73.939281 c 0,-4.04647 -3.292789,-7.339258 -7.339258,-7.339258 -1.130525,0 -2.190314,0.278058 -3.145223,0.735389 V 55.066729 c 0,-4.04647 -3.292787,-7.339258 -7.339258,-7.339258 -1.130523,0 -2.190313,0.278058 -3.145221,0.73539 v -5.97824 c 0,-4.046469 -3.292789,-7.339258 -7.339258,-7.339258 -3.407426,0 -6.256298,2.347636 -7.077056,5.501394 C 21.546467,39.82844 20.025687,39.3394 18.385391,39.3394 13.762073,39.3406 9.9997587,43.102934 9.9997587,47.727471 v 35.646257 c 0,0.351231 0.089027,0.696364 0.2548863,1.00491 l 12.580888,23.065372 c 0.09756,0.17318 0.218299,0.33781 0.359767,0.47807 l 16.415158,16.41637 c 1.169548,1.16955 1.841521,2.79155 1.841521,4.4477 v 9.10638 c 0,1.15736 0.939055,2.09642 2.096408,2.09642 h 25.161777 c 1.157354,0 2.096408,-0.93906 2.096408,-2.09642 v -26.0496 c 0,-2.66472 -1.002471,-5.20626 -2.820821,-7.1551 L 58.224464,94.228948 Z M 50.887646,70.794059 c 1.734201,0 3.145221,1.411021 3.145221,3.145222 v 15.796851 l -6.290444,-6.738026 v -9.058825 c 0,-1.734201 1.411021,-3.145222 3.145223,-3.145222 z M 40.403165,51.922727 c 1.734202,0 3.145222,1.41102 3.145222,3.145222 V 78.504061 L 42.131269,76.98572 C 40.947085,75.717386 39.271422,74.986876 37.532343,74.986876 H 37.257944 V 55.066729 c 0,-1.734201 1.41102,-3.145222 3.145221,-3.145222 v 0 z M 26.773463,42.487061 c 0,-1.734202 1.411021,-3.145223 3.145223,-3.145223 1.7342,0 3.145221,1.411021 3.145221,3.145223 v 34.132793 c -0.930517,0.837832 -1.624442,1.940306 -1.924451,3.200102 L 26.773463,74.263682 V 42.485841 Z M 66.613756,135.79614 H 45.644795 v -7.00999 c 0,-2.79765 -1.090278,-5.4331 -3.06961,-7.41243 L 26.37345,105.17199 14.192575,82.839564 V 47.727471 c 0,-2.312269 1.881767,-4.194036 4.194036,-4.194036 2.312268,0 4.194035,1.881767 4.194035,4.194036 v 27.259405 c 0,0.469527 0.157323,0.924419 0.448795,1.295162 l 23.065369,29.355812 3.295226,-2.5891 -14.228501,-18.112778 v -3.658653 c 0,-1.154914 0.941493,-2.096407 2.096409,-2.096407 h 0.274399 c 0.579286,0 1.136621,0.24269 1.532975,0.664655 l 25.85814,27.704543 c 1.08784,1.16955 1.690298,2.69399 1.690298,4.29282 v 23.95198 z m 0,0"
       id="path147"
       style="stroke-width:0.121955" />
    <g
       class="cls-1"
       clip-path="url(#clippath)"
       id="g153"
       transform="matrix(0.12195511,0,0,0.12195511,9.9997587,9.9848063)">
      <path
         class="cls-3"
         d="m 997.23,240.71 c -13.44,0 -25.91,4.02 -36.54,10.72 -6.73,-25.86 -30.09,-45.11 -58.03,-45.11 -33.18,0 -60.18,27 -60.18,60.18 v 49.02 c -7.83,-3.75 -16.52,-6.03 -25.79,-6.03 -33.18,0 -60.18,27 -60.18,60.18 v 100.6 c -7.83,-3.75 -16.52,-6.03 -25.79,-6.03 -33.18,0 -60.18,27 -60.18,60.18 V 690.8 l -80.04,85.76 c -14.91,15.97 -23.13,36.82 -23.13,58.67 v 213.6 c 0,9.49 7.7,17.19 17.19,17.19 h 206.32 c 9.49,0 17.19,-7.7 17.19,-17.19 v -74.67 c 0,-13.58 5.51,-26.85 15.1,-36.47 l 134.6,-134.61 c 1.15,-1.15 2.15,-2.5 2.95,-3.92 l 103.16,-189.13 c 1.36,-2.53 2.09,-5.36 2.09,-8.24 V 309.48 c 0,-37.92 -30.85,-68.77 -68.77,-68.77 v 0 z M 876.88,266.5 c 0,-14.22 11.57,-25.79 25.79,-25.79 14.22,0 25.79,11.57 25.79,25.79 v 260.56 l -35.8,45.53 c -2.46,-10.33 -8.15,-19.34 -15.78,-26.24 z m -85.97,103.16 c 0,-14.22 11.57,-25.79 25.79,-25.79 14.22,0 25.79,11.57 25.79,25.79 V 533 h -2.25 c -14.26,0 -28,5.99 -37.71,16.39 l -11.62,12.46 V 369.67 Z M 704.94,524.4 c 0,-14.22 11.57,-25.79 25.79,-25.79 14.22,0 25.79,11.57 25.79,25.79 v 74.28 l -51.58,55.25 z m 326.68,72.98 -99.88,183.09 -132.85,132.86 c -16.23,16.24 -25.17,37.82 -25.17,60.79 v 57.48 H 601.78 V 835.2 c 0,-13.12 4.94,-25.61 13.88,-35.19 L 827.69,572.84 c 3.22,-3.47 7.8,-5.46 12.55,-5.46 h 2.25 c 9.47,0 17.19,7.72 17.19,17.19 v 30 L 743.01,763.08 770.03,784.31 959.16,543.6 c 2.4,-3.03 3.68,-6.76 3.68,-10.61 V 309.47 c 0,-18.96 15.43,-34.39 34.39,-34.39 18.96,0 34.39,15.43 34.39,34.39 v 287.9 z m 0,0"
         id="path149" />
      <path
         class="cls-3"
         d="M 790.59,141.65 C 787.7,95.25 764.44,53.45 726.81,26.96 671.87,-11.68 597.67,-8.31 546.34,35.16 L 533,46.46 519.65,35.16 c -51.32,-43.47 -125.52,-46.84 -180.47,-8.2 -37.64,26.5 -60.91,68.29 -63.79,114.69 -2.9,46.52 15.04,91.04 49.26,122.13 l 196.77,178.98 c 3.29,2.97 7.43,4.46 11.57,4.46 4.14,0 8.28,-1.5 11.57,-4.46 L 741.33,263.78 c 34.2,-31.1 52.15,-75.61 49.24,-122.13 v 0 z M 533,406.82 347.79,238.38 c -26.44,-24.06 -40.32,-58.52 -38.06,-94.56 2.23,-35.92 20.19,-68.26 49.25,-88.7 19.59,-13.79 42.35,-20.6 65.08,-20.6 26.17,0 52.29,9.02 73.34,26.89 l 24.47,20.73 c 6.41,5.42 15.82,5.42 22.23,0 L 568.59,61.4 c 39.34,-33.35 96.3,-35.95 138.42,-6.3 29.06,20.45 47.02,52.79 49.25,88.71 2.26,36.05 -11.62,70.52 -38.06,94.56 L 532.99,406.82 Z m 0,0"
         id="path151" />
    </g>
  </g>
</svg>
