<svg xmlns:xlink="http://www.w3.org/1999/xlink" xmlns="http://www.w3.org/2000/svg" id="Layer_1" viewBox="0 0 1081.33 595.75" width="1081.33"  height="595.75" ><defs><style>.cls-1{fill:#66c8c7;}</style></defs><path class="cls-1" d="M1081.33,317.9c0,150.19-122.65,275.34-275.34,275.34-2.49,0-242.79-2.51-297.87-267.84-50.06-235.29-230.28-230.28-230.28-230.28-125.15,0-225.28,100.12-225.28,225.28s100.12,225.28,225.28,225.28c67.57,0,130.15-30.04,172.71-82.61,10.01-10.01,25.03-12.52,35.04-2.49,10.01,10.01,12.52,25.03,2.51,35.04-52.57,62.58-130.17,100.12-212.76,100.12C125.15,595.75,0,473.1,0,320.41S122.65,45.07,275.34,45.07c0,0,222.77-7.52,280.34,270.33,47.57,225.28,240.3,230.29,250.31,230.29,122.66,0,225.28-100.12,225.28-225.28s-100.12-225.28-225.28-225.28c-52.55,0-102.61,20.02-145.17,52.57l82.6,12.52c12.52,2.49,22.54,15.01,22.54,27.52-2.51,12.52-12.52,22.54-25.03,22.54h-2.51l-135.16-17.53c-7.52,0-15.02-5.01-20.03-12.52-5-7.5-7.5-15.02-5-25.03l17.51-132.66c2.51-12.52,15.02-22.54,27.54-22.54,12.52,2.51,22.52,15.02,22.52,27.54l-10.01,77.6c47.56-40.05,107.63-60.07,172.71-60.07,150.19-2.51,272.83,122.65,272.83,272.83h0Zm0,0"/></svg>