<?xml version="1.0" encoding="UTF-8" standalone="no"?>
<svg
   xmlns:dc="http://purl.org/dc/elements/1.1/"
   xmlns:cc="http://creativecommons.org/ns#"
   xmlns:rdf="http://www.w3.org/1999/02/22-rdf-syntax-ns#"
   xmlns:svg="http://www.w3.org/2000/svg"
   xmlns="http://www.w3.org/2000/svg"
   xmlns:sodipodi="http://sodipodi.sourceforge.net/DTD/sodipodi-0.dtd"
   xmlns:inkscape="http://www.inkscape.org/namespaces/inkscape"
   id="Layer_1"
   viewBox="0 0 130.00001 130.00001"
   width="130"
   height="130"
   version="1.1"
   sodipodi:docname="svgexport-7.svg"
   inkscape:version="1.0.2 (e86c8708, 2021-01-15)">
  <metadata
     id="metadata91">
    <rdf:RDF>
      <cc:Work
         rdf:about="">
        <dc:format>image/svg+xml</dc:format>
        <dc:type
           rdf:resource="http://purl.org/dc/dcmitype/StillImage" />
        <dc:title></dc:title>
      </cc:Work>
    </rdf:RDF>
  </metadata>
  <sodipodi:namedview
     pagecolor="#ffffff"
     bordercolor="#666666"
     borderopacity="1"
     objecttolerance="10"
     gridtolerance="10"
     guidetolerance="10"
     inkscape:pageopacity="0"
     inkscape:pageshadow="2"
     inkscape:window-width="1050"
     inkscape:window-height="858"
     id="namedview89"
     showgrid="false"
     inkscape:zoom="1.6363636"
     inkscape:cx="84.66"
     inkscape:cy="41.319949"
     inkscape:window-x="2687"
     inkscape:window-y="418"
     inkscape:window-maximized="0"
     inkscape:current-layer="Layer_1"
     inkscape:document-rotation="0" />
  <defs
     id="defs84">
    <style
       id="style82">.cls-1{fill:#66c8c7;}</style>
  </defs>
  <path
     class="cls-1"
     d="m 129.99978,67.40805 c 0,18.056131 -14.74521,33.1019 -33.101898,33.1019 -0.29935,0 -29.188679,-0.30176 -35.810502,-32.200236 C 55.069072,40.022698 33.402677,40.62501 33.402677,40.62501 c -15.045774,0 -27.0835955,12.036619 -27.0835955,27.083594 0,15.046976 12.0366195,27.083592 27.0835955,27.083592 8.123395,0 15.646882,-3.611466 20.763528,-9.931533 1.203419,-1.203415 3.009154,-1.505179 4.212576,-0.299346 1.203421,1.203423 1.505178,3.009152 0.301756,4.212575 C 52.360472,96.297375 43.03125,100.8105 33.102121,100.8105 15.04599,100.8117 2.175e-4,86.066487 2.175e-4,67.709806 c 0,-18.356685 14.7452185,-33.101903 33.1019035,-33.101903 0,0 26.781837,-0.904069 33.703013,32.499591 5.718957,27.083593 28.889328,27.685907 30.092748,27.685907 14.746418,0 27.083598,-12.036617 27.083598,-27.083595 0,-15.046975 -12.03662,-27.083594 -27.083598,-27.083594 -6.31766,0 -12.335969,2.406843 -17.452623,6.320066 l 9.930338,1.505179 c 1.505175,0.299353 2.709795,1.80453 2.709795,3.308507 -0.30174,1.505179 -1.50517,2.709802 -3.009149,2.709802 h -0.301754 l -16.249195,-2.10749 c -0.90407,0 -1.805734,-0.602312 -2.408045,-1.505179 -0.601109,-0.901664 -0.901664,-1.805733 -0.601109,-3.009154 l 2.105085,-15.948641 c 0.301758,-1.505178 1.805733,-2.709802 3.310913,-2.709802 1.505184,0.301758 2.707394,1.805733 2.707394,3.310912 l -1.203424,9.329221 c 5.717763,-4.814888 12.93949,-7.22173 20.763535,-7.22173 18.056127,-0.301758 32.800137,14.745218 32.800137,32.800147 z m 0,0"
     id="path86"
     style="stroke-width:0.120222" />
</svg>
