<?xml version="1.0" encoding="UTF-8" standalone="no"?>
<svg
   xmlns:dc="http://purl.org/dc/elements/1.1/"
   xmlns:cc="http://creativecommons.org/ns#"
   xmlns:rdf="http://www.w3.org/1999/02/22-rdf-syntax-ns#"
   xmlns:svg="http://www.w3.org/2000/svg"
   xmlns="http://www.w3.org/2000/svg"
   xmlns:sodipodi="http://sodipodi.sourceforge.net/DTD/sodipodi-0.dtd"
   xmlns:inkscape="http://www.inkscape.org/namespaces/inkscape"
   id="Layer_1"
   viewBox="0 0 127.15398 150"
   width="127.15398"
   height="150"
   version="1.1"
   sodipodi:docname="svgexport-6.svg"
   inkscape:version="1.0.2 (e86c8708, 2021-01-15)">
  <metadata
     id="metadata80">
    <rdf:RDF>
      <cc:Work
         rdf:about="">
        <dc:format>image/svg+xml</dc:format>
        <dc:type
           rdf:resource="http://purl.org/dc/dcmitype/StillImage" />
        <dc:title />
      </cc:Work>
    </rdf:RDF>
  </metadata>
  <sodipodi:namedview
     pagecolor="#ffffff"
     bordercolor="#666666"
     borderopacity="1"
     objecttolerance="10"
     gridtolerance="10"
     guidetolerance="10"
     inkscape:pageopacity="0"
     inkscape:pageshadow="2"
     inkscape:window-width="869"
     inkscape:window-height="598"
     id="namedview78"
     showgrid="false"
     inkscape:zoom="1"
     inkscape:cx="60.333068"
     inkscape:cy="75.499999"
     inkscape:window-x="2458"
     inkscape:window-y="703"
     inkscape:window-maximized="0"
     inkscape:current-layer="Layer_1"
     inkscape:document-rotation="0" />
  <defs
     id="defs55">
    <style
       id="style50">.cls-1{clip-path:url(#clippath);}.cls-2{fill:none;}.cls-3{fill:#66c8c7;}</style>
    <clipPath
       id="clippath">
      <rect
         class="cls-2"
         width="932.16998"
         height="1098.02"
         id="rect52"
         x="0"
         y="0" />
    </clipPath>
  </defs>
  <path
     class="cls-3"
     d="m 52.285043,10.778591 h -8.136538 c -1.668017,0 -3.025929,1.357911 -3.025929,3.025928 v 6.348303 h -6.348302 c -1.669384,0 -3.025929,1.357911 -3.025929,3.027295 v 8.133805 c 0,1.669384 1.356545,3.025929 3.025929,3.025929 h 6.348302 v 6.349668 c 0,1.668018 1.357912,3.025929 3.025929,3.025929 h 8.136538 c 1.668018,0 3.025929,-1.357911 3.025929,-3.025929 v -6.349668 h 6.348303 c 1.669383,0 3.027294,-1.356545 3.027294,-3.025929 v -8.133805 c 0,-1.669384 -1.357911,-3.027295 -3.027294,-3.027295 h -6.348303 v -6.348303 c 0,-1.668017 -1.357911,-3.025928 -3.025929,-3.025928 z m 8.006758,13.767633 v 5.398858 h -6.625623 c -1.516379,0 -2.749975,1.234962 -2.749975,2.749975 v 6.625622 h -5.398858 v -6.625622 c 0,-1.516379 -1.233595,-2.749975 -2.749974,-2.749975 h -6.625623 v -5.398858 h 6.625623 c 1.516379,0 2.749974,-1.232229 2.749974,-2.749975 v -6.624256 h 5.398858 v 6.624256 c 0,1.51638 1.232229,2.749975 2.749975,2.749975 z m 0,0"
     id="path57"
     style="stroke-width:0.136611" />
  <path
     class="cls-3"
     d="m 72.8313,77.257492 h -3.953512 c -1.213104,0 -2.196701,0.984964 -2.196701,2.196701 0,1.211738 0.984963,2.196702 2.196701,2.196702 H 72.8313 c 1.213108,0 2.196708,-0.982232 2.196708,-2.196702 0,-1.214469 -0.9836,-2.196701 -2.196708,-2.196701 z m 0,0"
     id="path59"
     style="stroke-width:0.136611" />
  <path
     class="cls-3"
     d="M 43.319278,77.257492 H 23.602245 c -1.213104,0 -2.196702,0.984964 -2.196702,2.196701 0,1.211738 0.984964,2.196702 2.196702,2.196702 h 19.715667 c 1.213104,0 2.196701,-0.982232 2.196701,-2.196702 0,-1.214469 -0.984963,-2.196701 -2.196701,-2.196701 v 0 z m 0,0"
     id="path61"
     style="stroke-width:0.136611" />
  <path
     class="cls-3"
     d="m 72.8313,89.969129 h -3.953512 c -1.213104,0 -2.196701,0.98496 -2.196701,2.19669 0,1.21175 0.984963,2.19671 2.196701,2.19671 H 72.8313 c 1.213108,0 2.196708,-0.98224 2.196708,-2.19671 0,-1.21446 -0.9836,-2.19669 -2.196708,-2.19669 z m 0,0"
     id="path63"
     style="stroke-width:0.136611" />
  <path
     class="cls-3"
     d="M 43.319278,89.969129 H 23.602245 c -1.213104,0 -2.196702,0.98496 -2.196702,2.19669 0,1.21175 0.984964,2.19671 2.196702,2.19671 h 19.715667 c 1.213104,0 2.196701,-0.98224 2.196701,-2.19671 0,-1.21446 -0.984963,-2.19669 -2.196701,-2.19669 v 0 z m 0,0"
     id="path65"
     style="stroke-width:0.136611" />
  <path
     class="cls-3"
     d="m 72.8313,102.68212 h -3.953512 c -1.213104,0 -2.196701,0.98224 -2.196701,2.19671 0,1.21447 0.984963,2.19669 2.196701,2.19669 H 72.8313 c 1.213108,0 2.196708,-0.98359 2.196708,-2.19669 0,-1.21311 -0.9836,-2.19671 -2.196708,-2.19671 z m 0,0"
     id="path67"
     style="stroke-width:0.136611" />
  <g
     class="cls-1"
     clip-path="url(#clippath)"
     id="g73"
     transform="matrix(0.13661078,0,0,0.13661078,-0.09426144,0)">
    <path
       class="cls-3"
       d="M 317.79,751.64 H 173.46 c -8.88,0 -16.08,7.19 -16.08,16.08 0,8.89 7.21,16.08 16.08,16.08 h 144.32 c 8.88,0 16.08,-7.2 16.08,-16.08 0,-8.88 -7.21,-16.08 -16.08,-16.08 v 0 z m 0,0"
       id="path69" />
    <path
       class="cls-3"
       d="m 905.74,574.34 -95.76,-55.29 c -11.92,-6.88 -25.79,-8.7 -39.08,-5.14 -13.29,3.55 -24.4,12.07 -31.28,23.99 l -33.03,57.22 V 29.25 C 706.59,13.12 693.47,0 677.34,0 H 29.92 C 13.81,0 0.69,13.12 0.69,29.25 V 152.8 c 0,8.88 7.21,16.08 16.08,16.08 8.87,0 16.08,-7.2 16.08,-16.08 V 32.17 h 641.58 v 577.68 c -8.15,-2.41 -16.82,-2.59 -25.24,-0.33 -12.06,3.24 -22.14,10.97 -28.38,21.79 l -6.53,11.31 c -6.24,10.81 -7.91,23.41 -4.68,35.48 2.94,10.96 9.63,20.25 18.92,26.54 L 509.74,910.38 H 32.86 V 227.85 c 0,-8.88 -7.2,-16.08 -16.08,-16.08 -8.88,0 -16.09,7.2 -16.09,16.08 v 685.44 c 0,16.13 13.11,29.25 29.23,29.25 h 464.59 c -16.38,52.27 4.95,110.89 54.33,139.39 18.43,10.65 38.88,16.08 59.61,16.08 10.4,0 20.87,-1.36 31.16,-4.13 30.87,-8.27 56.67,-28.06 72.65,-55.74 l 5.3,-9.19 c 4.45,-7.69 1.81,-17.53 -5.88,-21.97 -7.69,-4.43 -17.53,-1.81 -21.97,5.89 l -5.3,9.19 c -11.68,20.23 -30.54,34.7 -53.11,40.76 -22.56,6.04 -46.14,2.94 -66.37,-8.74 -41.87,-24.17 -56.19,-77.62 -32.02,-119.49 l 35.32,-61.17 h 202.01 l -43.54,75.42 c -4.45,7.69 -1.81,17.53 5.88,21.97 7.69,4.42 17.53,1.81 21.97,-5.89 l 81.17,-140.61 c 6.5,3.16 13.44,4.67 20.29,4.67 16.17,0 31.91,-8.38 40.57,-23.36 l 6.53,-11.33 C 916,771.98 908.31,743.32 886,730.43 l -8.2,-4.74 46.78,-81.01 c 14.19,-24.6 5.74,-56.15 -18.84,-70.35 v 0 z m -318.95,266.91 69.5,-120.38 151.52,87.47 -19,32.92 H 586.8 Z m 288.47,-63.04 -6.54,11.33 c -4.02,6.96 -12.96,9.35 -19.91,5.33 L 647.46,678.63 c -6.96,-4.02 -9.37,-12.92 -5.33,-19.92 l 6.54,-11.33 c 4.01,-6.95 12.91,-9.38 19.91,-5.33 l 201.34,116.24 c 6.96,4.02 9.36,12.96 5.34,19.92 z M 896.73,628.6 849.95,709.61 720.72,635 767.49,553.98 c 5.34,-9.22 17.18,-12.4 26.42,-7.07 l 95.76,55.29 c 9.22,5.33 12.4,17.18 7.07,26.4 v 0 z m 0,0"
       id="path71" />
  </g>
  <path
     class="cls-3"
     d="M 76.262968,54.994034 H 20.16785 c -2.019107,0 -3.662535,1.643428 -3.662535,3.662535 v 6.788189 c 0,2.019108 1.643428,3.662535 3.662535,3.662535 h 56.095118 c 2.02047,0 3.66254,-1.643427 3.66254,-3.662535 v -6.788189 c 0,-2.019107 -1.64344,-3.662535 -3.66254,-3.662535 z m -55.362884,4.394768 h 25.117257 v 5.323723 H 20.900084 Z m 54.630654,5.323723 H 50.413476 v -5.323723 h 25.117262 z m 0,0"
     id="path75"
     style="stroke-width:0.136611" />
</svg>
