<?xml version="1.0" encoding="UTF-8" standalone="no"?>
<svg
   xmlns:dc="http://purl.org/dc/elements/1.1/"
   xmlns:cc="http://creativecommons.org/ns#"
   xmlns:rdf="http://www.w3.org/1999/02/22-rdf-syntax-ns#"
   xmlns:svg="http://www.w3.org/2000/svg"
   xmlns="http://www.w3.org/2000/svg"
   xmlns:sodipodi="http://sodipodi.sourceforge.net/DTD/sodipodi-0.dtd"
   xmlns:inkscape="http://www.inkscape.org/namespaces/inkscape"
   id="Layer_1"
   viewBox="0 0 175 175"
   width="175"
   height="175"
   version="1.1"
   sodipodi:docname="svgexport-6.svg"
   inkscape:version="1.0.2 (e86c8708, 2021-01-15)">
  <metadata
     id="metadata80">
    <rdf:RDF>
      <cc:Work
         rdf:about="">
        <dc:format>image/svg+xml</dc:format>
        <dc:type
           rdf:resource="http://purl.org/dc/dcmitype/StillImage" />
        <dc:title></dc:title>
      </cc:Work>
    </rdf:RDF>
  </metadata>
  <sodipodi:namedview
     pagecolor="#ffffff"
     bordercolor="#666666"
     borderopacity="1"
     objecttolerance="10"
     gridtolerance="10"
     guidetolerance="10"
     inkscape:pageopacity="0"
     inkscape:pageshadow="2"
     inkscape:window-width="1224"
     inkscape:window-height="834"
     id="namedview78"
     showgrid="false"
     inkscape:zoom="0.58286733"
     inkscape:cx="475.85957"
     inkscape:cy="549.01001"
     inkscape:window-x="2506"
     inkscape:window-y="270"
     inkscape:window-maximized="0"
     inkscape:current-layer="Layer_1" />
  <defs
     id="defs55">
    <style
       id="style50">.cls-1{clip-path:url(#clippath);}.cls-2{fill:none;}.cls-3{fill:#66c8c7;}</style>
    <clipPath
       id="clippath">
      <rect
         class="cls-2"
         width="932.16998"
         height="1098.02"
         id="rect52"
         x="0"
         y="0" />
    </clipPath>
  </defs>
  <path
     class="cls-3"
     d="m 77.946382,14.215736 h -9.22141 c -1.89042,0 -3.429386,1.538966 -3.429386,3.429386 v 7.194743 h -7.194743 c -1.891968,0 -3.429386,1.538966 -3.429386,3.430934 v 9.218313 c 0,1.891968 1.537418,3.429386 3.429386,3.429386 h 7.194743 v 7.196291 c 0,1.89042 1.538966,3.429386 3.429386,3.429386 h 9.22141 c 1.89042,0 3.429386,-1.538966 3.429386,-3.429386 v -7.196291 h 7.194743 c 1.891968,0 3.430934,-1.537418 3.430934,-3.429386 v -9.218313 c 0,-1.891968 -1.538966,-3.430934 -3.430934,-3.430934 h -7.194743 v -7.194743 c 0,-1.89042 -1.538966,-3.429386 -3.429386,-3.429386 z m 9.074325,15.603318 v 6.118706 h -7.509039 c -1.718563,0 -3.116638,1.399623 -3.116638,3.116638 v 7.509039 h -6.118706 v -7.509039 c 0,-1.718563 -1.398074,-3.116638 -3.116638,-3.116638 h -7.509039 v -6.118706 h 7.509039 c 1.718564,0 3.116638,-1.396526 3.116638,-3.116638 v -7.507491 h 6.118706 v 7.507491 c 0,1.718564 1.396526,3.116638 3.116638,3.116638 z m 0,0"
     id="path57"
     style="stroke-width:0.154826" />
  <path
     class="cls-3"
     d="m 101.23214,89.558492 h -4.480647 c -1.374851,0 -2.489595,1.116292 -2.489595,2.489595 0,1.373303 1.116292,2.489595 2.489595,2.489595 h 4.480647 c 1.37486,0 2.4896,-1.113196 2.4896,-2.489595 0,-1.376399 -1.11475,-2.489595 -2.4896,-2.489595 z m 0,0"
     id="path59"
     style="stroke-width:0.154826" />
  <path
     class="cls-3"
     d="M 67.785181,89.558492 H 45.43921 c -1.374851,0 -2.489595,1.116292 -2.489595,2.489595 0,1.373303 1.116292,2.489595 2.489595,2.489595 h 22.344423 c 1.374851,0 2.489595,-1.113196 2.489595,-2.489595 0,-1.376399 -1.116292,-2.489595 -2.489595,-2.489595 v 0 z m 0,0"
     id="path61"
     style="stroke-width:0.154826" />
  <path
     class="cls-3"
     d="m 101.23214,103.96501 h -4.480647 c -1.374851,0 -2.489595,1.11629 -2.489595,2.48959 0,1.37331 1.116292,2.4896 2.489595,2.4896 h 4.480647 c 1.37486,0 2.4896,-1.1132 2.4896,-2.4896 0,-1.37639 -1.11475,-2.48959 -2.4896,-2.48959 z m 0,0"
     id="path63"
     style="stroke-width:0.154826" />
  <path
     class="cls-3"
     d="M 67.785181,103.96501 H 45.43921 c -1.374851,0 -2.489595,1.11629 -2.489595,2.48959 0,1.37331 1.116292,2.4896 2.489595,2.4896 h 22.344423 c 1.374851,0 2.489595,-1.1132 2.489595,-2.4896 0,-1.37639 -1.116292,-2.48959 -2.489595,-2.48959 v 0 z m 0,0"
     id="path65"
     style="stroke-width:0.154826" />
  <path
     class="cls-3"
     d="m 101.23214,118.37307 h -4.480647 c -1.374851,0 -2.489595,1.1132 -2.489595,2.4896 0,1.3764 1.116292,2.48959 2.489595,2.48959 h 4.480647 c 1.37486,0 2.4896,-1.11474 2.4896,-2.48959 0,-1.37485 -1.11475,-2.4896 -2.4896,-2.4896 z m 0,0"
     id="path67"
     style="stroke-width:0.154826" />
  <g
     class="cls-1"
     clip-path="url(#clippath)"
     id="g73"
     transform="matrix(0.15482555,0,0,0.15482555,18.58317,2)">
    <path
       class="cls-3"
       d="M 317.79,751.64 H 173.46 c -8.88,0 -16.08,7.19 -16.08,16.08 0,8.89 7.21,16.08 16.08,16.08 h 144.32 c 8.88,0 16.08,-7.2 16.08,-16.08 0,-8.88 -7.21,-16.08 -16.08,-16.08 v 0 z m 0,0"
       id="path69" />
    <path
       class="cls-3"
       d="m 905.74,574.34 -95.76,-55.29 c -11.92,-6.88 -25.79,-8.7 -39.08,-5.14 -13.29,3.55 -24.4,12.07 -31.28,23.99 l -33.03,57.22 V 29.25 C 706.59,13.12 693.47,0 677.34,0 H 29.92 C 13.81,0 0.69,13.12 0.69,29.25 V 152.8 c 0,8.88 7.21,16.08 16.08,16.08 8.87,0 16.08,-7.2 16.08,-16.08 V 32.17 h 641.58 v 577.68 c -8.15,-2.41 -16.82,-2.59 -25.24,-0.33 -12.06,3.24 -22.14,10.97 -28.38,21.79 l -6.53,11.31 c -6.24,10.81 -7.91,23.41 -4.68,35.48 2.94,10.96 9.63,20.25 18.92,26.54 L 509.74,910.38 H 32.86 V 227.85 c 0,-8.88 -7.2,-16.08 -16.08,-16.08 -8.88,0 -16.09,7.2 -16.09,16.08 v 685.44 c 0,16.13 13.11,29.25 29.23,29.25 h 464.59 c -16.38,52.27 4.95,110.89 54.33,139.39 18.43,10.65 38.88,16.08 59.61,16.08 10.4,0 20.87,-1.36 31.16,-4.13 30.87,-8.27 56.67,-28.06 72.65,-55.74 l 5.3,-9.19 c 4.45,-7.69 1.81,-17.53 -5.88,-21.97 -7.69,-4.43 -17.53,-1.81 -21.97,5.89 l -5.3,9.19 c -11.68,20.23 -30.54,34.7 -53.11,40.76 -22.56,6.04 -46.14,2.94 -66.37,-8.74 -41.87,-24.17 -56.19,-77.62 -32.02,-119.49 l 35.32,-61.17 h 202.01 l -43.54,75.42 c -4.45,7.69 -1.81,17.53 5.88,21.97 7.69,4.42 17.53,1.81 21.97,-5.89 l 81.17,-140.61 c 6.5,3.16 13.44,4.67 20.29,4.67 16.17,0 31.91,-8.38 40.57,-23.36 l 6.53,-11.33 C 916,771.98 908.31,743.32 886,730.43 l -8.2,-4.74 46.78,-81.01 c 14.19,-24.6 5.74,-56.15 -18.84,-70.35 v 0 z m -318.95,266.91 69.5,-120.38 151.52,87.47 -19,32.92 H 586.8 Z m 288.47,-63.04 -6.54,11.33 c -4.02,6.96 -12.96,9.35 -19.91,5.33 L 647.46,678.63 c -6.96,-4.02 -9.37,-12.92 -5.33,-19.92 l 6.54,-11.33 c 4.01,-6.95 12.91,-9.38 19.91,-5.33 l 201.34,116.24 c 6.96,4.02 9.36,12.96 5.34,19.92 z M 896.73,628.6 849.95,709.61 720.72,635 767.49,553.98 c 5.34,-9.22 17.18,-12.4 26.42,-7.07 l 95.76,55.29 c 9.22,5.33 12.4,17.18 7.07,26.4 v 0 z m 0,0"
       id="path71" />
  </g>
  <path
     class="cls-3"
     d="M 105.12136,64.326573 H 41.546896 c -2.288322,0 -4.150873,1.862551 -4.150873,4.150873 v 7.693281 c 0,2.288322 1.862551,4.150873 4.150873,4.150873 h 63.574464 c 2.28987,0 4.15088,-1.862551 4.15088,-4.150873 v -7.693281 c 0,-2.288322 -1.86256,-4.150873 -4.15088,-4.150873 z M 42.376761,69.30731 h 28.466225 v 6.033552 H 42.376761 Z M 104.2915,75.340862 H 75.825272 V 69.30731 H 104.2915 Z m 0,0"
     id="path75"
     style="stroke-width:0.154826" />
</svg>
