<?xml version="1.0" encoding="UTF-8" standalone="no"?>
<svg
   xmlns:dc="http://purl.org/dc/elements/1.1/"
   xmlns:cc="http://creativecommons.org/ns#"
   xmlns:rdf="http://www.w3.org/1999/02/22-rdf-syntax-ns#"
   xmlns:svg="http://www.w3.org/2000/svg"
   xmlns="http://www.w3.org/2000/svg"
   xmlns:sodipodi="http://sodipodi.sourceforge.net/DTD/sodipodi-0.dtd"
   xmlns:inkscape="http://www.inkscape.org/namespaces/inkscape"
   id="Layer_1"
   viewBox="0 0 150.00001 82.639897"
   width="150"
   height="82.639893"
   version="1.1"
   sodipodi:docname="svgexport-7.svg"
   inkscape:version="1.0.2 (e86c8708, 2021-01-15)">
  <metadata
     id="metadata91">
    <rdf:RDF>
      <cc:Work
         rdf:about="">
        <dc:format>image/svg+xml</dc:format>
        <dc:type
           rdf:resource="http://purl.org/dc/dcmitype/StillImage" />
        <dc:title />
      </cc:Work>
    </rdf:RDF>
  </metadata>
  <sodipodi:namedview
     pagecolor="#ffffff"
     bordercolor="#666666"
     borderopacity="1"
     objecttolerance="10"
     gridtolerance="10"
     guidetolerance="10"
     inkscape:pageopacity="0"
     inkscape:pageshadow="2"
     inkscape:window-width="861"
     inkscape:window-height="578"
     id="namedview89"
     showgrid="false"
     inkscape:zoom="1"
     inkscape:cx="84.66"
     inkscape:cy="41.319949"
     inkscape:window-x="2564"
     inkscape:window-y="761"
     inkscape:window-maximized="0"
     inkscape:current-layer="Layer_1"
     inkscape:document-rotation="0" />
  <defs
     id="defs84">
    <style
       id="style82">.cls-1{fill:#66c8c7;}</style>
  </defs>
  <path
     class="cls-1"
     d="m 150,44.098472 c 0,20.834067 -17.01377,38.194627 -38.19463,38.194627 -0.34541,0 -33.679359,-0.34818 -41.319949,-37.154242 C 63.541195,12.499885 38.541426,13.194862 38.541426,13.194862 c -17.360566,0 -31.250405,13.888453 -31.250405,31.250405 0,17.361952 13.888452,31.250402 31.250405,31.250402 9.373179,0 18.054155,-4.16709 23.957996,-11.4595 1.388567,-1.38856 3.472113,-1.73675 4.860681,-0.3454 1.388568,1.38857 1.73675,3.47211 0.348183,4.86068 -7.292409,8.68097 -18.056931,13.88844 -29.513655,13.88844 C 17.360565,82.641289 0,65.627509 0,44.446654 0,23.265793 17.01377,6.252023 38.194631,6.252023 c 0,0 30.902222,-1.04316 38.88822,37.499653 6.598819,31.250403 33.333949,31.945383 34.722519,31.945383 17.01516,0 31.25041,-13.88845 31.25041,-31.250405 0,-17.361952 -13.88846,-31.250405 -31.25041,-31.250405 -7.28963,0 -14.23386,2.777136 -20.13771,7.292408 l 11.45812,1.736751 c 1.73675,0.345408 3.1267,2.082157 3.1267,3.817521 -0.34817,1.73675 -1.73674,3.126705 -3.47211,3.126705 h -0.34818 L 83.683057,26.737906 c -1.04316,0 -2.083545,-0.694977 -2.778523,-1.73675 -0.69359,-1.040385 -1.040385,-2.083545 -0.69359,-3.472113 L 82.639897,3.126705 C 82.98808,1.389955 84.723442,0 86.460194,0 88.19695,0.348183 89.58412,2.083545 89.58412,3.820295 L 88.19555,14.584817 C 94.79299,9.029158 103.12578,6.252023 112.15355,6.252023 132.98762,5.90384 150,23.265793 150,44.098472 Z m 0,0"
     id="path86"
     style="stroke-width:0.138718" />
</svg>
