<?xml version="1.0" encoding="UTF-8" standalone="no"?>
<svg
   xmlns:dc="http://purl.org/dc/elements/1.1/"
   xmlns:cc="http://creativecommons.org/ns#"
   xmlns:rdf="http://www.w3.org/1999/02/22-rdf-syntax-ns#"
   xmlns:svg="http://www.w3.org/2000/svg"
   xmlns="http://www.w3.org/2000/svg"
   xmlns:sodipodi="http://sodipodi.sourceforge.net/DTD/sodipodi-0.dtd"
   xmlns:inkscape="http://www.inkscape.org/namespaces/inkscape"
   width="76.059837mm"
   height="23.927742mm"
   viewBox="0 0 76.059837 23.927742"
   version="1.1"
   id="svg8"
   inkscape:version="1.0.2 (e86c8708, 2021-01-15)"
   sodipodi:docname="paligofestival.svg">
  <defs
     id="defs2" />
  <sodipodi:namedview
     id="base"
     pagecolor="#ffffff"
     bordercolor="#666666"
     borderopacity="1.0"
     inkscape:pageopacity="0.0"
     inkscape:pageshadow="2"
     inkscape:zoom="1"
     inkscape:cx="97.89227"
     inkscape:cy="58.460724"
     inkscape:document-units="mm"
     inkscape:current-layer="layer2"
     inkscape:document-rotation="0"
     showgrid="false"
     inkscape:window-width="1995"
     inkscape:window-height="1218"
     inkscape:window-x="1687"
     inkscape:window-y="25"
     inkscape:window-maximized="0" />
  <metadata
     id="metadata5">
    <rdf:RDF>
      <cc:Work
         rdf:about="">
        <dc:format>image/svg+xml</dc:format>
        <dc:type
           rdf:resource="http://purl.org/dc/dcmitype/StillImage" />
        <dc:title />
      </cc:Work>
    </rdf:RDF>
  </metadata>
  <g
     inkscape:groupmode="layer"
     id="layer2"
     inkscape:label="Layer 2">
    <path
       style="fill:#000000;stroke-width:0.0234198"
       d="m 62.189314,23.280627 c -0.23537,-0.01134 -0.337117,-0.02598 -0.398138,-0.0574 -0.186157,-0.09575 -0.299869,-0.261478 -0.320478,-0.467195 -0.02184,-0.218014 0.09439,-1.467822 0.206082,-2.216047 0.06154,-0.41222 0.110607,-0.519171 0.343527,-0.748666 0.210132,-0.207048 0.245771,-0.223035 1.000412,-0.44864 0.257618,-0.07706 0.476546,-0.148163 0.486506,-0.158102 0.01,-0.01 0.01523,-0.212148 0.01172,-0.44934 l -0.0064,-0.431263 -0.07027,-0.03249 c -0.175191,-0.08099 -0.288095,-0.258862 -0.259862,-0.409364 0.02052,-0.10937 0.1405,-0.243536 0.243329,-0.272097 0.05127,-0.01428 0.398509,-0.02416 0.848443,-0.02425 l 0.761649,-1.73e-4 0.286952,-0.7963 0.28695,-0.79629 -0.176962,-0.661592 c -0.242841,-0.907864 -0.292786,-1.158081 -0.309145,-1.548773 -0.01639,-0.391298 -3.96e-4,-0.401812 0.158424,-0.104262 0.137706,0.258009 0.335007,0.535761 0.344799,0.485406 0.004,-0.0207 -0.04193,-0.226219 -0.10212,-0.456692 l -0.109439,-0.419005 -0.01145,-0.515231 c -0.01329,-0.598327 0.01,-0.83894 0.111786,-1.157522 0.08954,-0.280148 0.210322,-0.528707 0.256895,-0.528707 0.02566,0 0.03937,0.03844 0.05085,0.1425 0.02752,0.249478 0.215541,0.750889 0.290832,0.775607 0.027,0.0086 0.05629,-0.743146 0.0564,-1.447848 7.1e-5,-0.41406 0.03197,-0.6392431 0.152235,-1.0745221 0.14744,-0.5336045 0.321888,-0.9438793 0.627359,-1.4754516 0.171135,-0.297803 0.207286,-0.3496155 0.244634,-0.3505639 0.04255,-9.587e-4 0.05051,0.058367 0.07675,0.5730537 0.02537,0.4976151 0.04436,0.6210513 0.116516,0.7576362 l 0.04516,0.08549 0.0011,-0.180309 c 5.66e-4,-0.099165 0.01718,-0.3034668 0.03692,-0.4540067 0.180993,-1.3807011 0.698526,-2.53275 1.70333,-3.7917019 0.266625,-0.3340599 0.267852,-0.3342611 0.272564,-0.0438 0.0054,0.3284435 0.08705,0.9115603 0.141795,1.0118789 0.0096,0.017539 0.03499,-0.08645 0.05716,-0.2341917 C 69.74676,4.690232 69.959899,4.0497438 70.237737,3.582635 70.535589,3.0818854 71.16879,2.4318321 71.762726,2.017063 72.086542,1.7909221 72.074278,1.7929443 72.034843,1.9724 c -0.01788,0.081371 -0.03949,0.2954256 -0.04803,0.4757634 -0.01436,0.3033231 -0.01262,0.3254818 0.02322,0.2958761 0.0213,-0.017635 0.04971,-0.075524 0.06314,-0.1288127 0.03877,-0.1538181 0.138786,-0.3844348 0.263826,-0.6083234 0.39575,-0.7086038 0.995177,-1.19430604 1.867823,-1.51346242 0.218083,-0.0797409 0.443893,-0.14345741 0.443893,-0.12521852 0,0.006712 -0.105029,0.16563541 -0.233398,0.35378429 -0.12837,0.18813938 -0.228757,0.34672075 -0.223083,0.35239465 0.0056,0.00575 0.08699,-0.046196 0.180704,-0.11534682 0.470209,-0.34681652 0.873652,-0.58075905 1.018811,-0.59077463 0.06428,-0.004788 0.0649,-0.002875 0.05933,0.12430808 -0.01195,0.27341061 -0.253394,0.98010697 -0.477505,1.39755967 -0.149825,0.2790844 -0.333767,0.5342562 -0.590192,0.8187461 -0.113734,0.1261771 -0.2177,0.2498046 -0.231042,0.2747333 -0.02252,0.042075 -0.01786,0.04428 0.06498,0.030862 0.114455,-0.018594 0.435626,-0.1726128 0.617729,-0.2962786 0.07785,-0.052905 0.141539,-0.087792 0.141519,-0.077728 -2.1e-5,0.010159 -0.02198,0.1341128 -0.0488,0.2754903 C 74.823632,3.464893 74.57959,4.0585813 74.263266,4.532514 73.918947,5.0483972 73.58487,5.3714927 73.114724,5.6433123 l -0.21078,0.121864 0.15223,-0.015718 C 73.32521,5.7216663 73.73328,5.6040676 73.973347,5.4851746 l 0.226259,-0.1120502 -0.07685,0.2120329 C 73.9194,6.1459957 73.659746,6.7342114 73.4529,7.1024774 72.964845,7.9714169 72.409119,8.5322977 71.578132,8.9946336 l -0.173086,0.096301 0.222488,-0.014855 c 0.272,-0.018211 0.456279,-0.058367 0.758521,-0.1653575 0.127366,-0.045047 0.234852,-0.078686 0.23886,-0.074666 0.01556,0.015531 -0.187018,0.4860676 -0.374078,0.8687954 -0.689014,1.4097415 -1.565459,2.3959725 -2.629942,2.9593745 -0.137798,0.07294 -0.239353,0.136326 -0.225681,0.140889 0.04693,0.01562 0.487624,-0.06144 0.698319,-0.122171 0.115928,-0.03346 0.316168,-0.111993 0.444977,-0.174645 0.12881,-0.06269 0.238483,-0.109759 0.243718,-0.104674 0.01702,0.01648 -0.07696,0.203588 -0.204728,0.407514 -0.3561,0.568328 -0.894501,1.082659 -1.537861,1.469106 -0.302265,0.181564 -0.372537,0.216692 -0.79541,0.397604 -0.19369,0.0829 -0.362176,0.160546 -0.374413,0.172622 -0.0139,0.01371 0.008,0.02185 0.05855,0.02176 0.128048,-3.45e-4 0.647218,-0.06546 0.847848,-0.106382 0.100643,-0.02051 0.19302,-0.03392 0.205294,-0.02981 0.03719,0.01255 -0.34609,0.390003 -0.548475,0.540074 -0.104319,0.07735 -0.316137,0.201739 -0.470708,0.27641 -0.453301,0.218991 -1.421772,0.587487 -1.455467,0.553788 -0.02904,-0.02903 0.192332,-0.608199 0.677472,-1.772573 1.02389,-2.457407 1.853724,-4.171248 3.430285,-7.0845031 0.704696,-1.3021769 2.009272,-3.6343376 2.418791,-4.3240219 0.07761,-0.1307104 0.137158,-0.2416292 0.132311,-0.2464788 -0.01284,-0.012843 -0.34957,0.4128426 -0.481501,0.6087164 -0.503537,0.747583 -1.607602,2.6011625 -2.443493,4.1022993 -1.524347,2.7375191 -2.520973,4.7787771 -3.624751,7.4241031 -0.312324,0.748513 -1.101024,2.692443 -1.101024,2.713711 0,0.0057 0.09222,0.01707 0.204924,0.02511 0.447034,0.03191 0.473559,0.03719 0.557974,0.111352 0.201216,0.176668 0.129778,0.481686 -0.142271,0.607462 l -0.07027,0.03249 -0.0068,0.397852 c -0.0037,0.218809 -0.0013,0.42007 0.0055,0.447222 0.01,0.04064 0.06511,0.06489 0.311138,0.136864 0.86327,0.252565 1.007823,0.315822 1.214643,0.531555 0.221974,0.231536 0.265186,0.346605 0.337239,0.897988 0.06754,0.516823 0.166324,1.604188 0.170235,1.873774 0.0039,0.267813 -0.03601,0.389945 -0.169875,0.520004 -0.131118,0.127404 -0.212324,0.151901 -0.572444,0.172708 -0.384307,0.02223 -4.699742,0.02109 -5.165714,-9.58e-4 z"
       id="path847" />
  </g>
  <g
     inkscape:label="Layer 1"
     inkscape:groupmode="layer"
     id="layer1"
     transform="translate(-15.46933,-147.59118)">
    <text
       xml:space="preserve"
       style="font-style:normal;font-weight:normal;font-size:10.5833px;line-height:0.65;font-family:sans-serif;fill:#000000;fill-opacity:1;stroke:none;stroke-width:0.264583"
       x="45.481876"
       y="163.8676"
       id="text849"><tspan
         sodipodi:role="line"
         id="tspan847"
         x="45.481876"
         y="163.8676"
         style="font-style:normal;font-variant:normal;font-weight:normal;font-stretch:normal;font-size:14.1111px;font-family:'Libre Baskerville';-inkscape-font-specification:'Libre Baskerville';text-align:center;text-anchor:middle;stroke-width:0.264583">PALIGO</tspan><tspan
         sodipodi:role="line"
         x="46.407917"
         y="170.95122"
         style="font-style:normal;font-variant:normal;font-weight:normal;font-stretch:normal;font-size:3.52778px;font-family:'PT Sans';-inkscape-font-specification:'PT Sans';text-align:center;letter-spacing:1.85208px;text-anchor:middle;fill:#000000;stroke-width:0.264583"
         id="tspan842"
         dx="0">LITERARY FESTIVAL</tspan></text>
    <text
       xml:space="preserve"
       style="font-style:normal;font-weight:normal;font-size:10.5833px;line-height:1.25;font-family:sans-serif;fill:#000000;fill-opacity:1;stroke:none;stroke-width:0.264583"
       x="84.106781"
       y="153.22551"
       id="text1462"><tspan
         sodipodi:role="line"
         id="tspan1460"
         x="84.106781"
         y="153.22551"
         style="stroke-width:0.264583"></tspan></text>
  </g>
</svg>
