<svg xmlns:xlink="http://www.w3.org/1999/xlink" xmlns="http://www.w3.org/2000/svg" width="24" height="24" fill="none" viewBox="0 0 24 24"><path stroke="#07A254" stroke-linecap="round" stroke-linejoin="round" stroke-width="2" d="M17 4L20.4142 7.41421C20.7893 7.78929 21 8.29799 21 8.82843V19C21 20.1046 20.1046 21 19 21C17.8954 21 17 20.1046 17 19V15C17 14.4477 16.5523 14 16 14H14"/><path stroke="#07A254" stroke-linecap="round" stroke-linejoin="round" stroke-miterlimit="10" stroke-width="2" d="M19 11.0909C20.1046 11.0909 21 10.1955 21 9.09094C21 7.98637 20.1046 7.09094 19 7.09094C17.8954 7.09094 17 7.98637 17 9.09094C17 10.1955 17.8954 11.0909 19 11.0909Z"/><path stroke="#07A254" stroke-linecap="round" stroke-linejoin="round" stroke-width="2" d="M3 9V21H14V9M3 9V5C3 3.89543 3.89543 3 5 3H12C13.1046 3 14 3.89543 14 5V9M3 9H14"/></svg>