<svg xmlns:xlink="http://www.w3.org/1999/xlink" xmlns="http://www.w3.org/2000/svg" width="24" height="24" fill="none" viewBox="0 0 24 24"><path stroke="#07A254" stroke-linecap="round" stroke-linejoin="round" stroke-width="2" d="M19 10C19 14.4358 15.1741 18.5983 13.1792 20.4672C12.5062 21.0977 11.4938 21.0977 10.8208 20.4672C8.82591 18.5983 5 14.4358 5 10C5 6.13401 8.13401 3 12 3C15.866 3 19 6.13401 19 10Z"/><path fill-rule="evenodd" stroke="#07A254" stroke-linecap="round" stroke-linejoin="round" stroke-width="2" d="M12 13C13.6569 13 15 11.6569 15 10C15 8.34315 13.6569 7 12 7C10.3431 7 9 8.34315 9 10C9 11.6569 10.3431 13 12 13Z" clip-rule="evenodd"/></svg>