<svg xmlns:xlink="http://www.w3.org/1999/xlink" xmlns="http://www.w3.org/2000/svg" width="24" height="24" fill="none" viewBox="0 0 24 24"><circle cx="12" cy="12" r="3" stroke="#07A254" stroke-linecap="round" stroke-linejoin="round" stroke-width="2"/><path stroke="#07A254" stroke-linecap="round" stroke-linejoin="round" stroke-width="2" d="M9.2624 18.2662L10.3192 20.041C10.6998 20.6803 11.3499 21 12 21C12.6501 21 13.3002 20.6803 13.6808 20.041L14.7376 18.2662C14.8705 18.0429 15.0577 17.8575 15.2814 17.7273C15.5052 17.5971 15.7581 17.5265 16.0164 17.5222L18.0701 17.4874C19.5497 17.4623 20.4692 15.8574 19.751 14.5536L18.754 12.744C18.6286 12.5164 18.5628 12.2603 18.5628 12C18.5628 11.7397 18.6286 11.4836 18.754 11.256L19.751 9.44635C20.4692 8.14261 19.5497 6.53773 18.0701 6.51265L16.0164 6.47783C15.7581 6.47345 15.5052 6.40285 15.2814 6.27268C15.0577 6.14251 14.8705 5.95706 14.7376 5.73382L13.6808 3.959C13.3002 3.31967 12.6501 3 12 3C11.3499 3 10.6998 3.31967 10.3192 3.959L9.2624 5.73382C9.12948 5.95706 8.94232 6.14251 8.71858 6.27268C8.49484 6.40285 8.24188 6.47345 7.98357 6.47783L5.92988 6.51265C4.45031 6.53773 3.53081 8.14261 4.24904 9.44635L5.24597 11.256C5.37136 11.4836 5.43716 11.7397 5.43716 12C5.43716 12.2603 5.37136 12.5164 5.24597 12.744L4.24904 14.5536C3.53081 15.8574 4.45032 17.4623 5.92989 17.4874L7.98357 17.5222C8.24189 17.5265 8.49484 17.5971 8.71858 17.7273C8.94232 17.8575 9.12948 18.0429 9.2624 18.2662Z"/></svg>