<svg xmlns:xlink="http://www.w3.org/1999/xlink" xmlns="http://www.w3.org/2000/svg" width="24" height="24" viewBox="0 0 24 24" fill="none">
<path fill-rule="evenodd" clip-rule="evenodd" d="M10 5C9.44772 5 9 5.44772 9 6V9H5.85714C5.61492 9 5.38093 9.08792 5.19864 9.24742L2.3415 11.7474C2.12448 11.9373 2 12.2116 2 12.5V18C2 18.5523 2.44772 19 3 19H4C4 20.1046 4.89543 21 6 21C7.10457 21 8 20.1046 8 19H10H11H16C16 20.1046 16.8954 21 18 21C19.1046 21 20 20.1046 20 19H21C21.5523 19 22 18.5523 22 18V6C22 5.44772 21.5523 5 21 5H10ZM18 17H20V7H11V17H18ZM9 17H6H4V12.9538L6.23288 11H9V17Z" fill="#07A254"/>
</svg>