<svg xmlns:xlink="http://www.w3.org/1999/xlink" xmlns="http://www.w3.org/2000/svg" width="24" height="24" viewBox="0 0 24 24" fill="none">
<path d="M14.1967 17C14.7009 14.6396 16 13.7804 16 12C16 9.79086 14.2091 8 12 8C9.79086 8 8 9.79086 8 12C8 13.7804 9.29907 14.6396 9.80327 17M14.1967 17C14.0753 17.5684 14 18.2237 14 19C14 20.1046 13.1046 21 12 21C10.8954 21 10 20.1046 10 19C10 18.2237 9.92468 17.5684 9.80327 17M14.1967 17H9.80327" stroke="#07A254" stroke-width="2" stroke-linecap="round" stroke-linejoin="round"/>
<path d="M12 3V4" stroke="#07A254" stroke-width="2" stroke-linecap="round" stroke-linejoin="round"/>
<path d="M20 12H21" stroke="#07A254" stroke-width="2" stroke-linecap="round" stroke-linejoin="round"/>
<path d="M3 12H4" stroke="#07A254" stroke-width="2" stroke-linecap="round" stroke-linejoin="round"/>
<path d="M18 6L19 5" stroke="#07A254" stroke-width="2" stroke-linecap="round" stroke-linejoin="round"/>
<path d="M6 6L5 5" stroke="#07A254" stroke-width="2" stroke-linecap="round" stroke-linejoin="round"/>
</svg>