<svg xmlns:xlink="http://www.w3.org/1999/xlink" xmlns="http://www.w3.org/2000/svg" width="24" height="24" viewBox="0 0 24 24" fill="none">
<rect x="5" y="3" width="14" height="18" rx="2" stroke="#07A254" stroke-width="2"/>
<path d="M5 9H19" stroke="#07A254" stroke-width="2"/>
<circle cx="8" cy="12" r="1" fill="#07A254"/>
<circle cx="8" cy="15" r="1" fill="#07A254"/>
<circle cx="8" cy="18" r="1" fill="#07A254"/>
<circle cx="12" cy="12" r="1" fill="#07A254"/>
<circle cx="12" cy="15" r="1" fill="#07A254"/>
<circle cx="16" cy="12" r="1" fill="#07A254"/>
<circle cx="16" cy="15" r="1" fill="#07A254"/>
<path d="M12 17C11.4477 17 11 17.4477 11 18C11 18.5523 11.4477 19 12 19V17ZM16 19C16.5523 19 17 18.5523 17 18C17 17.4477 16.5523 17 16 17V19ZM12 19H16V17H12V19Z" fill="#07A254"/>
</svg>