<svg xmlns:xlink="http://www.w3.org/1999/xlink" xmlns="http://www.w3.org/2000/svg" width="24" height="24" viewBox="0 0 24 24" fill="none">
<path fill-rule="evenodd" clip-rule="evenodd" d="M4 12C4 10.1513 4.62707 8.44906 5.68012 7.09438L7.82838 9.24264C7.30487 10.0331 7 10.9809 7 12C7 13.0191 7.30487 13.9669 7.82838 14.7574L5.68012 16.9056C4.62707 15.5509 4 13.8487 4 12ZM7.09433 18.3198L9.24258 16.1716C10.033 16.6951 10.9809 17 12 17C13.0191 17 13.9669 16.6951 14.7574 16.1716L16.9056 18.3199C15.5509 19.3729 13.8487 20 12 20C10.1513 20 8.44902 19.3729 7.09433 18.3198ZM18.3198 16.9057C19.3729 15.551 20 13.8487 20 12C20 10.1513 19.3729 8.44902 18.3198 7.09433L16.1716 9.24258C16.6951 10.033 17 10.9809 17 12C17 13.0191 16.6951 13.967 16.1716 14.7574L18.3198 16.9057ZM14.7574 7.82838C13.9669 7.30487 13.0191 7 12 7C10.9809 7 10.033 7.30488 9.24258 7.82841L7.09433 5.68016C8.44902 4.62709 10.1513 4 12 4C13.8487 4 15.5509 4.62707 16.9056 5.68012L14.7574 7.82838ZM12 2C6.47715 2 2 6.47715 2 12C2 17.5228 6.47715 22 12 22C17.5228 22 22 17.5228 22 12C22 6.47715 17.5228 2 12 2ZM9 12C9 10.3431 10.3431 9 12 9C13.6569 9 15 10.3431 15 12C15 13.6569 13.6569 15 12 15C10.3431 15 9 13.6569 9 12Z" fill="#07A254"/>
</svg>