<svg xmlns:xlink="http://www.w3.org/1999/xlink" xmlns="http://www.w3.org/2000/svg" width="24" height="24" viewBox="0 0 24 24" fill="none">
<path d="M20.5157 16.084L18.1332 13.7015C17.4885 13.0568 16.4437 13.0568 15.799 13.7015L13.8231 15.6773C11.3433 14.6407 9.35764 12.6551 8.32104 10.1752L10.2977 8.19938C10.9424 7.55467 10.9424 6.50989 10.2977 5.866L7.91523 3.48353C7.27052 2.83882 6.22574 2.83882 5.58103 3.48353L4.4487 4.61586C3.27219 5.79237 2.77557 7.48022 3.09465 9.11326C4.25398 15.0531 8.94611 19.7452 14.8859 20.9053C16.519 21.2244 18.2068 20.7278 19.3833 19.5513L20.5165 18.4182C21.1604 17.7734 21.1604 16.7287 20.5157 16.084Z" stroke="#07A254" stroke-width="2" stroke-linecap="round" stroke-linejoin="round"/>
</svg>