<svg xmlns:xlink="http://www.w3.org/1999/xlink" xmlns="http://www.w3.org/2000/svg" width="28" height="28" viewBox="0 0 28 28" fill="none">
<path d="M9.33334 5.83334H7.83334C6.72877 5.83334 5.83334 6.72877 5.83334 7.83334V22.5C5.83334 23.6046 6.72877 24.5 7.83334 24.5H20.1667C21.2712 24.5 22.1667 23.6046 22.1667 22.5V7.83334C22.1667 6.72877 21.2712 5.83334 20.1667 5.83334H18.6667" stroke="#07A254" stroke-width="2" stroke-linecap="round" stroke-linejoin="round"/>
<path d="M9.33334 4.5C9.33334 3.94771 9.78106 3.5 10.3333 3.5H17.6667C18.219 3.5 18.6667 3.94772 18.6667 4.5V7.16667C18.6667 7.71895 18.219 8.16667 17.6667 8.16667H10.3333C9.78106 8.16667 9.33334 7.71895 9.33334 7.16667V4.5Z" stroke="#07A254" stroke-width="2" stroke-linecap="round" stroke-linejoin="round"/>
<path d="M10.5 14H17.5" stroke="#07A254" stroke-width="2" stroke-linecap="round" stroke-linejoin="round"/>
<path d="M10.5 18.6667H17.5" stroke="#07A254" stroke-width="2" stroke-linecap="round" stroke-linejoin="round"/>
</svg>