<svg xmlns:xlink="http://www.w3.org/1999/xlink" xmlns="http://www.w3.org/2000/svg" width="24" height="24" viewBox="0 0 24 24" fill="none">
<path d="M14 4H11C9.89543 4 9 4.89543 9 6V18C9 19.1046 9.89543 20 11 20H18C19.1046 20 20 19.1046 20 18V10M14 4H14.1716C14.702 4 15.2107 4.21071 15.5858 4.58579L19.4142 8.41421C19.7893 8.78929 20 9.29799 20 9.82843V10M14 4V9C14 9.55228 14.4477 10 15 10H20" stroke="#07A254" stroke-width="2"/>
<path d="M7 6H5C4.44772 6 4 6.44772 4 7V17C4 17.5523 4.44772 18 5 18H7" stroke="#07A254" stroke-width="2" stroke-linejoin="round"/>
</svg>