<svg xmlns:xlink="http://www.w3.org/1999/xlink" xmlns="http://www.w3.org/2000/svg" width="24" height="24" viewBox="0 0 24 24" fill="none">
<path fill-rule="evenodd" clip-rule="evenodd" d="M15.5539 4.20349C13.5499 3.66849 11.3267 4.18805 9.75736 5.75736C7.9385 7.57621 7.53015 10.2743 8.53809 12.488C8.71142 12.8687 8.6295 13.3171 8.33276 13.6118L3.70477 18.2094C3.31296 18.5987 2.6798 18.5966 2.29057 18.2048C1.90133 17.813 1.90342 17.1798 2.29523 16.7906L6.45339 12.6597C5.46472 9.84832 6.0931 6.59319 8.34315 4.34315C10.5234 2.16292 13.6479 1.50556 16.3958 2.36565C17.0967 2.58506 17.5295 3.15357 17.6409 3.77609C17.7491 4.38129 17.5573 5.02848 17.0895 5.49632L14.2929 8.29289V9.70711L15.7071 9.70711L18.5037 6.91054C18.9715 6.44269 19.6187 6.25089 20.2239 6.35914C20.8464 6.47048 21.4149 6.90329 21.6343 7.60424C22.4944 10.3521 21.8371 13.4766 19.6569 15.6569C17.4068 17.9069 14.1517 18.5353 11.3403 17.5466L7.20943 21.7048C6.8202 22.0966 6.18704 22.0987 5.79523 21.7094C5.40342 21.3202 5.40133 20.687 5.79057 20.2952L10.3882 15.6672C10.683 15.3705 11.1313 15.2886 11.512 15.4619C13.7257 16.4698 16.4238 16.0615 18.2426 14.2426C19.812 12.6733 20.3315 10.4501 19.7965 8.44613L17.1213 11.1213C16.7462 11.4964 16.2375 11.7071 15.7071 11.7071H14.2929C13.1883 11.7071 12.2929 10.8117 12.2929 9.70711V8.29289C12.2929 7.76246 12.5036 7.25375 12.8787 6.87868L15.5539 4.20349Z" fill="#07A254"/>
</svg>