<svg xmlns:xlink="http://www.w3.org/1999/xlink" xmlns="http://www.w3.org/2000/svg" width="24" height="24" viewBox="0 0 24 24" fill="none">
  <path d="M13 7C13 7.55228 12.5523 8 12 8H9C8.44772 8 8 7.55228 8 7C8 6.44772 8.44772 6 9 6H12C12.5523 6 13 6.44772 13 7Z" fill="#07A254"/>
  <path fill-rule="evenodd" clip-rule="evenodd" d="M3 6C3 3.79086 4.79086 2 7 2H14C14.8885 2 15.6868 2.38625 16.2361 3H18C19.3062 3 20.4175 3.83481 20.8293 5H21.5C22.3284 5 23 5.67157 23 6.5C23 7.32843 22.3284 8 21.5 8H20.8293C20.4175 9.16519 19.3062 10 18 10H16.8595C16.6364 10.8171 16.1625 11.4428 15.5423 11.9074C14.8332 12.4387 13.9615 12.7368 13.1893 12.947L12.6805 16H13.9999C15.6568 16 17 17.3431 17 19V20C17 21.1046 16.1046 22 15 22H6C4.89543 22 4 21.1046 4 20V18C4 16.8954 4.89543 16 6 16H6.15287L6.81954 12H6C4.34315 12 3 10.6569 3 9V6ZM19 7V6C19 5.44772 18.5523 5 18 5H17V8H18C18.5523 8 19 7.55228 19 7ZM14 4C14.5523 4 15 4.44772 15 5V8.89811C15 9.62028 14.7356 10.0128 14.3432 10.3068C13.8833 10.6513 13.2152 10.8788 12.383 11.0911C11.8115 11.2369 11.3686 11.7057 11.2694 12.3007L10.7077 15.6712C10.6892 15.782 10.6802 15.8918 10.68 16H8.18046L8.88936 11.7466C9.04174 10.8323 8.33668 10 7.40977 10H6C5.44772 10 5 9.55228 5 9V6C5 4.89543 5.89543 4 7 4H14ZM6 18V20H15V19C15 18.4478 14.5523 18 13.9999 18H6Z" fill="#07A254"/>
</svg>